G75*
%MOIN*%
%OFA0B0*%
%FSLAX24Y24*%
%IPPOS*%
%LPD*%
%AMOC8*
5,1,8,0,0,1.08239X$1,22.5*
%
%ADD10C,0.0059*%
%ADD11C,0.0063*%
%ADD12C,0.0480*%
%ADD13C,0.0390*%
%ADD14C,0.0088*%
%ADD15C,0.0100*%
%ADD16R,0.1000X0.0200*%
%ADD17R,0.1378X0.0787*%
%ADD18R,0.1260X0.0787*%
%ADD19C,0.0561*%
%ADD20C,0.0585*%
%ADD21R,0.0450X0.0400*%
%ADD22C,0.0740*%
%ADD23R,0.0460X0.0630*%
%ADD24C,0.0050*%
%ADD25C,0.0180*%
%ADD26C,0.0080*%
%ADD27C,0.0120*%
D10*
X017264Y005485D02*
X017292Y005457D01*
X017000Y005165D01*
X016972Y005193D01*
X017264Y005485D01*
X017058Y005223D02*
X017002Y005223D01*
X017060Y005281D02*
X017116Y005281D01*
X017118Y005339D02*
X017174Y005339D01*
X017176Y005397D02*
X017232Y005397D01*
X017234Y005455D02*
X017290Y005455D01*
X017405Y005343D02*
X017433Y005315D01*
X017141Y005023D01*
X017113Y005051D01*
X017405Y005343D01*
X017199Y005081D02*
X017143Y005081D01*
X017201Y005139D02*
X017257Y005139D01*
X017259Y005197D02*
X017315Y005197D01*
X017317Y005255D02*
X017373Y005255D01*
X017375Y005313D02*
X017431Y005313D01*
X017547Y005202D02*
X017575Y005174D01*
X017283Y004882D01*
X017255Y004910D01*
X017547Y005202D01*
X017341Y004940D02*
X017285Y004940D01*
X017343Y004998D02*
X017399Y004998D01*
X017401Y005056D02*
X017457Y005056D01*
X017459Y005114D02*
X017515Y005114D01*
X017517Y005172D02*
X017573Y005172D01*
X017681Y005068D02*
X017709Y005040D01*
X017417Y004748D01*
X017389Y004776D01*
X017681Y005068D01*
X017475Y004806D02*
X017419Y004806D01*
X017477Y004864D02*
X017533Y004864D01*
X017535Y004922D02*
X017591Y004922D01*
X017593Y004980D02*
X017649Y004980D01*
X017651Y005038D02*
X017707Y005038D01*
X017822Y004926D02*
X017850Y004898D01*
X017558Y004606D01*
X017530Y004634D01*
X017822Y004926D01*
X017616Y004664D02*
X017560Y004664D01*
X017618Y004722D02*
X017674Y004722D01*
X017676Y004780D02*
X017732Y004780D01*
X017734Y004838D02*
X017790Y004838D01*
X017792Y004896D02*
X017848Y004896D01*
X017964Y004785D02*
X017992Y004757D01*
X017700Y004465D01*
X017672Y004493D01*
X017964Y004785D01*
X017758Y004523D02*
X017702Y004523D01*
X017760Y004581D02*
X017816Y004581D01*
X017818Y004639D02*
X017874Y004639D01*
X017876Y004697D02*
X017932Y004697D01*
X017934Y004755D02*
X017990Y004755D01*
X018098Y004650D02*
X018126Y004622D01*
X017834Y004330D01*
X017806Y004358D01*
X018098Y004650D01*
X017892Y004388D02*
X017836Y004388D01*
X017894Y004446D02*
X017950Y004446D01*
X017952Y004504D02*
X018008Y004504D01*
X018010Y004562D02*
X018066Y004562D01*
X018068Y004620D02*
X018124Y004620D01*
X018240Y004509D02*
X018268Y004481D01*
X017976Y004189D01*
X017948Y004217D01*
X018240Y004509D01*
X018034Y004247D02*
X017978Y004247D01*
X018036Y004305D02*
X018092Y004305D01*
X018094Y004363D02*
X018150Y004363D01*
X018152Y004421D02*
X018208Y004421D01*
X018210Y004479D02*
X018266Y004479D01*
X018381Y004368D02*
X018409Y004340D01*
X018117Y004048D01*
X018089Y004076D01*
X018381Y004368D01*
X018175Y004106D02*
X018119Y004106D01*
X018177Y004164D02*
X018233Y004164D01*
X018235Y004222D02*
X018291Y004222D01*
X018293Y004280D02*
X018349Y004280D01*
X018351Y004338D02*
X018407Y004338D01*
X018522Y004226D02*
X018550Y004198D01*
X018258Y003906D01*
X018230Y003934D01*
X018522Y004226D01*
X018316Y003964D02*
X018260Y003964D01*
X018318Y004022D02*
X018374Y004022D01*
X018376Y004080D02*
X018432Y004080D01*
X018434Y004138D02*
X018490Y004138D01*
X018492Y004196D02*
X018548Y004196D01*
X018657Y004092D02*
X018685Y004064D01*
X018393Y003772D01*
X018365Y003800D01*
X018657Y004092D01*
X018451Y003830D02*
X018395Y003830D01*
X018453Y003888D02*
X018509Y003888D01*
X018511Y003946D02*
X018567Y003946D01*
X018569Y004004D02*
X018625Y004004D01*
X018627Y004062D02*
X018683Y004062D01*
X018798Y003950D02*
X018826Y003922D01*
X018534Y003630D01*
X018506Y003658D01*
X018798Y003950D01*
X018592Y003688D02*
X018536Y003688D01*
X018594Y003746D02*
X018650Y003746D01*
X018652Y003804D02*
X018708Y003804D01*
X018710Y003862D02*
X018766Y003862D01*
X018768Y003920D02*
X018824Y003920D01*
X018940Y003809D02*
X018968Y003781D01*
X018676Y003489D01*
X018648Y003517D01*
X018940Y003809D01*
X018734Y003547D02*
X018678Y003547D01*
X018736Y003605D02*
X018792Y003605D01*
X018794Y003663D02*
X018850Y003663D01*
X018852Y003721D02*
X018908Y003721D01*
X018910Y003779D02*
X018966Y003779D01*
X019074Y003675D02*
X019102Y003647D01*
X018810Y003355D01*
X018782Y003383D01*
X019074Y003675D01*
X018868Y003413D02*
X018812Y003413D01*
X018870Y003471D02*
X018926Y003471D01*
X018928Y003529D02*
X018984Y003529D01*
X018986Y003587D02*
X019042Y003587D01*
X019044Y003645D02*
X019100Y003645D01*
X019215Y003533D02*
X019243Y003505D01*
X018951Y003213D01*
X018923Y003241D01*
X019215Y003533D01*
X019009Y003271D02*
X018953Y003271D01*
X019011Y003329D02*
X019067Y003329D01*
X019069Y003387D02*
X019125Y003387D01*
X019127Y003445D02*
X019183Y003445D01*
X019185Y003503D02*
X019241Y003503D01*
X019357Y003392D02*
X019385Y003364D01*
X019093Y003072D01*
X019065Y003100D01*
X019357Y003392D01*
X019151Y003130D02*
X019095Y003130D01*
X019153Y003188D02*
X019209Y003188D01*
X019211Y003246D02*
X019267Y003246D01*
X019269Y003304D02*
X019325Y003304D01*
X019327Y003362D02*
X019383Y003362D01*
X020265Y003364D02*
X020293Y003392D01*
X020585Y003100D01*
X020557Y003072D01*
X020265Y003364D01*
X020499Y003130D02*
X020555Y003130D01*
X020497Y003188D02*
X020441Y003188D01*
X020439Y003246D02*
X020383Y003246D01*
X020381Y003304D02*
X020325Y003304D01*
X020323Y003362D02*
X020267Y003362D01*
X020407Y003505D02*
X020435Y003533D01*
X020727Y003241D01*
X020699Y003213D01*
X020407Y003505D01*
X020641Y003271D02*
X020697Y003271D01*
X020639Y003329D02*
X020583Y003329D01*
X020581Y003387D02*
X020525Y003387D01*
X020523Y003445D02*
X020467Y003445D01*
X020465Y003503D02*
X020409Y003503D01*
X020548Y003647D02*
X020576Y003675D01*
X020868Y003383D01*
X020840Y003355D01*
X020548Y003647D01*
X020782Y003413D02*
X020838Y003413D01*
X020780Y003471D02*
X020724Y003471D01*
X020722Y003529D02*
X020666Y003529D01*
X020664Y003587D02*
X020608Y003587D01*
X020606Y003645D02*
X020550Y003645D01*
X020682Y003781D02*
X020710Y003809D01*
X021002Y003517D01*
X020974Y003489D01*
X020682Y003781D01*
X020916Y003547D02*
X020972Y003547D01*
X020914Y003605D02*
X020858Y003605D01*
X020856Y003663D02*
X020800Y003663D01*
X020798Y003721D02*
X020742Y003721D01*
X020740Y003779D02*
X020684Y003779D01*
X020824Y003922D02*
X020852Y003950D01*
X021144Y003658D01*
X021116Y003630D01*
X020824Y003922D01*
X021058Y003688D02*
X021114Y003688D01*
X021056Y003746D02*
X021000Y003746D01*
X020998Y003804D02*
X020942Y003804D01*
X020940Y003862D02*
X020884Y003862D01*
X020882Y003920D02*
X020826Y003920D01*
X020965Y004064D02*
X020993Y004092D01*
X021285Y003800D01*
X021257Y003772D01*
X020965Y004064D01*
X021199Y003830D02*
X021255Y003830D01*
X021197Y003888D02*
X021141Y003888D01*
X021139Y003946D02*
X021083Y003946D01*
X021081Y004004D02*
X021025Y004004D01*
X021023Y004062D02*
X020967Y004062D01*
X021100Y004198D02*
X021128Y004226D01*
X021420Y003934D01*
X021392Y003906D01*
X021100Y004198D01*
X021334Y003964D02*
X021390Y003964D01*
X021332Y004022D02*
X021276Y004022D01*
X021274Y004080D02*
X021218Y004080D01*
X021216Y004138D02*
X021160Y004138D01*
X021158Y004196D02*
X021102Y004196D01*
X021241Y004340D02*
X021269Y004368D01*
X021561Y004076D01*
X021533Y004048D01*
X021241Y004340D01*
X021475Y004106D02*
X021531Y004106D01*
X021473Y004164D02*
X021417Y004164D01*
X021415Y004222D02*
X021359Y004222D01*
X021357Y004280D02*
X021301Y004280D01*
X021299Y004338D02*
X021243Y004338D01*
X021382Y004481D02*
X021410Y004509D01*
X021702Y004217D01*
X021674Y004189D01*
X021382Y004481D01*
X021616Y004247D02*
X021672Y004247D01*
X021614Y004305D02*
X021558Y004305D01*
X021556Y004363D02*
X021500Y004363D01*
X021498Y004421D02*
X021442Y004421D01*
X021440Y004479D02*
X021384Y004479D01*
X021524Y004622D02*
X021552Y004650D01*
X021844Y004358D01*
X021816Y004330D01*
X021524Y004622D01*
X021758Y004388D02*
X021814Y004388D01*
X021756Y004446D02*
X021700Y004446D01*
X021698Y004504D02*
X021642Y004504D01*
X021640Y004562D02*
X021584Y004562D01*
X021582Y004620D02*
X021526Y004620D01*
X021658Y004757D02*
X021686Y004785D01*
X021978Y004493D01*
X021950Y004465D01*
X021658Y004757D01*
X021892Y004523D02*
X021948Y004523D01*
X021890Y004581D02*
X021834Y004581D01*
X021832Y004639D02*
X021776Y004639D01*
X021774Y004697D02*
X021718Y004697D01*
X021716Y004755D02*
X021660Y004755D01*
X021800Y004898D02*
X021828Y004926D01*
X022120Y004634D01*
X022092Y004606D01*
X021800Y004898D01*
X022034Y004664D02*
X022090Y004664D01*
X022032Y004722D02*
X021976Y004722D01*
X021974Y004780D02*
X021918Y004780D01*
X021916Y004838D02*
X021860Y004838D01*
X021858Y004896D02*
X021802Y004896D01*
X021941Y005040D02*
X021969Y005068D01*
X022261Y004776D01*
X022233Y004748D01*
X021941Y005040D01*
X022175Y004806D02*
X022231Y004806D01*
X022173Y004864D02*
X022117Y004864D01*
X022115Y004922D02*
X022059Y004922D01*
X022057Y004980D02*
X022001Y004980D01*
X021999Y005038D02*
X021943Y005038D01*
X022075Y005174D02*
X022103Y005202D01*
X022395Y004910D01*
X022367Y004882D01*
X022075Y005174D01*
X022309Y004940D02*
X022365Y004940D01*
X022307Y004998D02*
X022251Y004998D01*
X022249Y005056D02*
X022193Y005056D01*
X022191Y005114D02*
X022135Y005114D01*
X022133Y005172D02*
X022077Y005172D01*
X022217Y005315D02*
X022245Y005343D01*
X022537Y005051D01*
X022509Y005023D01*
X022217Y005315D01*
X022451Y005081D02*
X022507Y005081D01*
X022449Y005139D02*
X022393Y005139D01*
X022391Y005197D02*
X022335Y005197D01*
X022333Y005255D02*
X022277Y005255D01*
X022275Y005313D02*
X022219Y005313D01*
X022358Y005457D02*
X022386Y005485D01*
X022678Y005193D01*
X022650Y005165D01*
X022358Y005457D01*
X022592Y005223D02*
X022648Y005223D01*
X022590Y005281D02*
X022534Y005281D01*
X022532Y005339D02*
X022476Y005339D01*
X022474Y005397D02*
X022418Y005397D01*
X022416Y005455D02*
X022360Y005455D01*
X022678Y006657D02*
X022650Y006685D01*
X022678Y006657D02*
X022386Y006365D01*
X022358Y006393D01*
X022650Y006685D01*
X022444Y006423D02*
X022388Y006423D01*
X022446Y006481D02*
X022502Y006481D01*
X022504Y006539D02*
X022560Y006539D01*
X022562Y006597D02*
X022618Y006597D01*
X022620Y006655D02*
X022676Y006655D01*
X022537Y006799D02*
X022509Y006827D01*
X022537Y006799D02*
X022245Y006507D01*
X022217Y006535D01*
X022509Y006827D01*
X022303Y006565D02*
X022247Y006565D01*
X022305Y006623D02*
X022361Y006623D01*
X022363Y006681D02*
X022419Y006681D01*
X022421Y006739D02*
X022477Y006739D01*
X022479Y006797D02*
X022535Y006797D01*
X022395Y006940D02*
X022367Y006968D01*
X022395Y006940D02*
X022103Y006648D01*
X022075Y006676D01*
X022367Y006968D01*
X022161Y006706D02*
X022105Y006706D01*
X022163Y006764D02*
X022219Y006764D01*
X022221Y006822D02*
X022277Y006822D01*
X022279Y006880D02*
X022335Y006880D01*
X022337Y006938D02*
X022393Y006938D01*
X022261Y007074D02*
X022233Y007102D01*
X022261Y007074D02*
X021969Y006782D01*
X021941Y006810D01*
X022233Y007102D01*
X022027Y006840D02*
X021971Y006840D01*
X022029Y006898D02*
X022085Y006898D01*
X022087Y006956D02*
X022143Y006956D01*
X022145Y007014D02*
X022201Y007014D01*
X022203Y007072D02*
X022259Y007072D01*
X022120Y007216D02*
X022092Y007244D01*
X022120Y007216D02*
X021828Y006924D01*
X021800Y006952D01*
X022092Y007244D01*
X021886Y006982D02*
X021830Y006982D01*
X021888Y007040D02*
X021944Y007040D01*
X021946Y007098D02*
X022002Y007098D01*
X022004Y007156D02*
X022060Y007156D01*
X022062Y007214D02*
X022118Y007214D01*
X021978Y007357D02*
X021950Y007385D01*
X021978Y007357D02*
X021686Y007065D01*
X021658Y007093D01*
X021950Y007385D01*
X021744Y007123D02*
X021688Y007123D01*
X021746Y007181D02*
X021802Y007181D01*
X021804Y007239D02*
X021860Y007239D01*
X021862Y007297D02*
X021918Y007297D01*
X021920Y007355D02*
X021976Y007355D01*
X021844Y007492D02*
X021816Y007520D01*
X021844Y007492D02*
X021552Y007200D01*
X021524Y007228D01*
X021816Y007520D01*
X021610Y007258D02*
X021554Y007258D01*
X021612Y007316D02*
X021668Y007316D01*
X021670Y007374D02*
X021726Y007374D01*
X021728Y007432D02*
X021784Y007432D01*
X021786Y007490D02*
X021842Y007490D01*
X021702Y007633D02*
X021674Y007661D01*
X021702Y007633D02*
X021410Y007341D01*
X021382Y007369D01*
X021674Y007661D01*
X021468Y007399D02*
X021412Y007399D01*
X021470Y007457D02*
X021526Y007457D01*
X021528Y007515D02*
X021584Y007515D01*
X021586Y007573D02*
X021642Y007573D01*
X021644Y007631D02*
X021700Y007631D01*
X021561Y007774D02*
X021533Y007802D01*
X021561Y007774D02*
X021269Y007482D01*
X021241Y007510D01*
X021533Y007802D01*
X021327Y007540D02*
X021271Y007540D01*
X021329Y007598D02*
X021385Y007598D01*
X021387Y007656D02*
X021443Y007656D01*
X021445Y007714D02*
X021501Y007714D01*
X021503Y007772D02*
X021559Y007772D01*
X021420Y007916D02*
X021392Y007944D01*
X021420Y007916D02*
X021128Y007624D01*
X021100Y007652D01*
X021392Y007944D01*
X021186Y007682D02*
X021130Y007682D01*
X021188Y007740D02*
X021244Y007740D01*
X021246Y007798D02*
X021302Y007798D01*
X021304Y007856D02*
X021360Y007856D01*
X021362Y007914D02*
X021418Y007914D01*
X021285Y008050D02*
X021257Y008078D01*
X021285Y008050D02*
X020993Y007758D01*
X020965Y007786D01*
X021257Y008078D01*
X021051Y007816D02*
X020995Y007816D01*
X021053Y007874D02*
X021109Y007874D01*
X021111Y007932D02*
X021167Y007932D01*
X021169Y007990D02*
X021225Y007990D01*
X021227Y008048D02*
X021283Y008048D01*
X021144Y008192D02*
X021116Y008220D01*
X021144Y008192D02*
X020852Y007900D01*
X020824Y007928D01*
X021116Y008220D01*
X020910Y007958D02*
X020854Y007958D01*
X020912Y008016D02*
X020968Y008016D01*
X020970Y008074D02*
X021026Y008074D01*
X021028Y008132D02*
X021084Y008132D01*
X021086Y008190D02*
X021142Y008190D01*
X021002Y008333D02*
X020974Y008361D01*
X021002Y008333D02*
X020710Y008041D01*
X020682Y008069D01*
X020974Y008361D01*
X020768Y008099D02*
X020712Y008099D01*
X020770Y008157D02*
X020826Y008157D01*
X020828Y008215D02*
X020884Y008215D01*
X020886Y008273D02*
X020942Y008273D01*
X020944Y008331D02*
X021000Y008331D01*
X020868Y008467D02*
X020840Y008495D01*
X020868Y008467D02*
X020576Y008175D01*
X020548Y008203D01*
X020840Y008495D01*
X020634Y008233D02*
X020578Y008233D01*
X020636Y008291D02*
X020692Y008291D01*
X020694Y008349D02*
X020750Y008349D01*
X020752Y008407D02*
X020808Y008407D01*
X020810Y008465D02*
X020866Y008465D01*
X020727Y008609D02*
X020699Y008637D01*
X020727Y008609D02*
X020435Y008317D01*
X020407Y008345D01*
X020699Y008637D01*
X020493Y008375D02*
X020437Y008375D01*
X020495Y008433D02*
X020551Y008433D01*
X020553Y008491D02*
X020609Y008491D01*
X020611Y008549D02*
X020667Y008549D01*
X020669Y008607D02*
X020725Y008607D01*
X020585Y008750D02*
X020557Y008778D01*
X020585Y008750D02*
X020293Y008458D01*
X020265Y008486D01*
X020557Y008778D01*
X020351Y008516D02*
X020295Y008516D01*
X020353Y008574D02*
X020409Y008574D01*
X020411Y008632D02*
X020467Y008632D01*
X020469Y008690D02*
X020525Y008690D01*
X020527Y008748D02*
X020583Y008748D01*
X019093Y008778D02*
X019065Y008750D01*
X019093Y008778D02*
X019385Y008486D01*
X019357Y008458D01*
X019065Y008750D01*
X019299Y008516D02*
X019355Y008516D01*
X019297Y008574D02*
X019241Y008574D01*
X019239Y008632D02*
X019183Y008632D01*
X019181Y008690D02*
X019125Y008690D01*
X019123Y008748D02*
X019067Y008748D01*
X018951Y008637D02*
X018923Y008609D01*
X018951Y008637D02*
X019243Y008345D01*
X019215Y008317D01*
X018923Y008609D01*
X019157Y008375D02*
X019213Y008375D01*
X019155Y008433D02*
X019099Y008433D01*
X019097Y008491D02*
X019041Y008491D01*
X019039Y008549D02*
X018983Y008549D01*
X018981Y008607D02*
X018925Y008607D01*
X018810Y008495D02*
X018782Y008467D01*
X018810Y008495D02*
X019102Y008203D01*
X019074Y008175D01*
X018782Y008467D01*
X019016Y008233D02*
X019072Y008233D01*
X019014Y008291D02*
X018958Y008291D01*
X018956Y008349D02*
X018900Y008349D01*
X018898Y008407D02*
X018842Y008407D01*
X018840Y008465D02*
X018784Y008465D01*
X018676Y008361D02*
X018648Y008333D01*
X018676Y008361D02*
X018968Y008069D01*
X018940Y008041D01*
X018648Y008333D01*
X018882Y008099D02*
X018938Y008099D01*
X018880Y008157D02*
X018824Y008157D01*
X018822Y008215D02*
X018766Y008215D01*
X018764Y008273D02*
X018708Y008273D01*
X018706Y008331D02*
X018650Y008331D01*
X018534Y008220D02*
X018506Y008192D01*
X018534Y008220D02*
X018826Y007928D01*
X018798Y007900D01*
X018506Y008192D01*
X018740Y007958D02*
X018796Y007958D01*
X018738Y008016D02*
X018682Y008016D01*
X018680Y008074D02*
X018624Y008074D01*
X018622Y008132D02*
X018566Y008132D01*
X018564Y008190D02*
X018508Y008190D01*
X018393Y008078D02*
X018365Y008050D01*
X018393Y008078D02*
X018685Y007786D01*
X018657Y007758D01*
X018365Y008050D01*
X018599Y007816D02*
X018655Y007816D01*
X018597Y007874D02*
X018541Y007874D01*
X018539Y007932D02*
X018483Y007932D01*
X018481Y007990D02*
X018425Y007990D01*
X018423Y008048D02*
X018367Y008048D01*
X018258Y007944D02*
X018230Y007916D01*
X018258Y007944D02*
X018550Y007652D01*
X018522Y007624D01*
X018230Y007916D01*
X018464Y007682D02*
X018520Y007682D01*
X018462Y007740D02*
X018406Y007740D01*
X018404Y007798D02*
X018348Y007798D01*
X018346Y007856D02*
X018290Y007856D01*
X018288Y007914D02*
X018232Y007914D01*
X018117Y007802D02*
X018089Y007774D01*
X018117Y007802D02*
X018409Y007510D01*
X018381Y007482D01*
X018089Y007774D01*
X018323Y007540D02*
X018379Y007540D01*
X018321Y007598D02*
X018265Y007598D01*
X018263Y007656D02*
X018207Y007656D01*
X018205Y007714D02*
X018149Y007714D01*
X018147Y007772D02*
X018091Y007772D01*
X017976Y007661D02*
X017948Y007633D01*
X017976Y007661D02*
X018268Y007369D01*
X018240Y007341D01*
X017948Y007633D01*
X018182Y007399D02*
X018238Y007399D01*
X018180Y007457D02*
X018124Y007457D01*
X018122Y007515D02*
X018066Y007515D01*
X018064Y007573D02*
X018008Y007573D01*
X018006Y007631D02*
X017950Y007631D01*
X017834Y007520D02*
X017806Y007492D01*
X017834Y007520D02*
X018126Y007228D01*
X018098Y007200D01*
X017806Y007492D01*
X018040Y007258D02*
X018096Y007258D01*
X018038Y007316D02*
X017982Y007316D01*
X017980Y007374D02*
X017924Y007374D01*
X017922Y007432D02*
X017866Y007432D01*
X017864Y007490D02*
X017808Y007490D01*
X017700Y007385D02*
X017672Y007357D01*
X017700Y007385D02*
X017992Y007093D01*
X017964Y007065D01*
X017672Y007357D01*
X017906Y007123D02*
X017962Y007123D01*
X017904Y007181D02*
X017848Y007181D01*
X017846Y007239D02*
X017790Y007239D01*
X017788Y007297D02*
X017732Y007297D01*
X017730Y007355D02*
X017674Y007355D01*
X017558Y007244D02*
X017530Y007216D01*
X017558Y007244D02*
X017850Y006952D01*
X017822Y006924D01*
X017530Y007216D01*
X017764Y006982D02*
X017820Y006982D01*
X017762Y007040D02*
X017706Y007040D01*
X017704Y007098D02*
X017648Y007098D01*
X017646Y007156D02*
X017590Y007156D01*
X017588Y007214D02*
X017532Y007214D01*
X017417Y007102D02*
X017389Y007074D01*
X017417Y007102D02*
X017709Y006810D01*
X017681Y006782D01*
X017389Y007074D01*
X017623Y006840D02*
X017679Y006840D01*
X017621Y006898D02*
X017565Y006898D01*
X017563Y006956D02*
X017507Y006956D01*
X017505Y007014D02*
X017449Y007014D01*
X017447Y007072D02*
X017391Y007072D01*
X017283Y006968D02*
X017255Y006940D01*
X017283Y006968D02*
X017575Y006676D01*
X017547Y006648D01*
X017255Y006940D01*
X017489Y006706D02*
X017545Y006706D01*
X017487Y006764D02*
X017431Y006764D01*
X017429Y006822D02*
X017373Y006822D01*
X017371Y006880D02*
X017315Y006880D01*
X017313Y006938D02*
X017257Y006938D01*
X017141Y006827D02*
X017113Y006799D01*
X017141Y006827D02*
X017433Y006535D01*
X017405Y006507D01*
X017113Y006799D01*
X017347Y006565D02*
X017403Y006565D01*
X017345Y006623D02*
X017289Y006623D01*
X017287Y006681D02*
X017231Y006681D01*
X017229Y006739D02*
X017173Y006739D01*
X017171Y006797D02*
X017115Y006797D01*
X017000Y006685D02*
X016972Y006657D01*
X017000Y006685D02*
X017292Y006393D01*
X017264Y006365D01*
X016972Y006657D01*
X017206Y006423D02*
X017262Y006423D01*
X017204Y006481D02*
X017148Y006481D01*
X017146Y006539D02*
X017090Y006539D01*
X017088Y006597D02*
X017032Y006597D01*
X017030Y006655D02*
X016974Y006655D01*
D11*
X011594Y006549D02*
X011594Y006455D01*
X011144Y006455D01*
X011144Y006549D01*
X011594Y006549D01*
X011594Y006517D02*
X011144Y006517D01*
X011594Y006234D02*
X011594Y006140D01*
X011144Y006140D01*
X011144Y006234D01*
X011594Y006234D01*
X011594Y006202D02*
X011144Y006202D01*
X011594Y005919D02*
X011594Y005825D01*
X011144Y005825D01*
X011144Y005919D01*
X011594Y005919D01*
X011594Y005887D02*
X011144Y005887D01*
X011594Y005604D02*
X011594Y005510D01*
X011144Y005510D01*
X011144Y005604D01*
X011594Y005604D01*
X011594Y005572D02*
X011144Y005572D01*
X011594Y005290D02*
X011594Y005196D01*
X011144Y005196D01*
X011144Y005290D01*
X011594Y005290D01*
X011594Y005258D02*
X011144Y005258D01*
X011594Y004975D02*
X011594Y004881D01*
X011144Y004881D01*
X011144Y004975D01*
X011594Y004975D01*
X011594Y004943D02*
X011144Y004943D01*
X011594Y004660D02*
X011594Y004566D01*
X011144Y004566D01*
X011144Y004660D01*
X011594Y004660D01*
X011594Y004628D02*
X011144Y004628D01*
X011594Y004345D02*
X011594Y004251D01*
X011144Y004251D01*
X011144Y004345D01*
X011594Y004345D01*
X011594Y004313D02*
X011144Y004313D01*
X010749Y003856D02*
X010655Y003856D01*
X010749Y003856D02*
X010749Y003406D01*
X010655Y003406D01*
X010655Y003856D01*
X010655Y003468D02*
X010749Y003468D01*
X010749Y003530D02*
X010655Y003530D01*
X010655Y003592D02*
X010749Y003592D01*
X010749Y003654D02*
X010655Y003654D01*
X010655Y003716D02*
X010749Y003716D01*
X010749Y003778D02*
X010655Y003778D01*
X010655Y003840D02*
X010749Y003840D01*
X010434Y003856D02*
X010340Y003856D01*
X010434Y003856D02*
X010434Y003406D01*
X010340Y003406D01*
X010340Y003856D01*
X010340Y003468D02*
X010434Y003468D01*
X010434Y003530D02*
X010340Y003530D01*
X010340Y003592D02*
X010434Y003592D01*
X010434Y003654D02*
X010340Y003654D01*
X010340Y003716D02*
X010434Y003716D01*
X010434Y003778D02*
X010340Y003778D01*
X010340Y003840D02*
X010434Y003840D01*
X010119Y003856D02*
X010025Y003856D01*
X010119Y003856D02*
X010119Y003406D01*
X010025Y003406D01*
X010025Y003856D01*
X010025Y003468D02*
X010119Y003468D01*
X010119Y003530D02*
X010025Y003530D01*
X010025Y003592D02*
X010119Y003592D01*
X010119Y003654D02*
X010025Y003654D01*
X010025Y003716D02*
X010119Y003716D01*
X010119Y003778D02*
X010025Y003778D01*
X010025Y003840D02*
X010119Y003840D01*
X009804Y003856D02*
X009710Y003856D01*
X009804Y003856D02*
X009804Y003406D01*
X009710Y003406D01*
X009710Y003856D01*
X009710Y003468D02*
X009804Y003468D01*
X009804Y003530D02*
X009710Y003530D01*
X009710Y003592D02*
X009804Y003592D01*
X009804Y003654D02*
X009710Y003654D01*
X009710Y003716D02*
X009804Y003716D01*
X009804Y003778D02*
X009710Y003778D01*
X009710Y003840D02*
X009804Y003840D01*
X009490Y003856D02*
X009396Y003856D01*
X009490Y003856D02*
X009490Y003406D01*
X009396Y003406D01*
X009396Y003856D01*
X009396Y003468D02*
X009490Y003468D01*
X009490Y003530D02*
X009396Y003530D01*
X009396Y003592D02*
X009490Y003592D01*
X009490Y003654D02*
X009396Y003654D01*
X009396Y003716D02*
X009490Y003716D01*
X009490Y003778D02*
X009396Y003778D01*
X009396Y003840D02*
X009490Y003840D01*
X009175Y003856D02*
X009081Y003856D01*
X009175Y003856D02*
X009175Y003406D01*
X009081Y003406D01*
X009081Y003856D01*
X009081Y003468D02*
X009175Y003468D01*
X009175Y003530D02*
X009081Y003530D01*
X009081Y003592D02*
X009175Y003592D01*
X009175Y003654D02*
X009081Y003654D01*
X009081Y003716D02*
X009175Y003716D01*
X009175Y003778D02*
X009081Y003778D01*
X009081Y003840D02*
X009175Y003840D01*
X008860Y003856D02*
X008766Y003856D01*
X008860Y003856D02*
X008860Y003406D01*
X008766Y003406D01*
X008766Y003856D01*
X008766Y003468D02*
X008860Y003468D01*
X008860Y003530D02*
X008766Y003530D01*
X008766Y003592D02*
X008860Y003592D01*
X008860Y003654D02*
X008766Y003654D01*
X008766Y003716D02*
X008860Y003716D01*
X008860Y003778D02*
X008766Y003778D01*
X008766Y003840D02*
X008860Y003840D01*
X008545Y003856D02*
X008451Y003856D01*
X008545Y003856D02*
X008545Y003406D01*
X008451Y003406D01*
X008451Y003856D01*
X008451Y003468D02*
X008545Y003468D01*
X008545Y003530D02*
X008451Y003530D01*
X008451Y003592D02*
X008545Y003592D01*
X008545Y003654D02*
X008451Y003654D01*
X008451Y003716D02*
X008545Y003716D01*
X008545Y003778D02*
X008451Y003778D01*
X008451Y003840D02*
X008545Y003840D01*
X008056Y004251D02*
X008056Y004345D01*
X008056Y004251D02*
X007606Y004251D01*
X007606Y004345D01*
X008056Y004345D01*
X008056Y004313D02*
X007606Y004313D01*
X008056Y004566D02*
X008056Y004660D01*
X008056Y004566D02*
X007606Y004566D01*
X007606Y004660D01*
X008056Y004660D01*
X008056Y004628D02*
X007606Y004628D01*
X008056Y004881D02*
X008056Y004975D01*
X008056Y004881D02*
X007606Y004881D01*
X007606Y004975D01*
X008056Y004975D01*
X008056Y004943D02*
X007606Y004943D01*
X008056Y005196D02*
X008056Y005290D01*
X008056Y005196D02*
X007606Y005196D01*
X007606Y005290D01*
X008056Y005290D01*
X008056Y005258D02*
X007606Y005258D01*
X008056Y005510D02*
X008056Y005604D01*
X008056Y005510D02*
X007606Y005510D01*
X007606Y005604D01*
X008056Y005604D01*
X008056Y005572D02*
X007606Y005572D01*
X008056Y005825D02*
X008056Y005919D01*
X008056Y005825D02*
X007606Y005825D01*
X007606Y005919D01*
X008056Y005919D01*
X008056Y005887D02*
X007606Y005887D01*
X008056Y006140D02*
X008056Y006234D01*
X008056Y006140D02*
X007606Y006140D01*
X007606Y006234D01*
X008056Y006234D01*
X008056Y006202D02*
X007606Y006202D01*
X008056Y006455D02*
X008056Y006549D01*
X008056Y006455D02*
X007606Y006455D01*
X007606Y006549D01*
X008056Y006549D01*
X008056Y006517D02*
X007606Y006517D01*
X008451Y007394D02*
X008545Y007394D01*
X008545Y006944D01*
X008451Y006944D01*
X008451Y007394D01*
X008451Y007006D02*
X008545Y007006D01*
X008545Y007068D02*
X008451Y007068D01*
X008451Y007130D02*
X008545Y007130D01*
X008545Y007192D02*
X008451Y007192D01*
X008451Y007254D02*
X008545Y007254D01*
X008545Y007316D02*
X008451Y007316D01*
X008451Y007378D02*
X008545Y007378D01*
X008766Y007394D02*
X008860Y007394D01*
X008860Y006944D01*
X008766Y006944D01*
X008766Y007394D01*
X008766Y007006D02*
X008860Y007006D01*
X008860Y007068D02*
X008766Y007068D01*
X008766Y007130D02*
X008860Y007130D01*
X008860Y007192D02*
X008766Y007192D01*
X008766Y007254D02*
X008860Y007254D01*
X008860Y007316D02*
X008766Y007316D01*
X008766Y007378D02*
X008860Y007378D01*
X009081Y007394D02*
X009175Y007394D01*
X009175Y006944D01*
X009081Y006944D01*
X009081Y007394D01*
X009081Y007006D02*
X009175Y007006D01*
X009175Y007068D02*
X009081Y007068D01*
X009081Y007130D02*
X009175Y007130D01*
X009175Y007192D02*
X009081Y007192D01*
X009081Y007254D02*
X009175Y007254D01*
X009175Y007316D02*
X009081Y007316D01*
X009081Y007378D02*
X009175Y007378D01*
X009396Y007394D02*
X009490Y007394D01*
X009490Y006944D01*
X009396Y006944D01*
X009396Y007394D01*
X009396Y007006D02*
X009490Y007006D01*
X009490Y007068D02*
X009396Y007068D01*
X009396Y007130D02*
X009490Y007130D01*
X009490Y007192D02*
X009396Y007192D01*
X009396Y007254D02*
X009490Y007254D01*
X009490Y007316D02*
X009396Y007316D01*
X009396Y007378D02*
X009490Y007378D01*
X009710Y007394D02*
X009804Y007394D01*
X009804Y006944D01*
X009710Y006944D01*
X009710Y007394D01*
X009710Y007006D02*
X009804Y007006D01*
X009804Y007068D02*
X009710Y007068D01*
X009710Y007130D02*
X009804Y007130D01*
X009804Y007192D02*
X009710Y007192D01*
X009710Y007254D02*
X009804Y007254D01*
X009804Y007316D02*
X009710Y007316D01*
X009710Y007378D02*
X009804Y007378D01*
X010025Y007394D02*
X010119Y007394D01*
X010119Y006944D01*
X010025Y006944D01*
X010025Y007394D01*
X010025Y007006D02*
X010119Y007006D01*
X010119Y007068D02*
X010025Y007068D01*
X010025Y007130D02*
X010119Y007130D01*
X010119Y007192D02*
X010025Y007192D01*
X010025Y007254D02*
X010119Y007254D01*
X010119Y007316D02*
X010025Y007316D01*
X010025Y007378D02*
X010119Y007378D01*
X010340Y007394D02*
X010434Y007394D01*
X010434Y006944D01*
X010340Y006944D01*
X010340Y007394D01*
X010340Y007006D02*
X010434Y007006D01*
X010434Y007068D02*
X010340Y007068D01*
X010340Y007130D02*
X010434Y007130D01*
X010434Y007192D02*
X010340Y007192D01*
X010340Y007254D02*
X010434Y007254D01*
X010434Y007316D02*
X010340Y007316D01*
X010340Y007378D02*
X010434Y007378D01*
X010655Y007394D02*
X010749Y007394D01*
X010749Y006944D01*
X010655Y006944D01*
X010655Y007394D01*
X010655Y007006D02*
X010749Y007006D01*
X010749Y007068D02*
X010655Y007068D01*
X010655Y007130D02*
X010749Y007130D01*
X010749Y007192D02*
X010655Y007192D01*
X010655Y007254D02*
X010749Y007254D01*
X010749Y007316D02*
X010655Y007316D01*
X010655Y007378D02*
X010749Y007378D01*
D12*
X013625Y003425D03*
X015525Y003425D03*
D13*
X016075Y005405D03*
X016075Y005945D03*
D14*
X016156Y006494D02*
X016156Y006756D01*
X016156Y006494D02*
X015894Y006494D01*
X015894Y006756D01*
X016156Y006756D01*
X016156Y006581D02*
X015894Y006581D01*
X015894Y006668D02*
X016156Y006668D01*
X016156Y006755D02*
X015894Y006755D01*
X015194Y006756D02*
X015194Y006494D01*
X015194Y006756D02*
X015456Y006756D01*
X015456Y006494D01*
X015194Y006494D01*
X015194Y006581D02*
X015456Y006581D01*
X015456Y006668D02*
X015194Y006668D01*
X015194Y006755D02*
X015456Y006755D01*
X014756Y006756D02*
X014756Y006494D01*
X014494Y006494D01*
X014494Y006756D01*
X014756Y006756D01*
X014756Y006581D02*
X014494Y006581D01*
X014494Y006668D02*
X014756Y006668D01*
X014756Y006755D02*
X014494Y006755D01*
X014756Y007094D02*
X014756Y007356D01*
X014756Y007094D02*
X014494Y007094D01*
X014494Y007356D01*
X014756Y007356D01*
X014756Y007181D02*
X014494Y007181D01*
X014494Y007268D02*
X014756Y007268D01*
X014756Y007355D02*
X014494Y007355D01*
X015194Y007356D02*
X015194Y007094D01*
X015194Y007356D02*
X015456Y007356D01*
X015456Y007094D01*
X015194Y007094D01*
X015194Y007181D02*
X015456Y007181D01*
X015456Y007268D02*
X015194Y007268D01*
X015194Y007355D02*
X015456Y007355D01*
X016156Y007356D02*
X016156Y007094D01*
X015894Y007094D01*
X015894Y007356D01*
X016156Y007356D01*
X016156Y007181D02*
X015894Y007181D01*
X015894Y007268D02*
X016156Y007268D01*
X016156Y007355D02*
X015894Y007355D01*
X012894Y007356D02*
X012894Y007094D01*
X012894Y007356D02*
X013156Y007356D01*
X013156Y007094D01*
X012894Y007094D01*
X012894Y007181D02*
X013156Y007181D01*
X013156Y007268D02*
X012894Y007268D01*
X012894Y007355D02*
X013156Y007355D01*
X012456Y007356D02*
X012456Y007094D01*
X012194Y007094D01*
X012194Y007356D01*
X012456Y007356D01*
X012456Y007181D02*
X012194Y007181D01*
X012194Y007268D02*
X012456Y007268D01*
X012456Y007355D02*
X012194Y007355D01*
X012456Y006756D02*
X012456Y006494D01*
X012194Y006494D01*
X012194Y006756D01*
X012456Y006756D01*
X012456Y006581D02*
X012194Y006581D01*
X012194Y006668D02*
X012456Y006668D01*
X012456Y006755D02*
X012194Y006755D01*
X012894Y006756D02*
X012894Y006494D01*
X012894Y006756D02*
X013156Y006756D01*
X013156Y006494D01*
X012894Y006494D01*
X012894Y006581D02*
X013156Y006581D01*
X013156Y006668D02*
X012894Y006668D01*
X012894Y006755D02*
X013156Y006755D01*
X013344Y004644D02*
X013606Y004644D01*
X013344Y004644D02*
X013344Y004906D01*
X013606Y004906D01*
X013606Y004644D01*
X013606Y004731D02*
X013344Y004731D01*
X013344Y004818D02*
X013606Y004818D01*
X013606Y004905D02*
X013344Y004905D01*
X013944Y004644D02*
X014206Y004644D01*
X013944Y004644D02*
X013944Y004906D01*
X014206Y004906D01*
X014206Y004644D01*
X014206Y004731D02*
X013944Y004731D01*
X013944Y004818D02*
X014206Y004818D01*
X014206Y004905D02*
X013944Y004905D01*
X014594Y004906D02*
X014856Y004906D01*
X014856Y004644D01*
X014594Y004644D01*
X014594Y004906D01*
X014594Y004731D02*
X014856Y004731D01*
X014856Y004818D02*
X014594Y004818D01*
X014594Y004905D02*
X014856Y004905D01*
X015194Y004906D02*
X015456Y004906D01*
X015456Y004644D01*
X015194Y004644D01*
X015194Y004906D01*
X015194Y004731D02*
X015456Y004731D01*
X015456Y004818D02*
X015194Y004818D01*
X015194Y004905D02*
X015456Y004905D01*
X017144Y002844D02*
X017406Y002844D01*
X017144Y002844D02*
X017144Y003106D01*
X017406Y003106D01*
X017406Y002844D01*
X017406Y002931D02*
X017144Y002931D01*
X017144Y003018D02*
X017406Y003018D01*
X017406Y003105D02*
X017144Y003105D01*
X017744Y002844D02*
X018006Y002844D01*
X017744Y002844D02*
X017744Y003106D01*
X018006Y003106D01*
X018006Y002844D01*
X018006Y002931D02*
X017744Y002931D01*
X017744Y003018D02*
X018006Y003018D01*
X018006Y003105D02*
X017744Y003105D01*
X022894Y003544D02*
X023156Y003544D01*
X022894Y003544D02*
X022894Y003806D01*
X023156Y003806D01*
X023156Y003544D01*
X023156Y003631D02*
X022894Y003631D01*
X022894Y003718D02*
X023156Y003718D01*
X023156Y003805D02*
X022894Y003805D01*
X023494Y003544D02*
X023756Y003544D01*
X023494Y003544D02*
X023494Y003806D01*
X023756Y003806D01*
X023756Y003544D01*
X023756Y003631D02*
X023494Y003631D01*
X023494Y003718D02*
X023756Y003718D01*
X023756Y003805D02*
X023494Y003805D01*
X023544Y005544D02*
X023806Y005544D01*
X023544Y005544D02*
X023544Y005806D01*
X023806Y005806D01*
X023806Y005544D01*
X023806Y005631D02*
X023544Y005631D01*
X023544Y005718D02*
X023806Y005718D01*
X023806Y005805D02*
X023544Y005805D01*
X023206Y005544D02*
X022944Y005544D01*
X022944Y005806D01*
X023206Y005806D01*
X023206Y005544D01*
X023206Y005631D02*
X022944Y005631D01*
X022944Y005718D02*
X023206Y005718D01*
X023206Y005805D02*
X022944Y005805D01*
X024594Y008469D02*
X024856Y008469D01*
X024594Y008469D02*
X024594Y008881D01*
X024856Y008881D01*
X024856Y008469D01*
X024856Y008556D02*
X024594Y008556D01*
X024594Y008643D02*
X024856Y008643D01*
X024856Y008730D02*
X024594Y008730D01*
X024594Y008817D02*
X024856Y008817D01*
X025294Y008469D02*
X025556Y008469D01*
X025294Y008469D02*
X025294Y008881D01*
X025556Y008881D01*
X025556Y008469D01*
X025556Y008556D02*
X025294Y008556D01*
X025294Y008643D02*
X025556Y008643D01*
X025556Y008730D02*
X025294Y008730D01*
X025294Y008817D02*
X025556Y008817D01*
X026094Y008806D02*
X026356Y008806D01*
X026356Y008544D01*
X026094Y008544D01*
X026094Y008806D01*
X026094Y008631D02*
X026356Y008631D01*
X026356Y008718D02*
X026094Y008718D01*
X026094Y008805D02*
X026356Y008805D01*
X026694Y008806D02*
X026956Y008806D01*
X026956Y008544D01*
X026694Y008544D01*
X026694Y008806D01*
X026694Y008631D02*
X026956Y008631D01*
X026956Y008718D02*
X026694Y008718D01*
X026694Y008805D02*
X026956Y008805D01*
X010206Y002794D02*
X009944Y002794D01*
X009944Y003056D01*
X010206Y003056D01*
X010206Y002794D01*
X010206Y002881D02*
X009944Y002881D01*
X009944Y002968D02*
X010206Y002968D01*
X010206Y003055D02*
X009944Y003055D01*
X009606Y002794D02*
X009344Y002794D01*
X009344Y003056D01*
X009606Y003056D01*
X009606Y002794D01*
X009606Y002881D02*
X009344Y002881D01*
X009344Y002968D02*
X009606Y002968D01*
X009606Y003055D02*
X009344Y003055D01*
X007056Y007044D02*
X006794Y007044D01*
X006794Y007306D01*
X007056Y007306D01*
X007056Y007044D01*
X007056Y007131D02*
X006794Y007131D01*
X006794Y007218D02*
X007056Y007218D01*
X007056Y007305D02*
X006794Y007305D01*
X006456Y007044D02*
X006194Y007044D01*
X006194Y007306D01*
X006456Y007306D01*
X006456Y007044D01*
X006456Y007131D02*
X006194Y007131D01*
X006194Y007218D02*
X006456Y007218D01*
X006456Y007305D02*
X006194Y007305D01*
X006194Y007794D02*
X006456Y007794D01*
X006194Y007794D02*
X006194Y008056D01*
X006456Y008056D01*
X006456Y007794D01*
X006456Y007881D02*
X006194Y007881D01*
X006194Y007968D02*
X006456Y007968D01*
X006456Y008055D02*
X006194Y008055D01*
X006794Y007794D02*
X007056Y007794D01*
X006794Y007794D02*
X006794Y008056D01*
X007056Y008056D01*
X007056Y007794D01*
X007056Y007881D02*
X006794Y007881D01*
X006794Y007968D02*
X007056Y007968D01*
X007056Y008055D02*
X006794Y008055D01*
X008056Y008106D02*
X008056Y007844D01*
X007794Y007844D01*
X007794Y008106D01*
X008056Y008106D01*
X008056Y007931D02*
X007794Y007931D01*
X007794Y008018D02*
X008056Y008018D01*
X008056Y008105D02*
X007794Y008105D01*
X008056Y007506D02*
X008056Y007244D01*
X007794Y007244D01*
X007794Y007506D01*
X008056Y007506D01*
X008056Y007331D02*
X007794Y007331D01*
X007794Y007418D02*
X008056Y007418D01*
X008056Y007505D02*
X007794Y007505D01*
D15*
X006050Y006300D02*
X006050Y006000D01*
X006050Y006300D02*
X006500Y006300D01*
X006500Y006000D01*
X006050Y006000D01*
X006050Y006099D02*
X006500Y006099D01*
X006500Y006198D02*
X006050Y006198D01*
X006050Y006297D02*
X006500Y006297D01*
X006050Y005500D02*
X006050Y005200D01*
X006050Y005500D02*
X006500Y005500D01*
X006500Y005200D01*
X006050Y005200D01*
X006050Y005299D02*
X006500Y005299D01*
X006500Y005398D02*
X006050Y005398D01*
X006050Y005497D02*
X006500Y005497D01*
X004825Y005075D02*
X004808Y005058D01*
X004808Y003903D01*
X006075Y004100D02*
X006375Y004100D01*
X006375Y003650D01*
X006075Y003650D01*
X006075Y004100D01*
X006075Y003749D02*
X006375Y003749D01*
X006375Y003848D02*
X006075Y003848D01*
X006075Y003947D02*
X006375Y003947D01*
X006375Y004046D02*
X006075Y004046D01*
X006875Y004100D02*
X007175Y004100D01*
X007175Y003650D01*
X006875Y003650D01*
X006875Y004100D01*
X006875Y003749D02*
X007175Y003749D01*
X007175Y003848D02*
X006875Y003848D01*
X006875Y003947D02*
X007175Y003947D01*
X007175Y004046D02*
X006875Y004046D01*
X013600Y006625D02*
X013600Y006925D01*
X014050Y006925D01*
X014050Y006625D01*
X013600Y006625D01*
X013600Y006724D02*
X014050Y006724D01*
X014050Y006823D02*
X013600Y006823D01*
X013600Y006922D02*
X014050Y006922D01*
X013600Y007425D02*
X013600Y007725D01*
X014050Y007725D01*
X014050Y007425D01*
X013600Y007425D01*
X013600Y007524D02*
X014050Y007524D01*
X014050Y007623D02*
X013600Y007623D01*
X013600Y007722D02*
X014050Y007722D01*
X002400Y008925D02*
X002400Y009225D01*
X002400Y008925D02*
X001950Y008925D01*
X001950Y009225D01*
X002400Y009225D01*
X002400Y009024D02*
X001950Y009024D01*
X001950Y009123D02*
X002400Y009123D01*
X002400Y009222D02*
X001950Y009222D01*
X002400Y009625D02*
X002400Y009925D01*
X002400Y009625D02*
X001950Y009625D01*
X001950Y009925D01*
X002400Y009925D01*
X002400Y009724D02*
X001950Y009724D01*
X001950Y009823D02*
X002400Y009823D01*
X002400Y009922D02*
X001950Y009922D01*
D16*
X004766Y006305D03*
X004766Y005990D03*
X004766Y005675D03*
X004766Y005360D03*
X004766Y005045D03*
D17*
X002721Y003903D03*
X002721Y007447D03*
D18*
X004808Y007447D03*
X004808Y003903D03*
D19*
X003656Y004809D03*
X003656Y006541D03*
D20*
X002075Y001425D03*
X003075Y001425D03*
X004075Y001425D03*
X005075Y001425D03*
X006075Y001425D03*
X007075Y001425D03*
X008075Y001425D03*
X009075Y001425D03*
X010075Y001425D03*
X011075Y001425D03*
X012075Y001425D03*
X013075Y001425D03*
X014075Y001425D03*
X015075Y001425D03*
X016075Y001425D03*
X017075Y001425D03*
X018075Y001425D03*
X019075Y001425D03*
X020075Y001425D03*
X021075Y001425D03*
X022075Y001425D03*
X023075Y001425D03*
X024075Y001425D03*
X025075Y001425D03*
X026075Y001425D03*
X027075Y001425D03*
X028075Y001425D03*
X029075Y001425D03*
X029075Y003925D03*
X029075Y004925D03*
X029075Y005925D03*
X029075Y006925D03*
X029075Y007925D03*
X029075Y010425D03*
X028075Y010425D03*
X027075Y010425D03*
X026075Y010425D03*
X025075Y010425D03*
X024075Y010425D03*
X023075Y010425D03*
X022075Y010425D03*
X021075Y010425D03*
X020075Y010425D03*
X019075Y010425D03*
X018075Y010425D03*
X017075Y010425D03*
X016075Y010425D03*
X015075Y010425D03*
X014075Y010425D03*
X013075Y010425D03*
X012075Y010425D03*
X011075Y010425D03*
X010075Y010425D03*
X009075Y010425D03*
X008075Y010425D03*
X007075Y010425D03*
X006075Y010425D03*
X005075Y010425D03*
X004075Y010425D03*
X003075Y010425D03*
D21*
X024675Y003575D03*
X025475Y003225D03*
X025475Y003925D03*
D22*
X025965Y004645D03*
X024185Y004645D03*
X026689Y005925D03*
X025965Y007205D03*
X024185Y007205D03*
D23*
X004375Y008425D03*
X003775Y008425D03*
D24*
X006025Y007625D02*
X006325Y007925D01*
X006925Y007925D02*
X007275Y007925D01*
X007925Y007975D02*
X007975Y007975D01*
X008725Y007725D02*
X007375Y009075D01*
X007175Y009075D01*
X006425Y009075D01*
X005075Y010425D01*
X004125Y010375D02*
X004075Y010425D01*
X002325Y009925D02*
X002175Y009775D01*
X007075Y010425D02*
X007825Y009675D01*
X007825Y008825D01*
X008775Y007875D01*
X014175Y007875D01*
X014325Y007725D01*
X014325Y007475D01*
X014575Y007225D01*
X014625Y007225D01*
X015325Y007225D01*
X015575Y007475D01*
X016748Y007475D01*
X017415Y006808D01*
X017273Y006667D02*
X017055Y006885D01*
X017015Y006925D01*
X016925Y006925D01*
X016835Y006835D01*
X016822Y006835D01*
X017132Y006525D01*
X017525Y006175D02*
X017575Y006225D01*
X017875Y006225D01*
X018075Y006025D01*
X018075Y005775D01*
X018275Y005575D01*
X018975Y005575D01*
X019525Y005025D01*
X020175Y005025D01*
X020825Y004375D01*
X020825Y004232D01*
X021125Y003932D01*
X021204Y004096D02*
X021425Y003875D01*
X021425Y003625D01*
X021825Y003675D02*
X022975Y003675D01*
X023025Y003675D01*
X023275Y003925D01*
X023975Y003925D01*
X024175Y003725D01*
X024325Y003575D01*
X024675Y003575D01*
X025475Y003225D02*
X025475Y002875D01*
X026825Y002525D02*
X026975Y002675D01*
X027125Y002825D01*
X028575Y002825D01*
X026825Y002525D02*
X022225Y002525D01*
X022075Y002675D01*
X021725Y003025D01*
X020915Y003025D01*
X020567Y003373D01*
X020511Y003439D01*
X020275Y003675D01*
X020298Y003925D02*
X020708Y003515D01*
X020842Y003649D02*
X020525Y003966D01*
X020525Y004325D01*
X020175Y004675D01*
X019375Y004675D01*
X018675Y005375D01*
X018025Y005375D01*
X017375Y006025D01*
X016875Y006025D01*
X016625Y006025D02*
X016025Y006625D01*
X015725Y006925D02*
X016025Y007225D01*
X016432Y007225D01*
X016822Y006835D01*
X017549Y006942D02*
X016716Y007775D01*
X015725Y007775D01*
X014975Y007775D01*
X014275Y007175D02*
X014025Y007425D01*
X013975Y007425D01*
X013825Y007575D01*
X013375Y007575D01*
X013025Y007225D01*
X012625Y006925D02*
X012325Y007225D01*
X012325Y007275D01*
X011875Y007725D01*
X008725Y007725D01*
X009075Y008075D02*
X017251Y008075D01*
X017966Y007360D01*
X017832Y007225D02*
X018382Y006675D01*
X018775Y006675D01*
X019025Y006425D01*
X020725Y006425D01*
X020925Y006625D01*
X021025Y006825D02*
X021325Y006525D01*
X021925Y006525D01*
X021952Y006525D01*
X022235Y006808D01*
X022101Y006942D02*
X022037Y006887D01*
X021875Y006725D01*
X021825Y006725D01*
X021475Y006725D01*
X021225Y006975D01*
X020775Y006975D01*
X020575Y006775D01*
X020075Y006775D01*
X019825Y006925D02*
X019525Y006925D01*
X019825Y006925D02*
X020075Y007175D01*
X020934Y007175D01*
X021401Y007642D01*
X021542Y007501D02*
X023566Y009525D01*
X025175Y009525D01*
X026075Y010425D01*
X025075Y010425D02*
X024575Y009925D01*
X019625Y009925D01*
X018725Y009725D02*
X024625Y009725D01*
X023775Y009275D02*
X023599Y009275D01*
X021684Y007360D01*
X021818Y007225D02*
X022618Y008025D01*
X025475Y008025D01*
X026575Y007775D02*
X022651Y007775D01*
X021960Y007084D01*
X022377Y006667D02*
X022585Y006875D01*
X023225Y006875D01*
X023525Y006575D01*
X024675Y006575D01*
X025025Y007175D02*
X025825Y006375D01*
X026125Y006375D01*
X026675Y006925D01*
X029075Y006925D01*
X027125Y007875D02*
X026675Y007875D01*
X026575Y007775D01*
X025025Y007175D02*
X024405Y007175D01*
X024185Y007205D01*
X022377Y006667D02*
X021935Y006225D01*
X020275Y006225D01*
X020625Y006025D02*
X019225Y006025D01*
X018775Y006475D01*
X018325Y006475D01*
X018125Y006675D01*
X018099Y006675D01*
X017690Y007084D01*
X018108Y007501D02*
X017334Y008275D01*
X008675Y008275D01*
X007325Y007625D02*
X006925Y007225D01*
X006925Y007175D01*
X006825Y006675D02*
X006325Y007175D01*
X006025Y006975D02*
X006025Y007625D01*
X004808Y007447D02*
X004786Y007425D01*
X003775Y007425D01*
X003775Y007125D01*
X003675Y007025D01*
X003675Y006525D01*
X004125Y006425D02*
X004125Y006125D01*
X004125Y005425D01*
X004190Y005360D01*
X004766Y005360D01*
X004766Y005675D02*
X006725Y005675D01*
X006825Y005775D01*
X006825Y006675D01*
X006725Y006275D02*
X006025Y006975D01*
X005625Y006775D02*
X004475Y006775D01*
X004125Y006425D01*
X004766Y005990D02*
X005460Y005990D01*
X005650Y005800D01*
X006625Y005800D01*
X006725Y005900D01*
X006725Y006275D01*
X007831Y006502D02*
X008952Y006502D01*
X009225Y006775D01*
X010825Y006775D01*
X011025Y006975D01*
X010702Y007169D02*
X010737Y007225D01*
X010925Y007225D01*
X010975Y007275D01*
X011025Y007525D02*
X010975Y007575D01*
X010575Y007575D01*
X010387Y007387D01*
X010387Y007169D01*
X010752Y006502D02*
X010675Y006425D01*
X010725Y006475D01*
X010752Y006502D02*
X011369Y006502D01*
X011369Y006187D02*
X010837Y006187D01*
X010725Y006075D01*
X010775Y006125D01*
X012325Y006305D02*
X012325Y006625D01*
X012625Y006925D02*
X013625Y006925D01*
X013775Y006775D01*
X013825Y006775D01*
X013975Y006625D01*
X014025Y006625D01*
X014275Y006375D01*
X014475Y006375D01*
X015075Y006375D01*
X015325Y006625D01*
X015625Y006925D01*
X015675Y006925D01*
X015725Y006925D01*
X014975Y006855D02*
X014975Y006675D01*
X014925Y006625D01*
X014625Y006625D01*
X014575Y006625D01*
X014275Y006925D01*
X014275Y007175D01*
X013025Y006625D02*
X013025Y006325D01*
X013025Y005475D01*
X012925Y005375D01*
X012925Y004575D01*
X013475Y004475D02*
X013625Y004325D01*
X013625Y003425D01*
X014775Y003425D01*
X015675Y002525D01*
X018975Y002525D01*
X019675Y003225D01*
X019775Y003225D01*
X019875Y003125D01*
X020307Y003125D01*
X020425Y003232D01*
X020225Y002925D02*
X019725Y002925D01*
X019225Y002425D01*
X015525Y002425D01*
X015075Y002875D01*
X013575Y002875D01*
X013175Y003275D01*
X013175Y004975D01*
X013275Y005075D01*
X013775Y005075D01*
X014075Y004775D01*
X013475Y004775D02*
X013475Y004475D01*
X014725Y004725D02*
X014725Y004775D01*
X015325Y004775D02*
X015325Y004225D01*
X015575Y003975D01*
X015575Y003475D01*
X015525Y003425D01*
X015575Y003425D01*
X016325Y002675D01*
X018668Y002675D01*
X019225Y003232D01*
X019075Y003375D02*
X019175Y003475D01*
X019275Y003575D01*
X019325Y003575D01*
X019375Y003575D01*
X019475Y003575D01*
X019575Y003475D01*
X019775Y003675D02*
X019325Y003675D01*
X018925Y004075D01*
X018668Y004075D01*
X018525Y003932D01*
X018666Y003790D02*
X018501Y003625D01*
X018375Y003625D01*
X018075Y003625D01*
X017925Y003625D01*
X017775Y003775D01*
X017075Y003775D01*
X017025Y003475D02*
X018125Y003475D01*
X018225Y003375D01*
X018325Y003375D01*
X018534Y003375D01*
X018808Y003649D01*
X018942Y003515D02*
X018652Y003225D01*
X017575Y003225D01*
X017325Y002975D01*
X017275Y002975D01*
X017875Y002975D02*
X017925Y002925D01*
X017025Y003475D02*
X016975Y003425D01*
X018390Y004066D02*
X018549Y004225D01*
X018925Y004225D01*
X019075Y004225D01*
X020325Y004225D01*
X020675Y004325D02*
X020675Y004099D01*
X020984Y003790D01*
X020298Y003925D02*
X020248Y003975D01*
X019325Y003975D01*
X018516Y004475D02*
X018249Y004208D01*
X018108Y004349D02*
X018334Y004575D01*
X018575Y004575D01*
X018725Y004725D01*
X018525Y004875D02*
X018351Y004875D01*
X017966Y004490D01*
X017832Y004625D02*
X017888Y004688D01*
X018125Y004925D01*
X018175Y005125D02*
X018375Y005125D01*
X018175Y005125D02*
X018049Y005125D01*
X017690Y004766D01*
X017549Y004908D02*
X017316Y004675D01*
X016825Y004675D01*
X016805Y004675D01*
X016075Y005405D01*
X016375Y005575D02*
X016375Y005645D01*
X016075Y005945D01*
X016625Y005943D02*
X016625Y006025D01*
X016625Y005943D02*
X017132Y005325D01*
X017273Y005183D02*
X017565Y005475D01*
X017575Y005475D01*
X017925Y005725D02*
X018175Y005475D01*
X018775Y005475D01*
X019375Y004875D01*
X020125Y004875D01*
X020675Y004325D01*
X021225Y004384D02*
X021225Y004825D01*
X021475Y005251D02*
X021960Y004766D01*
X021818Y004625D02*
X020968Y005475D01*
X019525Y005475D01*
X020425Y005175D02*
X021025Y005175D01*
X021475Y005251D02*
X021475Y005275D01*
X021925Y005284D02*
X021925Y005234D01*
X021925Y005084D01*
X022101Y004908D01*
X022235Y005042D02*
X022452Y004825D01*
X022625Y004825D01*
X022377Y005183D02*
X022321Y005229D01*
X022518Y005325D02*
X022707Y005525D01*
X022725Y005525D01*
X022875Y005525D01*
X023075Y005675D01*
X023675Y005675D02*
X023825Y005775D01*
X022518Y006525D02*
X022225Y006232D01*
X022225Y006175D01*
X021925Y005975D02*
X021925Y005825D01*
X021975Y005775D01*
X021975Y005475D01*
X021925Y005425D01*
X021925Y005284D01*
X021775Y005675D02*
X021675Y005775D01*
X018325Y005775D01*
X017925Y005825D02*
X017925Y005725D01*
X017925Y005825D02*
X017725Y006025D01*
X017075Y004875D02*
X016375Y005575D01*
X017248Y004875D02*
X017415Y005042D01*
X017248Y004875D02*
X017125Y004875D01*
X017075Y004875D01*
X018108Y004349D02*
X018163Y004413D01*
X018516Y004475D02*
X018575Y004475D01*
X018725Y004475D01*
X018775Y004475D01*
X021225Y004384D02*
X021401Y004208D01*
X021542Y004349D02*
X021666Y004225D01*
X021766Y004125D01*
X021925Y004125D01*
X023175Y004125D01*
X023375Y004125D01*
X023525Y004275D01*
X023475Y004225D01*
X023125Y004475D02*
X022975Y004325D01*
X022925Y004275D01*
X022025Y004275D01*
X021899Y004275D01*
X021849Y004325D01*
X021684Y004490D01*
X021260Y004066D02*
X021204Y004096D01*
X023125Y004475D02*
X023675Y004475D01*
X024225Y004025D01*
X023625Y003675D02*
X023625Y003325D01*
X025475Y003925D02*
X027275Y003925D01*
X029075Y003925D01*
X023075Y001875D02*
X022575Y002375D01*
X022175Y002375D01*
X021775Y002775D01*
X021325Y002775D01*
X021225Y002675D01*
X020275Y002675D01*
X020125Y002525D01*
X019675Y002525D01*
X018575Y001925D02*
X021625Y001925D01*
X021175Y002375D02*
X021075Y002275D01*
X011675Y002275D01*
X011375Y001975D01*
X009625Y001975D01*
X009075Y001425D01*
X011075Y001425D02*
X011725Y002075D01*
X013425Y002075D01*
X016375Y002075D01*
X016575Y001825D02*
X012475Y001825D01*
X012075Y001425D01*
X010475Y002325D02*
X010325Y002175D01*
X006825Y002175D01*
X006075Y001425D01*
X005075Y001425D02*
X006075Y002425D01*
X010525Y002425D01*
X010675Y002575D01*
X010975Y002575D01*
X011125Y002325D02*
X011275Y002475D01*
X011375Y002475D01*
X011125Y002325D02*
X010475Y002325D01*
X010425Y002525D02*
X010775Y002875D01*
X010387Y002737D02*
X010275Y002625D01*
X005275Y002625D01*
X004275Y002625D01*
X003075Y001425D01*
X004075Y001425D02*
X005175Y002525D01*
X010425Y002525D01*
X010387Y002737D02*
X010387Y003631D01*
X010072Y003631D02*
X010072Y004122D01*
X010075Y004125D01*
X009443Y004107D02*
X009375Y004175D01*
X009325Y004225D01*
X009325Y004525D01*
X009443Y004107D02*
X009443Y003631D01*
X009443Y003225D01*
X009225Y003225D01*
X009128Y003322D01*
X009128Y003631D01*
X009757Y003631D02*
X009757Y003343D01*
X009825Y003275D01*
X010072Y003275D01*
X010072Y002957D01*
X010075Y002925D01*
X009475Y002925D02*
X009443Y002961D01*
X009443Y003225D01*
X010072Y003275D02*
X010072Y003631D01*
X010702Y003631D02*
X010737Y003675D01*
X011075Y003675D01*
X011302Y004625D02*
X011675Y004625D01*
X012025Y004975D01*
X011369Y004613D02*
X011302Y004625D01*
X006225Y003875D02*
X006175Y003975D01*
X004808Y003903D02*
X004736Y003975D01*
X003825Y003975D01*
X003825Y004175D01*
X003675Y004325D01*
X003675Y004825D01*
X003825Y003975D02*
X002793Y003975D01*
X002721Y003903D01*
X005575Y006725D02*
X005625Y006775D01*
X007475Y007275D02*
X007575Y007375D01*
X003775Y007425D02*
X002743Y007425D01*
X002721Y007447D01*
X012075Y008575D02*
X012925Y008575D01*
X013375Y009025D01*
X020525Y009025D01*
X020725Y008825D01*
X020725Y008635D01*
X020567Y008477D01*
X020708Y008335D02*
X020875Y008502D01*
X020875Y008825D01*
X020575Y009125D01*
X012975Y009125D01*
X013225Y008475D02*
X013675Y008925D01*
X020125Y008925D01*
X020275Y008775D01*
X020425Y008625D01*
X020425Y008618D01*
X020425Y008618D01*
X021025Y008825D02*
X021025Y008384D01*
X020842Y008201D01*
X020984Y008060D02*
X021175Y008251D01*
X021175Y008875D01*
X020675Y009375D01*
X015875Y009375D01*
X015775Y009475D01*
X015475Y009675D02*
X017125Y009675D01*
X017325Y009475D01*
X019125Y009475D01*
X019175Y009525D01*
X020675Y009525D01*
X021325Y008875D01*
X021325Y008118D01*
X021125Y007918D01*
X021260Y007784D02*
X021001Y007525D01*
X020901Y007425D01*
X020775Y007425D01*
X020325Y007425D01*
X019525Y007425D01*
X019425Y007525D01*
X018925Y007425D02*
X018925Y007801D01*
X018666Y008060D01*
X018525Y007918D02*
X018725Y007718D01*
X018725Y007575D01*
X018390Y007784D02*
X018225Y007949D01*
X018225Y008075D01*
X018225Y008225D01*
X018475Y008475D01*
X018802Y008475D01*
X018942Y008335D01*
X019202Y008075D01*
X019425Y008075D01*
X019525Y008175D01*
X019875Y008175D01*
X019625Y008525D02*
X019525Y008625D01*
X019475Y008675D01*
X019425Y008725D01*
X019343Y008725D01*
X019225Y008618D01*
X019083Y008477D02*
X018885Y008675D01*
X018625Y008675D01*
X018575Y008625D01*
X018325Y008625D01*
X017325Y008525D02*
X015075Y008525D01*
X014375Y009225D02*
X020625Y009225D01*
X021025Y008825D01*
X021175Y009275D02*
X022825Y009275D01*
X023725Y009275D02*
X023775Y009275D01*
X025925Y009275D01*
X027075Y010425D01*
X026725Y008825D02*
X026825Y008725D01*
X026825Y008675D01*
X026225Y008675D02*
X025425Y008675D01*
X024725Y008675D02*
X024275Y008675D01*
X021025Y006825D02*
X020825Y006825D01*
X020575Y006575D01*
X019625Y006575D01*
X019525Y006675D01*
X019075Y006675D01*
X022463Y006463D02*
X022518Y006525D01*
X015475Y009675D02*
X015275Y009475D01*
X014775Y009475D01*
X014375Y009225D02*
X014275Y009325D01*
X013725Y009325D01*
X014625Y009875D02*
X017325Y009875D01*
X017525Y009675D01*
X014625Y009875D02*
X014075Y010425D01*
X017775Y002125D02*
X022575Y002125D01*
X023075Y001875D02*
X023075Y001425D01*
X018575Y001925D02*
X018075Y001425D01*
X017775Y002125D02*
X017075Y001425D01*
D25*
X016575Y001825D03*
X016375Y002075D03*
X018475Y003025D03*
X017575Y003225D03*
X016975Y003425D03*
X017075Y003775D03*
X017275Y004475D03*
X018125Y004925D03*
X018375Y005125D03*
X018525Y004875D03*
X018725Y004725D03*
X018775Y004475D03*
X019725Y004475D03*
X020325Y004225D03*
X019325Y003975D03*
X019775Y003675D03*
X019575Y003475D03*
X020275Y003675D03*
X021425Y003625D03*
X021825Y003675D03*
X023525Y004275D03*
X024225Y004025D03*
X025225Y004525D03*
X023275Y004675D03*
X022625Y004825D03*
X022925Y005175D03*
X022725Y005525D03*
X021775Y005675D03*
X021925Y005975D03*
X022225Y006175D03*
X020925Y006625D03*
X020275Y006225D03*
X020625Y006025D03*
X019525Y005475D03*
X020425Y005175D03*
X021025Y005175D03*
X021475Y005275D03*
X021225Y004825D03*
X018325Y005775D03*
X017725Y006025D03*
X017525Y006175D03*
X018125Y006425D03*
X018825Y006175D03*
X019075Y006675D03*
X019525Y006925D03*
X020075Y006775D03*
X018625Y006975D03*
X018925Y007425D03*
X018725Y007575D03*
X019425Y007525D03*
X019125Y007925D03*
X019875Y008175D03*
X019625Y008525D03*
X018325Y008625D03*
X017325Y008525D03*
X015075Y008525D03*
X014975Y007775D03*
X013225Y008475D03*
X012075Y008575D03*
X012975Y009125D03*
X013725Y009325D03*
X014775Y009475D03*
X015775Y009475D03*
X017525Y009675D03*
X018725Y009725D03*
X019625Y009925D03*
X021175Y009275D03*
X022825Y009275D03*
X024275Y008675D03*
X025475Y008025D03*
X027125Y007875D03*
X024675Y006575D03*
X023825Y006175D03*
X027625Y004475D03*
X028075Y005425D03*
X023625Y003325D03*
X025475Y002875D03*
X022575Y002125D03*
X021625Y001925D03*
X021175Y002375D03*
X020225Y002925D03*
X019675Y002525D03*
X014425Y004225D03*
X012925Y004575D03*
X012025Y004975D03*
X012225Y005375D03*
X010725Y006075D03*
X010675Y006425D03*
X010025Y006575D03*
X011025Y006975D03*
X011375Y006925D03*
X010975Y007275D03*
X011025Y007525D03*
X009075Y008075D03*
X008675Y008275D03*
X008225Y007775D03*
X007325Y007625D03*
X007275Y007925D03*
X005725Y007875D03*
X007475Y007275D03*
X005625Y006775D03*
X003775Y007425D03*
X002175Y008475D03*
X007075Y005675D03*
X008625Y005675D03*
X009825Y006025D03*
X012325Y006305D03*
X014975Y006855D03*
X016875Y006025D03*
X017575Y005475D03*
X011075Y003675D03*
X010075Y004125D03*
X009325Y004525D03*
X006925Y004525D03*
X006275Y004875D03*
X005725Y004375D03*
X003825Y003975D03*
X007875Y003425D03*
X010775Y002875D03*
X010975Y002575D03*
X011375Y002475D03*
X028575Y002825D03*
X026725Y009125D03*
X024625Y009725D03*
D26*
X026725Y009125D02*
X026725Y008825D01*
X023825Y006175D02*
X023825Y005775D01*
X023675Y005675D02*
X023675Y005375D01*
X023475Y005175D01*
X022925Y005175D01*
X022775Y005025D01*
X022525Y005025D01*
X022321Y005229D01*
X019083Y003373D02*
X018735Y003025D01*
X018475Y003025D01*
X018275Y003025D01*
X018175Y002925D01*
X017925Y002925D01*
X014425Y004225D02*
X014425Y004425D01*
X014725Y004725D01*
X014425Y004425D02*
X014075Y004775D01*
X018808Y008201D02*
X019084Y007925D01*
X019125Y007925D01*
D27*
X008225Y007775D02*
X008125Y007775D01*
X007925Y007975D01*
X007575Y007975D02*
X007125Y008425D01*
X004375Y008425D01*
X004375Y009275D01*
X004125Y009525D01*
X004125Y010375D01*
X003125Y010375D02*
X003075Y010425D01*
X002725Y010075D01*
X002425Y010075D01*
X002325Y009925D01*
X003125Y010375D02*
X003125Y009275D01*
X003775Y008625D01*
X003775Y008425D01*
X002175Y008475D02*
X002175Y009075D01*
X005725Y007875D02*
X005725Y007325D01*
X005875Y007175D01*
X005875Y006500D01*
X006275Y006150D01*
X005650Y006150D01*
X005495Y006305D01*
X004766Y006305D01*
X005675Y005325D02*
X005575Y005225D01*
X005575Y005075D01*
X005605Y005045D02*
X005725Y004925D01*
X005725Y004375D01*
X006175Y004375D02*
X006175Y003975D01*
X006175Y004375D02*
X006275Y004475D01*
X006275Y004875D01*
X006275Y005350D01*
X005675Y005325D01*
X005605Y005045D02*
X004766Y005045D01*
X006925Y004525D02*
X007025Y004375D01*
X007025Y003875D01*
X007475Y007275D02*
X007575Y007375D01*
X007925Y007375D01*
X007575Y007375D02*
X007575Y007975D01*
M02*
