G75*
%MOIN*%
%OFA0B0*%
%FSLAX24Y24*%
%IPPOS*%
%LPD*%
%AMOC8*
5,1,8,0,0,1.08239X$1,22.5*
%
%ADD10C,0.0095*%
%ADD11C,0.0087*%
%ADD12C,0.0540*%
%ADD13C,0.0450*%
%ADD14C,0.0103*%
%ADD15C,0.0115*%
%ADD16R,0.1060X0.0260*%
%ADD17R,0.1438X0.0847*%
%ADD18R,0.1320X0.0847*%
%ADD19C,0.0621*%
%ADD20C,0.0645*%
%ADD21R,0.0510X0.0460*%
%ADD22C,0.0800*%
%ADD23R,0.0520X0.0690*%
%ADD24R,0.0060X0.0720*%
D10*
X017264Y005502D02*
X017309Y005457D01*
X017000Y005148D01*
X016955Y005193D01*
X017264Y005502D01*
X017094Y005242D02*
X017004Y005242D01*
X017098Y005336D02*
X017188Y005336D01*
X017192Y005430D02*
X017282Y005430D01*
X017405Y005360D02*
X017450Y005315D01*
X017141Y005006D01*
X017096Y005051D01*
X017405Y005360D01*
X017235Y005100D02*
X017145Y005100D01*
X017239Y005194D02*
X017329Y005194D01*
X017333Y005288D02*
X017423Y005288D01*
X017547Y005219D02*
X017592Y005174D01*
X017283Y004865D01*
X017238Y004910D01*
X017547Y005219D01*
X017377Y004959D02*
X017287Y004959D01*
X017381Y005053D02*
X017471Y005053D01*
X017475Y005147D02*
X017565Y005147D01*
X017681Y005085D02*
X017726Y005040D01*
X017417Y004731D01*
X017372Y004776D01*
X017681Y005085D01*
X017511Y004825D02*
X017421Y004825D01*
X017515Y004919D02*
X017605Y004919D01*
X017609Y005013D02*
X017699Y005013D01*
X017822Y004943D02*
X017867Y004898D01*
X017558Y004589D01*
X017513Y004634D01*
X017822Y004943D01*
X017652Y004683D02*
X017562Y004683D01*
X017656Y004777D02*
X017746Y004777D01*
X017750Y004871D02*
X017840Y004871D01*
X017964Y004802D02*
X018009Y004757D01*
X017700Y004448D01*
X017655Y004493D01*
X017964Y004802D01*
X017794Y004542D02*
X017704Y004542D01*
X017798Y004636D02*
X017888Y004636D01*
X017892Y004730D02*
X017982Y004730D01*
X018098Y004667D02*
X018143Y004622D01*
X017834Y004313D01*
X017789Y004358D01*
X018098Y004667D01*
X017928Y004407D02*
X017838Y004407D01*
X017932Y004501D02*
X018022Y004501D01*
X018026Y004595D02*
X018116Y004595D01*
X018240Y004526D02*
X018285Y004481D01*
X017976Y004172D01*
X017931Y004217D01*
X018240Y004526D01*
X018070Y004266D02*
X017980Y004266D01*
X018074Y004360D02*
X018164Y004360D01*
X018168Y004454D02*
X018258Y004454D01*
X018381Y004385D02*
X018426Y004340D01*
X018117Y004031D01*
X018072Y004076D01*
X018381Y004385D01*
X018211Y004125D02*
X018121Y004125D01*
X018215Y004219D02*
X018305Y004219D01*
X018309Y004313D02*
X018399Y004313D01*
X018522Y004243D02*
X018567Y004198D01*
X018258Y003889D01*
X018213Y003934D01*
X018522Y004243D01*
X018352Y003983D02*
X018262Y003983D01*
X018356Y004077D02*
X018446Y004077D01*
X018450Y004171D02*
X018540Y004171D01*
X018657Y004109D02*
X018702Y004064D01*
X018393Y003755D01*
X018348Y003800D01*
X018657Y004109D01*
X018487Y003849D02*
X018397Y003849D01*
X018491Y003943D02*
X018581Y003943D01*
X018585Y004037D02*
X018675Y004037D01*
X018798Y003967D02*
X018843Y003922D01*
X018534Y003613D01*
X018489Y003658D01*
X018798Y003967D01*
X018628Y003707D02*
X018538Y003707D01*
X018632Y003801D02*
X018722Y003801D01*
X018726Y003895D02*
X018816Y003895D01*
X018940Y003826D02*
X018985Y003781D01*
X018676Y003472D01*
X018631Y003517D01*
X018940Y003826D01*
X018770Y003566D02*
X018680Y003566D01*
X018774Y003660D02*
X018864Y003660D01*
X018868Y003754D02*
X018958Y003754D01*
X019074Y003692D02*
X019119Y003647D01*
X018810Y003338D01*
X018765Y003383D01*
X019074Y003692D01*
X018904Y003432D02*
X018814Y003432D01*
X018908Y003526D02*
X018998Y003526D01*
X019002Y003620D02*
X019092Y003620D01*
X019215Y003550D02*
X019260Y003505D01*
X018951Y003196D01*
X018906Y003241D01*
X019215Y003550D01*
X019045Y003290D02*
X018955Y003290D01*
X019049Y003384D02*
X019139Y003384D01*
X019143Y003478D02*
X019233Y003478D01*
X019357Y003409D02*
X019402Y003364D01*
X019093Y003055D01*
X019048Y003100D01*
X019357Y003409D01*
X019187Y003149D02*
X019097Y003149D01*
X019191Y003243D02*
X019281Y003243D01*
X019285Y003337D02*
X019375Y003337D01*
X020248Y003364D02*
X020293Y003409D01*
X020602Y003100D01*
X020557Y003055D01*
X020248Y003364D01*
X020463Y003149D02*
X020553Y003149D01*
X020459Y003243D02*
X020369Y003243D01*
X020365Y003337D02*
X020275Y003337D01*
X020390Y003505D02*
X020435Y003550D01*
X020744Y003241D01*
X020699Y003196D01*
X020390Y003505D01*
X020605Y003290D02*
X020695Y003290D01*
X020601Y003384D02*
X020511Y003384D01*
X020507Y003478D02*
X020417Y003478D01*
X020531Y003647D02*
X020576Y003692D01*
X020885Y003383D01*
X020840Y003338D01*
X020531Y003647D01*
X020746Y003432D02*
X020836Y003432D01*
X020742Y003526D02*
X020652Y003526D01*
X020648Y003620D02*
X020558Y003620D01*
X020665Y003781D02*
X020710Y003826D01*
X021019Y003517D01*
X020974Y003472D01*
X020665Y003781D01*
X020880Y003566D02*
X020970Y003566D01*
X020876Y003660D02*
X020786Y003660D01*
X020782Y003754D02*
X020692Y003754D01*
X020807Y003922D02*
X020852Y003967D01*
X021161Y003658D01*
X021116Y003613D01*
X020807Y003922D01*
X021022Y003707D02*
X021112Y003707D01*
X021018Y003801D02*
X020928Y003801D01*
X020924Y003895D02*
X020834Y003895D01*
X020948Y004064D02*
X020993Y004109D01*
X021302Y003800D01*
X021257Y003755D01*
X020948Y004064D01*
X021163Y003849D02*
X021253Y003849D01*
X021159Y003943D02*
X021069Y003943D01*
X021065Y004037D02*
X020975Y004037D01*
X021083Y004198D02*
X021128Y004243D01*
X021437Y003934D01*
X021392Y003889D01*
X021083Y004198D01*
X021298Y003983D02*
X021388Y003983D01*
X021294Y004077D02*
X021204Y004077D01*
X021200Y004171D02*
X021110Y004171D01*
X021224Y004340D02*
X021269Y004385D01*
X021578Y004076D01*
X021533Y004031D01*
X021224Y004340D01*
X021439Y004125D02*
X021529Y004125D01*
X021435Y004219D02*
X021345Y004219D01*
X021341Y004313D02*
X021251Y004313D01*
X021365Y004481D02*
X021410Y004526D01*
X021719Y004217D01*
X021674Y004172D01*
X021365Y004481D01*
X021580Y004266D02*
X021670Y004266D01*
X021576Y004360D02*
X021486Y004360D01*
X021482Y004454D02*
X021392Y004454D01*
X021507Y004622D02*
X021552Y004667D01*
X021861Y004358D01*
X021816Y004313D01*
X021507Y004622D01*
X021722Y004407D02*
X021812Y004407D01*
X021718Y004501D02*
X021628Y004501D01*
X021624Y004595D02*
X021534Y004595D01*
X021641Y004757D02*
X021686Y004802D01*
X021995Y004493D01*
X021950Y004448D01*
X021641Y004757D01*
X021856Y004542D02*
X021946Y004542D01*
X021852Y004636D02*
X021762Y004636D01*
X021758Y004730D02*
X021668Y004730D01*
X021783Y004898D02*
X021828Y004943D01*
X022137Y004634D01*
X022092Y004589D01*
X021783Y004898D01*
X021998Y004683D02*
X022088Y004683D01*
X021994Y004777D02*
X021904Y004777D01*
X021900Y004871D02*
X021810Y004871D01*
X021924Y005040D02*
X021969Y005085D01*
X022278Y004776D01*
X022233Y004731D01*
X021924Y005040D01*
X022139Y004825D02*
X022229Y004825D01*
X022135Y004919D02*
X022045Y004919D01*
X022041Y005013D02*
X021951Y005013D01*
X022058Y005174D02*
X022103Y005219D01*
X022412Y004910D01*
X022367Y004865D01*
X022058Y005174D01*
X022273Y004959D02*
X022363Y004959D01*
X022269Y005053D02*
X022179Y005053D01*
X022175Y005147D02*
X022085Y005147D01*
X022200Y005315D02*
X022245Y005360D01*
X022554Y005051D01*
X022509Y005006D01*
X022200Y005315D01*
X022415Y005100D02*
X022505Y005100D01*
X022411Y005194D02*
X022321Y005194D01*
X022317Y005288D02*
X022227Y005288D01*
X022341Y005457D02*
X022386Y005502D01*
X022695Y005193D01*
X022650Y005148D01*
X022341Y005457D01*
X022556Y005242D02*
X022646Y005242D01*
X022552Y005336D02*
X022462Y005336D01*
X022458Y005430D02*
X022368Y005430D01*
X022695Y006657D02*
X022650Y006702D01*
X022695Y006657D02*
X022386Y006348D01*
X022341Y006393D01*
X022650Y006702D01*
X022480Y006442D02*
X022390Y006442D01*
X022484Y006536D02*
X022574Y006536D01*
X022578Y006630D02*
X022668Y006630D01*
X022554Y006799D02*
X022509Y006844D01*
X022554Y006799D02*
X022245Y006490D01*
X022200Y006535D01*
X022509Y006844D01*
X022339Y006584D02*
X022249Y006584D01*
X022343Y006678D02*
X022433Y006678D01*
X022437Y006772D02*
X022527Y006772D01*
X022412Y006940D02*
X022367Y006985D01*
X022412Y006940D02*
X022103Y006631D01*
X022058Y006676D01*
X022367Y006985D01*
X022197Y006725D02*
X022107Y006725D01*
X022201Y006819D02*
X022291Y006819D01*
X022295Y006913D02*
X022385Y006913D01*
X022278Y007074D02*
X022233Y007119D01*
X022278Y007074D02*
X021969Y006765D01*
X021924Y006810D01*
X022233Y007119D01*
X022063Y006859D02*
X021973Y006859D01*
X022067Y006953D02*
X022157Y006953D01*
X022161Y007047D02*
X022251Y007047D01*
X022137Y007216D02*
X022092Y007261D01*
X022137Y007216D02*
X021828Y006907D01*
X021783Y006952D01*
X022092Y007261D01*
X021922Y007001D02*
X021832Y007001D01*
X021926Y007095D02*
X022016Y007095D01*
X022020Y007189D02*
X022110Y007189D01*
X021995Y007357D02*
X021950Y007402D01*
X021995Y007357D02*
X021686Y007048D01*
X021641Y007093D01*
X021950Y007402D01*
X021780Y007142D02*
X021690Y007142D01*
X021784Y007236D02*
X021874Y007236D01*
X021878Y007330D02*
X021968Y007330D01*
X021861Y007492D02*
X021816Y007537D01*
X021861Y007492D02*
X021552Y007183D01*
X021507Y007228D01*
X021816Y007537D01*
X021646Y007277D02*
X021556Y007277D01*
X021650Y007371D02*
X021740Y007371D01*
X021744Y007465D02*
X021834Y007465D01*
X021719Y007633D02*
X021674Y007678D01*
X021719Y007633D02*
X021410Y007324D01*
X021365Y007369D01*
X021674Y007678D01*
X021504Y007418D02*
X021414Y007418D01*
X021508Y007512D02*
X021598Y007512D01*
X021602Y007606D02*
X021692Y007606D01*
X021578Y007774D02*
X021533Y007819D01*
X021578Y007774D02*
X021269Y007465D01*
X021224Y007510D01*
X021533Y007819D01*
X021363Y007559D02*
X021273Y007559D01*
X021367Y007653D02*
X021457Y007653D01*
X021461Y007747D02*
X021551Y007747D01*
X021437Y007916D02*
X021392Y007961D01*
X021437Y007916D02*
X021128Y007607D01*
X021083Y007652D01*
X021392Y007961D01*
X021222Y007701D02*
X021132Y007701D01*
X021226Y007795D02*
X021316Y007795D01*
X021320Y007889D02*
X021410Y007889D01*
X021302Y008050D02*
X021257Y008095D01*
X021302Y008050D02*
X020993Y007741D01*
X020948Y007786D01*
X021257Y008095D01*
X021087Y007835D02*
X020997Y007835D01*
X021091Y007929D02*
X021181Y007929D01*
X021185Y008023D02*
X021275Y008023D01*
X021161Y008192D02*
X021116Y008237D01*
X021161Y008192D02*
X020852Y007883D01*
X020807Y007928D01*
X021116Y008237D01*
X020946Y007977D02*
X020856Y007977D01*
X020950Y008071D02*
X021040Y008071D01*
X021044Y008165D02*
X021134Y008165D01*
X021019Y008333D02*
X020974Y008378D01*
X021019Y008333D02*
X020710Y008024D01*
X020665Y008069D01*
X020974Y008378D01*
X020804Y008118D02*
X020714Y008118D01*
X020808Y008212D02*
X020898Y008212D01*
X020902Y008306D02*
X020992Y008306D01*
X020885Y008467D02*
X020840Y008512D01*
X020885Y008467D02*
X020576Y008158D01*
X020531Y008203D01*
X020840Y008512D01*
X020670Y008252D02*
X020580Y008252D01*
X020674Y008346D02*
X020764Y008346D01*
X020768Y008440D02*
X020858Y008440D01*
X020744Y008609D02*
X020699Y008654D01*
X020744Y008609D02*
X020435Y008300D01*
X020390Y008345D01*
X020699Y008654D01*
X020529Y008394D02*
X020439Y008394D01*
X020533Y008488D02*
X020623Y008488D01*
X020627Y008582D02*
X020717Y008582D01*
X020602Y008750D02*
X020557Y008795D01*
X020602Y008750D02*
X020293Y008441D01*
X020248Y008486D01*
X020557Y008795D01*
X020387Y008535D02*
X020297Y008535D01*
X020391Y008629D02*
X020481Y008629D01*
X020485Y008723D02*
X020575Y008723D01*
X019093Y008795D02*
X019048Y008750D01*
X019093Y008795D02*
X019402Y008486D01*
X019357Y008441D01*
X019048Y008750D01*
X019263Y008535D02*
X019353Y008535D01*
X019259Y008629D02*
X019169Y008629D01*
X019165Y008723D02*
X019075Y008723D01*
X018951Y008654D02*
X018906Y008609D01*
X018951Y008654D02*
X019260Y008345D01*
X019215Y008300D01*
X018906Y008609D01*
X019121Y008394D02*
X019211Y008394D01*
X019117Y008488D02*
X019027Y008488D01*
X019023Y008582D02*
X018933Y008582D01*
X018810Y008512D02*
X018765Y008467D01*
X018810Y008512D02*
X019119Y008203D01*
X019074Y008158D01*
X018765Y008467D01*
X018980Y008252D02*
X019070Y008252D01*
X018976Y008346D02*
X018886Y008346D01*
X018882Y008440D02*
X018792Y008440D01*
X018676Y008378D02*
X018631Y008333D01*
X018676Y008378D02*
X018985Y008069D01*
X018940Y008024D01*
X018631Y008333D01*
X018846Y008118D02*
X018936Y008118D01*
X018842Y008212D02*
X018752Y008212D01*
X018748Y008306D02*
X018658Y008306D01*
X018534Y008237D02*
X018489Y008192D01*
X018534Y008237D02*
X018843Y007928D01*
X018798Y007883D01*
X018489Y008192D01*
X018704Y007977D02*
X018794Y007977D01*
X018700Y008071D02*
X018610Y008071D01*
X018606Y008165D02*
X018516Y008165D01*
X018393Y008095D02*
X018348Y008050D01*
X018393Y008095D02*
X018702Y007786D01*
X018657Y007741D01*
X018348Y008050D01*
X018563Y007835D02*
X018653Y007835D01*
X018559Y007929D02*
X018469Y007929D01*
X018465Y008023D02*
X018375Y008023D01*
X018258Y007961D02*
X018213Y007916D01*
X018258Y007961D02*
X018567Y007652D01*
X018522Y007607D01*
X018213Y007916D01*
X018428Y007701D02*
X018518Y007701D01*
X018424Y007795D02*
X018334Y007795D01*
X018330Y007889D02*
X018240Y007889D01*
X018117Y007819D02*
X018072Y007774D01*
X018117Y007819D02*
X018426Y007510D01*
X018381Y007465D01*
X018072Y007774D01*
X018287Y007559D02*
X018377Y007559D01*
X018283Y007653D02*
X018193Y007653D01*
X018189Y007747D02*
X018099Y007747D01*
X017976Y007678D02*
X017931Y007633D01*
X017976Y007678D02*
X018285Y007369D01*
X018240Y007324D01*
X017931Y007633D01*
X018146Y007418D02*
X018236Y007418D01*
X018142Y007512D02*
X018052Y007512D01*
X018048Y007606D02*
X017958Y007606D01*
X017834Y007537D02*
X017789Y007492D01*
X017834Y007537D02*
X018143Y007228D01*
X018098Y007183D01*
X017789Y007492D01*
X018004Y007277D02*
X018094Y007277D01*
X018000Y007371D02*
X017910Y007371D01*
X017906Y007465D02*
X017816Y007465D01*
X017700Y007402D02*
X017655Y007357D01*
X017700Y007402D02*
X018009Y007093D01*
X017964Y007048D01*
X017655Y007357D01*
X017870Y007142D02*
X017960Y007142D01*
X017866Y007236D02*
X017776Y007236D01*
X017772Y007330D02*
X017682Y007330D01*
X017558Y007261D02*
X017513Y007216D01*
X017558Y007261D02*
X017867Y006952D01*
X017822Y006907D01*
X017513Y007216D01*
X017728Y007001D02*
X017818Y007001D01*
X017724Y007095D02*
X017634Y007095D01*
X017630Y007189D02*
X017540Y007189D01*
X017417Y007119D02*
X017372Y007074D01*
X017417Y007119D02*
X017726Y006810D01*
X017681Y006765D01*
X017372Y007074D01*
X017587Y006859D02*
X017677Y006859D01*
X017583Y006953D02*
X017493Y006953D01*
X017489Y007047D02*
X017399Y007047D01*
X017283Y006985D02*
X017238Y006940D01*
X017283Y006985D02*
X017592Y006676D01*
X017547Y006631D01*
X017238Y006940D01*
X017453Y006725D02*
X017543Y006725D01*
X017449Y006819D02*
X017359Y006819D01*
X017355Y006913D02*
X017265Y006913D01*
X017141Y006844D02*
X017096Y006799D01*
X017141Y006844D02*
X017450Y006535D01*
X017405Y006490D01*
X017096Y006799D01*
X017311Y006584D02*
X017401Y006584D01*
X017307Y006678D02*
X017217Y006678D01*
X017213Y006772D02*
X017123Y006772D01*
X017000Y006702D02*
X016955Y006657D01*
X017000Y006702D02*
X017309Y006393D01*
X017264Y006348D01*
X016955Y006657D01*
X017170Y006442D02*
X017260Y006442D01*
X017166Y006536D02*
X017076Y006536D01*
X017072Y006630D02*
X016982Y006630D01*
D11*
X011612Y006567D02*
X011612Y006437D01*
X011126Y006437D01*
X011126Y006567D01*
X011612Y006567D01*
X011612Y006523D02*
X011126Y006523D01*
X011612Y006252D02*
X011612Y006122D01*
X011126Y006122D01*
X011126Y006252D01*
X011612Y006252D01*
X011612Y006208D02*
X011126Y006208D01*
X011612Y005937D02*
X011612Y005807D01*
X011126Y005807D01*
X011126Y005937D01*
X011612Y005937D01*
X011612Y005893D02*
X011126Y005893D01*
X011612Y005622D02*
X011612Y005492D01*
X011126Y005492D01*
X011126Y005622D01*
X011612Y005622D01*
X011612Y005578D02*
X011126Y005578D01*
X011612Y005308D02*
X011612Y005178D01*
X011126Y005178D01*
X011126Y005308D01*
X011612Y005308D01*
X011612Y005264D02*
X011126Y005264D01*
X011612Y004993D02*
X011612Y004863D01*
X011126Y004863D01*
X011126Y004993D01*
X011612Y004993D01*
X011612Y004949D02*
X011126Y004949D01*
X011612Y004678D02*
X011612Y004548D01*
X011126Y004548D01*
X011126Y004678D01*
X011612Y004678D01*
X011612Y004634D02*
X011126Y004634D01*
X011612Y004363D02*
X011612Y004233D01*
X011126Y004233D01*
X011126Y004363D01*
X011612Y004363D01*
X011612Y004319D02*
X011126Y004319D01*
X010767Y003874D02*
X010637Y003874D01*
X010767Y003874D02*
X010767Y003388D01*
X010637Y003388D01*
X010637Y003874D01*
X010637Y003474D02*
X010767Y003474D01*
X010767Y003560D02*
X010637Y003560D01*
X010637Y003646D02*
X010767Y003646D01*
X010767Y003732D02*
X010637Y003732D01*
X010637Y003818D02*
X010767Y003818D01*
X010452Y003874D02*
X010322Y003874D01*
X010452Y003874D02*
X010452Y003388D01*
X010322Y003388D01*
X010322Y003874D01*
X010322Y003474D02*
X010452Y003474D01*
X010452Y003560D02*
X010322Y003560D01*
X010322Y003646D02*
X010452Y003646D01*
X010452Y003732D02*
X010322Y003732D01*
X010322Y003818D02*
X010452Y003818D01*
X010137Y003874D02*
X010007Y003874D01*
X010137Y003874D02*
X010137Y003388D01*
X010007Y003388D01*
X010007Y003874D01*
X010007Y003474D02*
X010137Y003474D01*
X010137Y003560D02*
X010007Y003560D01*
X010007Y003646D02*
X010137Y003646D01*
X010137Y003732D02*
X010007Y003732D01*
X010007Y003818D02*
X010137Y003818D01*
X009822Y003874D02*
X009692Y003874D01*
X009822Y003874D02*
X009822Y003388D01*
X009692Y003388D01*
X009692Y003874D01*
X009692Y003474D02*
X009822Y003474D01*
X009822Y003560D02*
X009692Y003560D01*
X009692Y003646D02*
X009822Y003646D01*
X009822Y003732D02*
X009692Y003732D01*
X009692Y003818D02*
X009822Y003818D01*
X009508Y003874D02*
X009378Y003874D01*
X009508Y003874D02*
X009508Y003388D01*
X009378Y003388D01*
X009378Y003874D01*
X009378Y003474D02*
X009508Y003474D01*
X009508Y003560D02*
X009378Y003560D01*
X009378Y003646D02*
X009508Y003646D01*
X009508Y003732D02*
X009378Y003732D01*
X009378Y003818D02*
X009508Y003818D01*
X009193Y003874D02*
X009063Y003874D01*
X009193Y003874D02*
X009193Y003388D01*
X009063Y003388D01*
X009063Y003874D01*
X009063Y003474D02*
X009193Y003474D01*
X009193Y003560D02*
X009063Y003560D01*
X009063Y003646D02*
X009193Y003646D01*
X009193Y003732D02*
X009063Y003732D01*
X009063Y003818D02*
X009193Y003818D01*
X008878Y003874D02*
X008748Y003874D01*
X008878Y003874D02*
X008878Y003388D01*
X008748Y003388D01*
X008748Y003874D01*
X008748Y003474D02*
X008878Y003474D01*
X008878Y003560D02*
X008748Y003560D01*
X008748Y003646D02*
X008878Y003646D01*
X008878Y003732D02*
X008748Y003732D01*
X008748Y003818D02*
X008878Y003818D01*
X008563Y003874D02*
X008433Y003874D01*
X008563Y003874D02*
X008563Y003388D01*
X008433Y003388D01*
X008433Y003874D01*
X008433Y003474D02*
X008563Y003474D01*
X008563Y003560D02*
X008433Y003560D01*
X008433Y003646D02*
X008563Y003646D01*
X008563Y003732D02*
X008433Y003732D01*
X008433Y003818D02*
X008563Y003818D01*
X008074Y004233D02*
X008074Y004363D01*
X008074Y004233D02*
X007588Y004233D01*
X007588Y004363D01*
X008074Y004363D01*
X008074Y004319D02*
X007588Y004319D01*
X008074Y004548D02*
X008074Y004678D01*
X008074Y004548D02*
X007588Y004548D01*
X007588Y004678D01*
X008074Y004678D01*
X008074Y004634D02*
X007588Y004634D01*
X008074Y004863D02*
X008074Y004993D01*
X008074Y004863D02*
X007588Y004863D01*
X007588Y004993D01*
X008074Y004993D01*
X008074Y004949D02*
X007588Y004949D01*
X008074Y005178D02*
X008074Y005308D01*
X008074Y005178D02*
X007588Y005178D01*
X007588Y005308D01*
X008074Y005308D01*
X008074Y005264D02*
X007588Y005264D01*
X008074Y005492D02*
X008074Y005622D01*
X008074Y005492D02*
X007588Y005492D01*
X007588Y005622D01*
X008074Y005622D01*
X008074Y005578D02*
X007588Y005578D01*
X008074Y005807D02*
X008074Y005937D01*
X008074Y005807D02*
X007588Y005807D01*
X007588Y005937D01*
X008074Y005937D01*
X008074Y005893D02*
X007588Y005893D01*
X008074Y006122D02*
X008074Y006252D01*
X008074Y006122D02*
X007588Y006122D01*
X007588Y006252D01*
X008074Y006252D01*
X008074Y006208D02*
X007588Y006208D01*
X008074Y006437D02*
X008074Y006567D01*
X008074Y006437D02*
X007588Y006437D01*
X007588Y006567D01*
X008074Y006567D01*
X008074Y006523D02*
X007588Y006523D01*
X008433Y007412D02*
X008563Y007412D01*
X008563Y006926D01*
X008433Y006926D01*
X008433Y007412D01*
X008433Y007012D02*
X008563Y007012D01*
X008563Y007098D02*
X008433Y007098D01*
X008433Y007184D02*
X008563Y007184D01*
X008563Y007270D02*
X008433Y007270D01*
X008433Y007356D02*
X008563Y007356D01*
X008748Y007412D02*
X008878Y007412D01*
X008878Y006926D01*
X008748Y006926D01*
X008748Y007412D01*
X008748Y007012D02*
X008878Y007012D01*
X008878Y007098D02*
X008748Y007098D01*
X008748Y007184D02*
X008878Y007184D01*
X008878Y007270D02*
X008748Y007270D01*
X008748Y007356D02*
X008878Y007356D01*
X009063Y007412D02*
X009193Y007412D01*
X009193Y006926D01*
X009063Y006926D01*
X009063Y007412D01*
X009063Y007012D02*
X009193Y007012D01*
X009193Y007098D02*
X009063Y007098D01*
X009063Y007184D02*
X009193Y007184D01*
X009193Y007270D02*
X009063Y007270D01*
X009063Y007356D02*
X009193Y007356D01*
X009378Y007412D02*
X009508Y007412D01*
X009508Y006926D01*
X009378Y006926D01*
X009378Y007412D01*
X009378Y007012D02*
X009508Y007012D01*
X009508Y007098D02*
X009378Y007098D01*
X009378Y007184D02*
X009508Y007184D01*
X009508Y007270D02*
X009378Y007270D01*
X009378Y007356D02*
X009508Y007356D01*
X009692Y007412D02*
X009822Y007412D01*
X009822Y006926D01*
X009692Y006926D01*
X009692Y007412D01*
X009692Y007012D02*
X009822Y007012D01*
X009822Y007098D02*
X009692Y007098D01*
X009692Y007184D02*
X009822Y007184D01*
X009822Y007270D02*
X009692Y007270D01*
X009692Y007356D02*
X009822Y007356D01*
X010007Y007412D02*
X010137Y007412D01*
X010137Y006926D01*
X010007Y006926D01*
X010007Y007412D01*
X010007Y007012D02*
X010137Y007012D01*
X010137Y007098D02*
X010007Y007098D01*
X010007Y007184D02*
X010137Y007184D01*
X010137Y007270D02*
X010007Y007270D01*
X010007Y007356D02*
X010137Y007356D01*
X010322Y007412D02*
X010452Y007412D01*
X010452Y006926D01*
X010322Y006926D01*
X010322Y007412D01*
X010322Y007012D02*
X010452Y007012D01*
X010452Y007098D02*
X010322Y007098D01*
X010322Y007184D02*
X010452Y007184D01*
X010452Y007270D02*
X010322Y007270D01*
X010322Y007356D02*
X010452Y007356D01*
X010637Y007412D02*
X010767Y007412D01*
X010767Y006926D01*
X010637Y006926D01*
X010637Y007412D01*
X010637Y007012D02*
X010767Y007012D01*
X010767Y007098D02*
X010637Y007098D01*
X010637Y007184D02*
X010767Y007184D01*
X010767Y007270D02*
X010637Y007270D01*
X010637Y007356D02*
X010767Y007356D01*
D12*
X013625Y003425D03*
X015525Y003425D03*
D13*
X016075Y005405D03*
X016075Y005945D03*
D14*
X016179Y006471D02*
X016179Y006779D01*
X016179Y006471D02*
X015871Y006471D01*
X015871Y006779D01*
X016179Y006779D01*
X016179Y006573D02*
X015871Y006573D01*
X015871Y006675D02*
X016179Y006675D01*
X016179Y006777D02*
X015871Y006777D01*
X015171Y006779D02*
X015171Y006471D01*
X015171Y006779D02*
X015479Y006779D01*
X015479Y006471D01*
X015171Y006471D01*
X015171Y006573D02*
X015479Y006573D01*
X015479Y006675D02*
X015171Y006675D01*
X015171Y006777D02*
X015479Y006777D01*
X014779Y006779D02*
X014779Y006471D01*
X014471Y006471D01*
X014471Y006779D01*
X014779Y006779D01*
X014779Y006573D02*
X014471Y006573D01*
X014471Y006675D02*
X014779Y006675D01*
X014779Y006777D02*
X014471Y006777D01*
X014779Y007071D02*
X014779Y007379D01*
X014779Y007071D02*
X014471Y007071D01*
X014471Y007379D01*
X014779Y007379D01*
X014779Y007173D02*
X014471Y007173D01*
X014471Y007275D02*
X014779Y007275D01*
X014779Y007377D02*
X014471Y007377D01*
X015171Y007379D02*
X015171Y007071D01*
X015171Y007379D02*
X015479Y007379D01*
X015479Y007071D01*
X015171Y007071D01*
X015171Y007173D02*
X015479Y007173D01*
X015479Y007275D02*
X015171Y007275D01*
X015171Y007377D02*
X015479Y007377D01*
X016179Y007379D02*
X016179Y007071D01*
X015871Y007071D01*
X015871Y007379D01*
X016179Y007379D01*
X016179Y007173D02*
X015871Y007173D01*
X015871Y007275D02*
X016179Y007275D01*
X016179Y007377D02*
X015871Y007377D01*
X012871Y007379D02*
X012871Y007071D01*
X012871Y007379D02*
X013179Y007379D01*
X013179Y007071D01*
X012871Y007071D01*
X012871Y007173D02*
X013179Y007173D01*
X013179Y007275D02*
X012871Y007275D01*
X012871Y007377D02*
X013179Y007377D01*
X012479Y007379D02*
X012479Y007071D01*
X012171Y007071D01*
X012171Y007379D01*
X012479Y007379D01*
X012479Y007173D02*
X012171Y007173D01*
X012171Y007275D02*
X012479Y007275D01*
X012479Y007377D02*
X012171Y007377D01*
X012479Y006779D02*
X012479Y006471D01*
X012171Y006471D01*
X012171Y006779D01*
X012479Y006779D01*
X012479Y006573D02*
X012171Y006573D01*
X012171Y006675D02*
X012479Y006675D01*
X012479Y006777D02*
X012171Y006777D01*
X012871Y006779D02*
X012871Y006471D01*
X012871Y006779D02*
X013179Y006779D01*
X013179Y006471D01*
X012871Y006471D01*
X012871Y006573D02*
X013179Y006573D01*
X013179Y006675D02*
X012871Y006675D01*
X012871Y006777D02*
X013179Y006777D01*
X013321Y004621D02*
X013629Y004621D01*
X013321Y004621D02*
X013321Y004929D01*
X013629Y004929D01*
X013629Y004621D01*
X013629Y004723D02*
X013321Y004723D01*
X013321Y004825D02*
X013629Y004825D01*
X013629Y004927D02*
X013321Y004927D01*
X013921Y004621D02*
X014229Y004621D01*
X013921Y004621D02*
X013921Y004929D01*
X014229Y004929D01*
X014229Y004621D01*
X014229Y004723D02*
X013921Y004723D01*
X013921Y004825D02*
X014229Y004825D01*
X014229Y004927D02*
X013921Y004927D01*
X014571Y004929D02*
X014879Y004929D01*
X014879Y004621D01*
X014571Y004621D01*
X014571Y004929D01*
X014571Y004723D02*
X014879Y004723D01*
X014879Y004825D02*
X014571Y004825D01*
X014571Y004927D02*
X014879Y004927D01*
X015171Y004929D02*
X015479Y004929D01*
X015479Y004621D01*
X015171Y004621D01*
X015171Y004929D01*
X015171Y004723D02*
X015479Y004723D01*
X015479Y004825D02*
X015171Y004825D01*
X015171Y004927D02*
X015479Y004927D01*
X017121Y002821D02*
X017429Y002821D01*
X017121Y002821D02*
X017121Y003129D01*
X017429Y003129D01*
X017429Y002821D01*
X017429Y002923D02*
X017121Y002923D01*
X017121Y003025D02*
X017429Y003025D01*
X017429Y003127D02*
X017121Y003127D01*
X017721Y002821D02*
X018029Y002821D01*
X017721Y002821D02*
X017721Y003129D01*
X018029Y003129D01*
X018029Y002821D01*
X018029Y002923D02*
X017721Y002923D01*
X017721Y003025D02*
X018029Y003025D01*
X018029Y003127D02*
X017721Y003127D01*
X022871Y003521D02*
X023179Y003521D01*
X022871Y003521D02*
X022871Y003829D01*
X023179Y003829D01*
X023179Y003521D01*
X023179Y003623D02*
X022871Y003623D01*
X022871Y003725D02*
X023179Y003725D01*
X023179Y003827D02*
X022871Y003827D01*
X023471Y003521D02*
X023779Y003521D01*
X023471Y003521D02*
X023471Y003829D01*
X023779Y003829D01*
X023779Y003521D01*
X023779Y003623D02*
X023471Y003623D01*
X023471Y003725D02*
X023779Y003725D01*
X023779Y003827D02*
X023471Y003827D01*
X023521Y005521D02*
X023829Y005521D01*
X023521Y005521D02*
X023521Y005829D01*
X023829Y005829D01*
X023829Y005521D01*
X023829Y005623D02*
X023521Y005623D01*
X023521Y005725D02*
X023829Y005725D01*
X023829Y005827D02*
X023521Y005827D01*
X023229Y005521D02*
X022921Y005521D01*
X022921Y005829D01*
X023229Y005829D01*
X023229Y005521D01*
X023229Y005623D02*
X022921Y005623D01*
X022921Y005725D02*
X023229Y005725D01*
X023229Y005827D02*
X022921Y005827D01*
X024571Y008446D02*
X024879Y008446D01*
X024571Y008446D02*
X024571Y008904D01*
X024879Y008904D01*
X024879Y008446D01*
X024879Y008548D02*
X024571Y008548D01*
X024571Y008650D02*
X024879Y008650D01*
X024879Y008752D02*
X024571Y008752D01*
X024571Y008854D02*
X024879Y008854D01*
X025271Y008446D02*
X025579Y008446D01*
X025271Y008446D02*
X025271Y008904D01*
X025579Y008904D01*
X025579Y008446D01*
X025579Y008548D02*
X025271Y008548D01*
X025271Y008650D02*
X025579Y008650D01*
X025579Y008752D02*
X025271Y008752D01*
X025271Y008854D02*
X025579Y008854D01*
X026071Y008829D02*
X026379Y008829D01*
X026379Y008521D01*
X026071Y008521D01*
X026071Y008829D01*
X026071Y008623D02*
X026379Y008623D01*
X026379Y008725D02*
X026071Y008725D01*
X026071Y008827D02*
X026379Y008827D01*
X026671Y008829D02*
X026979Y008829D01*
X026979Y008521D01*
X026671Y008521D01*
X026671Y008829D01*
X026671Y008623D02*
X026979Y008623D01*
X026979Y008725D02*
X026671Y008725D01*
X026671Y008827D02*
X026979Y008827D01*
X010229Y002771D02*
X009921Y002771D01*
X009921Y003079D01*
X010229Y003079D01*
X010229Y002771D01*
X010229Y002873D02*
X009921Y002873D01*
X009921Y002975D02*
X010229Y002975D01*
X010229Y003077D02*
X009921Y003077D01*
X009629Y002771D02*
X009321Y002771D01*
X009321Y003079D01*
X009629Y003079D01*
X009629Y002771D01*
X009629Y002873D02*
X009321Y002873D01*
X009321Y002975D02*
X009629Y002975D01*
X009629Y003077D02*
X009321Y003077D01*
X007079Y007021D02*
X006771Y007021D01*
X006771Y007329D01*
X007079Y007329D01*
X007079Y007021D01*
X007079Y007123D02*
X006771Y007123D01*
X006771Y007225D02*
X007079Y007225D01*
X007079Y007327D02*
X006771Y007327D01*
X006479Y007021D02*
X006171Y007021D01*
X006171Y007329D01*
X006479Y007329D01*
X006479Y007021D01*
X006479Y007123D02*
X006171Y007123D01*
X006171Y007225D02*
X006479Y007225D01*
X006479Y007327D02*
X006171Y007327D01*
X006171Y007771D02*
X006479Y007771D01*
X006171Y007771D02*
X006171Y008079D01*
X006479Y008079D01*
X006479Y007771D01*
X006479Y007873D02*
X006171Y007873D01*
X006171Y007975D02*
X006479Y007975D01*
X006479Y008077D02*
X006171Y008077D01*
X006771Y007771D02*
X007079Y007771D01*
X006771Y007771D02*
X006771Y008079D01*
X007079Y008079D01*
X007079Y007771D01*
X007079Y007873D02*
X006771Y007873D01*
X006771Y007975D02*
X007079Y007975D01*
X007079Y008077D02*
X006771Y008077D01*
X008079Y008129D02*
X008079Y007821D01*
X007771Y007821D01*
X007771Y008129D01*
X008079Y008129D01*
X008079Y007923D02*
X007771Y007923D01*
X007771Y008025D02*
X008079Y008025D01*
X008079Y008127D02*
X007771Y008127D01*
X008079Y007529D02*
X008079Y007221D01*
X007771Y007221D01*
X007771Y007529D01*
X008079Y007529D01*
X008079Y007323D02*
X007771Y007323D01*
X007771Y007425D02*
X008079Y007425D01*
X008079Y007527D02*
X007771Y007527D01*
D15*
X006027Y006323D02*
X006027Y005977D01*
X006027Y006323D02*
X006523Y006323D01*
X006523Y005977D01*
X006027Y005977D01*
X006027Y006091D02*
X006523Y006091D01*
X006523Y006205D02*
X006027Y006205D01*
X006027Y006319D02*
X006523Y006319D01*
X006027Y005523D02*
X006027Y005177D01*
X006027Y005523D02*
X006523Y005523D01*
X006523Y005177D01*
X006027Y005177D01*
X006027Y005291D02*
X006523Y005291D01*
X006523Y005405D02*
X006027Y005405D01*
X006027Y005519D02*
X006523Y005519D01*
X006398Y004123D02*
X006052Y004123D01*
X006398Y004123D02*
X006398Y003627D01*
X006052Y003627D01*
X006052Y004123D01*
X006052Y003741D02*
X006398Y003741D01*
X006398Y003855D02*
X006052Y003855D01*
X006052Y003969D02*
X006398Y003969D01*
X006398Y004083D02*
X006052Y004083D01*
X006852Y004123D02*
X007198Y004123D01*
X007198Y003627D01*
X006852Y003627D01*
X006852Y004123D01*
X006852Y003741D02*
X007198Y003741D01*
X007198Y003855D02*
X006852Y003855D01*
X006852Y003969D02*
X007198Y003969D01*
X007198Y004083D02*
X006852Y004083D01*
X013577Y006602D02*
X013577Y006948D01*
X014073Y006948D01*
X014073Y006602D01*
X013577Y006602D01*
X013577Y006716D02*
X014073Y006716D01*
X014073Y006830D02*
X013577Y006830D01*
X013577Y006944D02*
X014073Y006944D01*
X013577Y007402D02*
X013577Y007748D01*
X014073Y007748D01*
X014073Y007402D01*
X013577Y007402D01*
X013577Y007516D02*
X014073Y007516D01*
X014073Y007630D02*
X013577Y007630D01*
X013577Y007744D02*
X014073Y007744D01*
X002423Y008902D02*
X002423Y009248D01*
X002423Y008902D02*
X001927Y008902D01*
X001927Y009248D01*
X002423Y009248D01*
X002423Y009016D02*
X001927Y009016D01*
X001927Y009130D02*
X002423Y009130D01*
X002423Y009244D02*
X001927Y009244D01*
X002423Y009602D02*
X002423Y009948D01*
X002423Y009602D02*
X001927Y009602D01*
X001927Y009948D01*
X002423Y009948D01*
X002423Y009716D02*
X001927Y009716D01*
X001927Y009830D02*
X002423Y009830D01*
X002423Y009944D02*
X001927Y009944D01*
D16*
X004766Y006305D03*
X004766Y005990D03*
X004766Y005675D03*
X004766Y005360D03*
X004766Y005045D03*
D17*
X002721Y003903D03*
X002721Y007447D03*
D18*
X004808Y007447D03*
X004808Y003903D03*
D19*
X003656Y004809D03*
X003656Y006541D03*
D20*
X002075Y001425D03*
X003075Y001425D03*
X004075Y001425D03*
X005075Y001425D03*
X006075Y001425D03*
X007075Y001425D03*
X008075Y001425D03*
X009075Y001425D03*
X010075Y001425D03*
X011075Y001425D03*
X012075Y001425D03*
X013075Y001425D03*
X014075Y001425D03*
X015075Y001425D03*
X016075Y001425D03*
X017075Y001425D03*
X018075Y001425D03*
X019075Y001425D03*
X020075Y001425D03*
X021075Y001425D03*
X022075Y001425D03*
X023075Y001425D03*
X024075Y001425D03*
X025075Y001425D03*
X026075Y001425D03*
X027075Y001425D03*
X028075Y001425D03*
X029075Y001425D03*
X029075Y003925D03*
X029075Y004925D03*
X029075Y005925D03*
X029075Y006925D03*
X029075Y007925D03*
X029075Y010425D03*
X028075Y010425D03*
X027075Y010425D03*
X026075Y010425D03*
X025075Y010425D03*
X024075Y010425D03*
X023075Y010425D03*
X022075Y010425D03*
X021075Y010425D03*
X020075Y010425D03*
X019075Y010425D03*
X018075Y010425D03*
X017075Y010425D03*
X016075Y010425D03*
X015075Y010425D03*
X014075Y010425D03*
X013075Y010425D03*
X012075Y010425D03*
X011075Y010425D03*
X010075Y010425D03*
X009075Y010425D03*
X008075Y010425D03*
X007075Y010425D03*
X006075Y010425D03*
X005075Y010425D03*
X004075Y010425D03*
X003075Y010425D03*
D21*
X024675Y003575D03*
X025475Y003225D03*
X025475Y003925D03*
D22*
X025965Y004645D03*
X024185Y004645D03*
X026689Y005925D03*
X025965Y007205D03*
X024185Y007205D03*
D23*
X004375Y008425D03*
X003775Y008425D03*
D24*
X004075Y008425D03*
M02*
