G75*
%MOIN*%
%OFA0B0*%
%FSLAX24Y24*%
%IPPOS*%
%LPD*%
%AMOC8*
5,1,8,0,0,1.08239X$1,22.5*
%
%ADD10R,0.0110X0.0580*%
%ADD11R,0.0220X0.0500*%
%ADD12R,0.0500X0.0220*%
%ADD13C,0.0480*%
%ADD14C,0.0390*%
%ADD15C,0.0088*%
%ADD16C,0.0100*%
%ADD17R,0.0866X0.0984*%
%ADD18R,0.0787X0.0197*%
%ADD19C,0.0585*%
%ADD20R,0.0450X0.0400*%
%ADD21C,0.0740*%
%ADD22R,0.0460X0.0630*%
%ADD23C,0.0050*%
%ADD24C,0.0180*%
%ADD25C,0.0080*%
%ADD26C,0.0120*%
D10*
G36*
X017353Y005624D02*
X017430Y005547D01*
X017021Y005138D01*
X016944Y005215D01*
X017353Y005624D01*
G37*
G36*
X017495Y005482D02*
X017572Y005405D01*
X017163Y004996D01*
X017086Y005073D01*
X017495Y005482D01*
G37*
G36*
X017636Y005341D02*
X017713Y005264D01*
X017304Y004855D01*
X017227Y004932D01*
X017636Y005341D01*
G37*
G36*
X017771Y005206D02*
X017848Y005129D01*
X017439Y004720D01*
X017362Y004797D01*
X017771Y005206D01*
G37*
G36*
X017912Y005065D02*
X017989Y004988D01*
X017580Y004579D01*
X017503Y004656D01*
X017912Y005065D01*
G37*
G36*
X018054Y004923D02*
X018131Y004846D01*
X017722Y004437D01*
X017645Y004514D01*
X018054Y004923D01*
G37*
G36*
X018188Y004789D02*
X018265Y004712D01*
X017856Y004303D01*
X017779Y004380D01*
X018188Y004789D01*
G37*
G36*
X018329Y004648D02*
X018406Y004571D01*
X017997Y004162D01*
X017920Y004239D01*
X018329Y004648D01*
G37*
G36*
X018471Y004506D02*
X018548Y004429D01*
X018139Y004020D01*
X018062Y004097D01*
X018471Y004506D01*
G37*
G36*
X018612Y004365D02*
X018689Y004288D01*
X018280Y003879D01*
X018203Y003956D01*
X018612Y004365D01*
G37*
G36*
X018746Y004231D02*
X018823Y004154D01*
X018414Y003745D01*
X018337Y003822D01*
X018746Y004231D01*
G37*
G36*
X018888Y004089D02*
X018965Y004012D01*
X018556Y003603D01*
X018479Y003680D01*
X018888Y004089D01*
G37*
G36*
X019029Y003948D02*
X019106Y003871D01*
X018697Y003462D01*
X018620Y003539D01*
X019029Y003948D01*
G37*
G36*
X019164Y003813D02*
X019241Y003736D01*
X018832Y003327D01*
X018755Y003404D01*
X019164Y003813D01*
G37*
G36*
X019305Y003672D02*
X019382Y003595D01*
X018973Y003186D01*
X018896Y003263D01*
X019305Y003672D01*
G37*
G36*
X019447Y003530D02*
X019524Y003453D01*
X019115Y003044D01*
X019038Y003121D01*
X019447Y003530D01*
G37*
G36*
X020126Y003453D02*
X020203Y003530D01*
X020612Y003121D01*
X020535Y003044D01*
X020126Y003453D01*
G37*
G36*
X020268Y003595D02*
X020345Y003672D01*
X020754Y003263D01*
X020677Y003186D01*
X020268Y003595D01*
G37*
G36*
X020409Y003736D02*
X020486Y003813D01*
X020895Y003404D01*
X020818Y003327D01*
X020409Y003736D01*
G37*
G36*
X020544Y003871D02*
X020621Y003948D01*
X021030Y003539D01*
X020953Y003462D01*
X020544Y003871D01*
G37*
G36*
X020685Y004012D02*
X020762Y004089D01*
X021171Y003680D01*
X021094Y003603D01*
X020685Y004012D01*
G37*
G36*
X020827Y004154D02*
X020904Y004231D01*
X021313Y003822D01*
X021236Y003745D01*
X020827Y004154D01*
G37*
G36*
X020961Y004288D02*
X021038Y004365D01*
X021447Y003956D01*
X021370Y003879D01*
X020961Y004288D01*
G37*
G36*
X021102Y004429D02*
X021179Y004506D01*
X021588Y004097D01*
X021511Y004020D01*
X021102Y004429D01*
G37*
G36*
X021244Y004571D02*
X021321Y004648D01*
X021730Y004239D01*
X021653Y004162D01*
X021244Y004571D01*
G37*
G36*
X021385Y004712D02*
X021462Y004789D01*
X021871Y004380D01*
X021794Y004303D01*
X021385Y004712D01*
G37*
G36*
X021519Y004846D02*
X021596Y004923D01*
X022005Y004514D01*
X021928Y004437D01*
X021519Y004846D01*
G37*
G36*
X021661Y004988D02*
X021738Y005065D01*
X022147Y004656D01*
X022070Y004579D01*
X021661Y004988D01*
G37*
G36*
X021802Y005129D02*
X021879Y005206D01*
X022288Y004797D01*
X022211Y004720D01*
X021802Y005129D01*
G37*
G36*
X021937Y005264D02*
X022014Y005341D01*
X022423Y004932D01*
X022346Y004855D01*
X021937Y005264D01*
G37*
G36*
X022078Y005405D02*
X022155Y005482D01*
X022564Y005073D01*
X022487Y004996D01*
X022078Y005405D01*
G37*
G36*
X022220Y005547D02*
X022297Y005624D01*
X022706Y005215D01*
X022629Y005138D01*
X022220Y005547D01*
G37*
G36*
X022629Y006712D02*
X022706Y006635D01*
X022297Y006226D01*
X022220Y006303D01*
X022629Y006712D01*
G37*
G36*
X022487Y006854D02*
X022564Y006777D01*
X022155Y006368D01*
X022078Y006445D01*
X022487Y006854D01*
G37*
G36*
X022346Y006995D02*
X022423Y006918D01*
X022014Y006509D01*
X021937Y006586D01*
X022346Y006995D01*
G37*
G36*
X022211Y007130D02*
X022288Y007053D01*
X021879Y006644D01*
X021802Y006721D01*
X022211Y007130D01*
G37*
G36*
X022070Y007271D02*
X022147Y007194D01*
X021738Y006785D01*
X021661Y006862D01*
X022070Y007271D01*
G37*
G36*
X021928Y007413D02*
X022005Y007336D01*
X021596Y006927D01*
X021519Y007004D01*
X021928Y007413D01*
G37*
G36*
X021794Y007547D02*
X021871Y007470D01*
X021462Y007061D01*
X021385Y007138D01*
X021794Y007547D01*
G37*
G36*
X021653Y007688D02*
X021730Y007611D01*
X021321Y007202D01*
X021244Y007279D01*
X021653Y007688D01*
G37*
G36*
X021511Y007830D02*
X021588Y007753D01*
X021179Y007344D01*
X021102Y007421D01*
X021511Y007830D01*
G37*
G36*
X021370Y007971D02*
X021447Y007894D01*
X021038Y007485D01*
X020961Y007562D01*
X021370Y007971D01*
G37*
G36*
X021236Y008105D02*
X021313Y008028D01*
X020904Y007619D01*
X020827Y007696D01*
X021236Y008105D01*
G37*
G36*
X021094Y008247D02*
X021171Y008170D01*
X020762Y007761D01*
X020685Y007838D01*
X021094Y008247D01*
G37*
G36*
X020953Y008388D02*
X021030Y008311D01*
X020621Y007902D01*
X020544Y007979D01*
X020953Y008388D01*
G37*
G36*
X020818Y008523D02*
X020895Y008446D01*
X020486Y008037D01*
X020409Y008114D01*
X020818Y008523D01*
G37*
G36*
X020677Y008664D02*
X020754Y008587D01*
X020345Y008178D01*
X020268Y008255D01*
X020677Y008664D01*
G37*
G36*
X020535Y008806D02*
X020612Y008729D01*
X020203Y008320D01*
X020126Y008397D01*
X020535Y008806D01*
G37*
G36*
X019038Y008729D02*
X019115Y008806D01*
X019524Y008397D01*
X019447Y008320D01*
X019038Y008729D01*
G37*
G36*
X018896Y008587D02*
X018973Y008664D01*
X019382Y008255D01*
X019305Y008178D01*
X018896Y008587D01*
G37*
G36*
X018755Y008446D02*
X018832Y008523D01*
X019241Y008114D01*
X019164Y008037D01*
X018755Y008446D01*
G37*
G36*
X018620Y008311D02*
X018697Y008388D01*
X019106Y007979D01*
X019029Y007902D01*
X018620Y008311D01*
G37*
G36*
X018479Y008170D02*
X018556Y008247D01*
X018965Y007838D01*
X018888Y007761D01*
X018479Y008170D01*
G37*
G36*
X018337Y008028D02*
X018414Y008105D01*
X018823Y007696D01*
X018746Y007619D01*
X018337Y008028D01*
G37*
G36*
X018203Y007894D02*
X018280Y007971D01*
X018689Y007562D01*
X018612Y007485D01*
X018203Y007894D01*
G37*
G36*
X018062Y007753D02*
X018139Y007830D01*
X018548Y007421D01*
X018471Y007344D01*
X018062Y007753D01*
G37*
G36*
X017920Y007611D02*
X017997Y007688D01*
X018406Y007279D01*
X018329Y007202D01*
X017920Y007611D01*
G37*
G36*
X017779Y007470D02*
X017856Y007547D01*
X018265Y007138D01*
X018188Y007061D01*
X017779Y007470D01*
G37*
G36*
X017645Y007336D02*
X017722Y007413D01*
X018131Y007004D01*
X018054Y006927D01*
X017645Y007336D01*
G37*
G36*
X017503Y007194D02*
X017580Y007271D01*
X017989Y006862D01*
X017912Y006785D01*
X017503Y007194D01*
G37*
G36*
X017362Y007053D02*
X017439Y007130D01*
X017848Y006721D01*
X017771Y006644D01*
X017362Y007053D01*
G37*
G36*
X017227Y006918D02*
X017304Y006995D01*
X017713Y006586D01*
X017636Y006509D01*
X017227Y006918D01*
G37*
G36*
X017086Y006777D02*
X017163Y006854D01*
X017572Y006445D01*
X017495Y006368D01*
X017086Y006777D01*
G37*
G36*
X016944Y006635D02*
X017021Y006712D01*
X017430Y006303D01*
X017353Y006226D01*
X016944Y006635D01*
G37*
D11*
X010702Y007090D03*
X010387Y007090D03*
X010072Y007090D03*
X009757Y007090D03*
X009443Y007090D03*
X009128Y007090D03*
X008813Y007090D03*
X008498Y007090D03*
X008498Y003710D03*
X008813Y003710D03*
X009128Y003710D03*
X009443Y003710D03*
X009757Y003710D03*
X010072Y003710D03*
X010387Y003710D03*
X010702Y003710D03*
D12*
X011290Y004298D03*
X011290Y004613D03*
X011290Y004928D03*
X011290Y005243D03*
X011290Y005557D03*
X011290Y005872D03*
X011290Y006187D03*
X011290Y006502D03*
X007910Y006502D03*
X007910Y006187D03*
X007910Y005872D03*
X007910Y005557D03*
X007910Y005243D03*
X007910Y004928D03*
X007910Y004613D03*
X007910Y004298D03*
D13*
X013625Y003425D03*
X015525Y003425D03*
D14*
X016075Y005375D03*
X016075Y005975D03*
D15*
X016156Y006494D02*
X016156Y006756D01*
X016156Y006494D02*
X015894Y006494D01*
X015894Y006756D01*
X016156Y006756D01*
X016156Y006581D02*
X015894Y006581D01*
X015894Y006668D02*
X016156Y006668D01*
X016156Y006755D02*
X015894Y006755D01*
X015194Y006756D02*
X015194Y006494D01*
X015194Y006756D02*
X015456Y006756D01*
X015456Y006494D01*
X015194Y006494D01*
X015194Y006581D02*
X015456Y006581D01*
X015456Y006668D02*
X015194Y006668D01*
X015194Y006755D02*
X015456Y006755D01*
X014756Y006756D02*
X014756Y006494D01*
X014494Y006494D01*
X014494Y006756D01*
X014756Y006756D01*
X014756Y006581D02*
X014494Y006581D01*
X014494Y006668D02*
X014756Y006668D01*
X014756Y006755D02*
X014494Y006755D01*
X014756Y007094D02*
X014756Y007356D01*
X014756Y007094D02*
X014494Y007094D01*
X014494Y007356D01*
X014756Y007356D01*
X014756Y007181D02*
X014494Y007181D01*
X014494Y007268D02*
X014756Y007268D01*
X014756Y007355D02*
X014494Y007355D01*
X015194Y007356D02*
X015194Y007094D01*
X015194Y007356D02*
X015456Y007356D01*
X015456Y007094D01*
X015194Y007094D01*
X015194Y007181D02*
X015456Y007181D01*
X015456Y007268D02*
X015194Y007268D01*
X015194Y007355D02*
X015456Y007355D01*
X016156Y007356D02*
X016156Y007094D01*
X015894Y007094D01*
X015894Y007356D01*
X016156Y007356D01*
X016156Y007181D02*
X015894Y007181D01*
X015894Y007268D02*
X016156Y007268D01*
X016156Y007355D02*
X015894Y007355D01*
X012894Y007356D02*
X012894Y007094D01*
X012894Y007356D02*
X013156Y007356D01*
X013156Y007094D01*
X012894Y007094D01*
X012894Y007181D02*
X013156Y007181D01*
X013156Y007268D02*
X012894Y007268D01*
X012894Y007355D02*
X013156Y007355D01*
X012456Y007356D02*
X012456Y007094D01*
X012194Y007094D01*
X012194Y007356D01*
X012456Y007356D01*
X012456Y007181D02*
X012194Y007181D01*
X012194Y007268D02*
X012456Y007268D01*
X012456Y007355D02*
X012194Y007355D01*
X012456Y006756D02*
X012456Y006494D01*
X012194Y006494D01*
X012194Y006756D01*
X012456Y006756D01*
X012456Y006581D02*
X012194Y006581D01*
X012194Y006668D02*
X012456Y006668D01*
X012456Y006755D02*
X012194Y006755D01*
X012894Y006756D02*
X012894Y006494D01*
X012894Y006756D02*
X013156Y006756D01*
X013156Y006494D01*
X012894Y006494D01*
X012894Y006581D02*
X013156Y006581D01*
X013156Y006668D02*
X012894Y006668D01*
X012894Y006755D02*
X013156Y006755D01*
X013344Y004644D02*
X013606Y004644D01*
X013344Y004644D02*
X013344Y004906D01*
X013606Y004906D01*
X013606Y004644D01*
X013606Y004731D02*
X013344Y004731D01*
X013344Y004818D02*
X013606Y004818D01*
X013606Y004905D02*
X013344Y004905D01*
X013944Y004644D02*
X014206Y004644D01*
X013944Y004644D02*
X013944Y004906D01*
X014206Y004906D01*
X014206Y004644D01*
X014206Y004731D02*
X013944Y004731D01*
X013944Y004818D02*
X014206Y004818D01*
X014206Y004905D02*
X013944Y004905D01*
X014594Y004906D02*
X014856Y004906D01*
X014856Y004644D01*
X014594Y004644D01*
X014594Y004906D01*
X014594Y004731D02*
X014856Y004731D01*
X014856Y004818D02*
X014594Y004818D01*
X014594Y004905D02*
X014856Y004905D01*
X015194Y004906D02*
X015456Y004906D01*
X015456Y004644D01*
X015194Y004644D01*
X015194Y004906D01*
X015194Y004731D02*
X015456Y004731D01*
X015456Y004818D02*
X015194Y004818D01*
X015194Y004905D02*
X015456Y004905D01*
X017144Y002844D02*
X017406Y002844D01*
X017144Y002844D02*
X017144Y003106D01*
X017406Y003106D01*
X017406Y002844D01*
X017406Y002931D02*
X017144Y002931D01*
X017144Y003018D02*
X017406Y003018D01*
X017406Y003105D02*
X017144Y003105D01*
X017744Y002844D02*
X018006Y002844D01*
X017744Y002844D02*
X017744Y003106D01*
X018006Y003106D01*
X018006Y002844D01*
X018006Y002931D02*
X017744Y002931D01*
X017744Y003018D02*
X018006Y003018D01*
X018006Y003105D02*
X017744Y003105D01*
X022894Y003544D02*
X023156Y003544D01*
X022894Y003544D02*
X022894Y003806D01*
X023156Y003806D01*
X023156Y003544D01*
X023156Y003631D02*
X022894Y003631D01*
X022894Y003718D02*
X023156Y003718D01*
X023156Y003805D02*
X022894Y003805D01*
X023494Y003544D02*
X023756Y003544D01*
X023494Y003544D02*
X023494Y003806D01*
X023756Y003806D01*
X023756Y003544D01*
X023756Y003631D02*
X023494Y003631D01*
X023494Y003718D02*
X023756Y003718D01*
X023756Y003805D02*
X023494Y003805D01*
X023594Y005544D02*
X023856Y005544D01*
X023594Y005544D02*
X023594Y005806D01*
X023856Y005806D01*
X023856Y005544D01*
X023856Y005631D02*
X023594Y005631D01*
X023594Y005718D02*
X023856Y005718D01*
X023856Y005805D02*
X023594Y005805D01*
X023256Y005544D02*
X022994Y005544D01*
X022994Y005806D01*
X023256Y005806D01*
X023256Y005544D01*
X023256Y005631D02*
X022994Y005631D01*
X022994Y005718D02*
X023256Y005718D01*
X023256Y005805D02*
X022994Y005805D01*
X024594Y008469D02*
X024856Y008469D01*
X024594Y008469D02*
X024594Y008881D01*
X024856Y008881D01*
X024856Y008469D01*
X024856Y008556D02*
X024594Y008556D01*
X024594Y008643D02*
X024856Y008643D01*
X024856Y008730D02*
X024594Y008730D01*
X024594Y008817D02*
X024856Y008817D01*
X025294Y008469D02*
X025556Y008469D01*
X025294Y008469D02*
X025294Y008881D01*
X025556Y008881D01*
X025556Y008469D01*
X025556Y008556D02*
X025294Y008556D01*
X025294Y008643D02*
X025556Y008643D01*
X025556Y008730D02*
X025294Y008730D01*
X025294Y008817D02*
X025556Y008817D01*
X026094Y008806D02*
X026356Y008806D01*
X026356Y008544D01*
X026094Y008544D01*
X026094Y008806D01*
X026094Y008631D02*
X026356Y008631D01*
X026356Y008718D02*
X026094Y008718D01*
X026094Y008805D02*
X026356Y008805D01*
X026694Y008806D02*
X026956Y008806D01*
X026956Y008544D01*
X026694Y008544D01*
X026694Y008806D01*
X026694Y008631D02*
X026956Y008631D01*
X026956Y008718D02*
X026694Y008718D01*
X026694Y008805D02*
X026956Y008805D01*
X010206Y002794D02*
X009944Y002794D01*
X009944Y003056D01*
X010206Y003056D01*
X010206Y002794D01*
X010206Y002881D02*
X009944Y002881D01*
X009944Y002968D02*
X010206Y002968D01*
X010206Y003055D02*
X009944Y003055D01*
X009606Y002794D02*
X009344Y002794D01*
X009344Y003056D01*
X009606Y003056D01*
X009606Y002794D01*
X009606Y002881D02*
X009344Y002881D01*
X009344Y002968D02*
X009606Y002968D01*
X009606Y003055D02*
X009344Y003055D01*
X007056Y007044D02*
X006794Y007044D01*
X006794Y007306D01*
X007056Y007306D01*
X007056Y007044D01*
X007056Y007131D02*
X006794Y007131D01*
X006794Y007218D02*
X007056Y007218D01*
X007056Y007305D02*
X006794Y007305D01*
X006456Y007044D02*
X006194Y007044D01*
X006194Y007306D01*
X006456Y007306D01*
X006456Y007044D01*
X006456Y007131D02*
X006194Y007131D01*
X006194Y007218D02*
X006456Y007218D01*
X006456Y007305D02*
X006194Y007305D01*
X006194Y007794D02*
X006456Y007794D01*
X006194Y007794D02*
X006194Y008056D01*
X006456Y008056D01*
X006456Y007794D01*
X006456Y007881D02*
X006194Y007881D01*
X006194Y007968D02*
X006456Y007968D01*
X006456Y008055D02*
X006194Y008055D01*
X006794Y007794D02*
X007056Y007794D01*
X006794Y007794D02*
X006794Y008056D01*
X007056Y008056D01*
X007056Y007794D01*
X007056Y007881D02*
X006794Y007881D01*
X006794Y007968D02*
X007056Y007968D01*
X007056Y008055D02*
X006794Y008055D01*
X008056Y008106D02*
X008056Y007844D01*
X007794Y007844D01*
X007794Y008106D01*
X008056Y008106D01*
X008056Y007931D02*
X007794Y007931D01*
X007794Y008018D02*
X008056Y008018D01*
X008056Y008105D02*
X007794Y008105D01*
X008056Y007506D02*
X008056Y007244D01*
X007794Y007244D01*
X007794Y007506D01*
X008056Y007506D01*
X008056Y007331D02*
X007794Y007331D01*
X007794Y007418D02*
X008056Y007418D01*
X008056Y007505D02*
X007794Y007505D01*
D16*
X006050Y006225D02*
X006050Y005925D01*
X006050Y006225D02*
X006500Y006225D01*
X006500Y005925D01*
X006050Y005925D01*
X006050Y006024D02*
X006500Y006024D01*
X006500Y006123D02*
X006050Y006123D01*
X006050Y006222D02*
X006500Y006222D01*
X006050Y005525D02*
X006050Y005225D01*
X006050Y005525D02*
X006500Y005525D01*
X006500Y005225D01*
X006050Y005225D01*
X006050Y005324D02*
X006500Y005324D01*
X006500Y005423D02*
X006050Y005423D01*
X006050Y005522D02*
X006500Y005522D01*
X006425Y004100D02*
X006125Y004100D01*
X006425Y004100D02*
X006425Y003650D01*
X006125Y003650D01*
X006125Y004100D01*
X006125Y003749D02*
X006425Y003749D01*
X006425Y003848D02*
X006125Y003848D01*
X006125Y003947D02*
X006425Y003947D01*
X006425Y004046D02*
X006125Y004046D01*
X006825Y004100D02*
X007125Y004100D01*
X007125Y003650D01*
X006825Y003650D01*
X006825Y004100D01*
X006825Y003749D02*
X007125Y003749D01*
X007125Y003848D02*
X006825Y003848D01*
X006825Y003947D02*
X007125Y003947D01*
X007125Y004046D02*
X006825Y004046D01*
X013600Y006575D02*
X013600Y006875D01*
X014050Y006875D01*
X014050Y006575D01*
X013600Y006575D01*
X013600Y006674D02*
X014050Y006674D01*
X014050Y006773D02*
X013600Y006773D01*
X013600Y006872D02*
X014050Y006872D01*
X013600Y007275D02*
X013600Y007575D01*
X014050Y007575D01*
X014050Y007275D01*
X013600Y007275D01*
X013600Y007374D02*
X014050Y007374D01*
X014050Y007473D02*
X013600Y007473D01*
X013600Y007572D02*
X014050Y007572D01*
X002450Y008925D02*
X002450Y009225D01*
X002450Y008925D02*
X002000Y008925D01*
X002000Y009225D01*
X002450Y009225D01*
X002450Y009024D02*
X002000Y009024D01*
X002000Y009123D02*
X002450Y009123D01*
X002450Y009222D02*
X002000Y009222D01*
X002450Y009625D02*
X002450Y009925D01*
X002450Y009625D02*
X002000Y009625D01*
X002000Y009925D01*
X002450Y009925D01*
X002450Y009724D02*
X002000Y009724D01*
X002000Y009823D02*
X002450Y009823D01*
X002450Y009922D02*
X002000Y009922D01*
D17*
X002526Y007329D03*
X004612Y007329D03*
X004612Y004021D03*
X002526Y004021D03*
D18*
X004711Y005045D03*
X004711Y005360D03*
X004711Y005675D03*
X004711Y005990D03*
X004711Y006305D03*
D19*
X002075Y001425D03*
X003075Y001425D03*
X004075Y001425D03*
X005075Y001425D03*
X006075Y001425D03*
X007075Y001425D03*
X008075Y001425D03*
X009075Y001425D03*
X010075Y001425D03*
X011075Y001425D03*
X012075Y001425D03*
X013075Y001425D03*
X014075Y001425D03*
X015075Y001425D03*
X016075Y001425D03*
X017075Y001425D03*
X018075Y001425D03*
X019075Y001425D03*
X020075Y001425D03*
X021075Y001425D03*
X022075Y001425D03*
X023075Y001425D03*
X024075Y001425D03*
X025075Y001425D03*
X026075Y001425D03*
X027075Y001425D03*
X028075Y001425D03*
X029075Y001425D03*
X029075Y003925D03*
X029075Y004925D03*
X029075Y005925D03*
X029075Y006925D03*
X029075Y007925D03*
X029075Y010425D03*
X028075Y010425D03*
X027075Y010425D03*
X026075Y010425D03*
X025075Y010425D03*
X024075Y010425D03*
X023075Y010425D03*
X022075Y010425D03*
X021075Y010425D03*
X020075Y010425D03*
X019075Y010425D03*
X018075Y010425D03*
X017075Y010425D03*
X016075Y010425D03*
X015075Y010425D03*
X014075Y010425D03*
X013075Y010425D03*
X012075Y010425D03*
X011075Y010425D03*
X010075Y010425D03*
X009075Y010425D03*
X008075Y010425D03*
X007075Y010425D03*
X006075Y010425D03*
X005075Y010425D03*
X004075Y010425D03*
X003075Y010425D03*
D20*
X024675Y003575D03*
X025475Y003225D03*
X025475Y003925D03*
D21*
X026265Y004695D03*
X024485Y004695D03*
X026989Y005975D03*
X026265Y007255D03*
X024485Y007255D03*
D22*
X004375Y008375D03*
X003775Y008375D03*
D23*
X006025Y007625D02*
X006325Y007925D01*
X006925Y007925D02*
X007275Y007925D01*
X007925Y007975D02*
X007975Y007975D01*
X008825Y007725D02*
X007475Y009075D01*
X007175Y009075D01*
X006425Y009075D01*
X005075Y010425D01*
X004125Y010375D02*
X004075Y010425D01*
X002225Y009875D02*
X002225Y009775D01*
X007075Y010425D02*
X007825Y009675D01*
X007825Y008925D01*
X008875Y007875D01*
X014175Y007875D01*
X014325Y007725D01*
X014325Y007475D01*
X014575Y007225D01*
X014625Y007225D01*
X015325Y007225D01*
X015575Y007475D01*
X016748Y007475D01*
X017470Y006752D01*
X017605Y006887D02*
X016716Y007775D01*
X015725Y007775D01*
X014975Y007775D01*
X013925Y007375D02*
X013825Y007425D01*
X013225Y007425D01*
X013025Y007225D01*
X012625Y006925D02*
X012325Y007225D01*
X012325Y007275D01*
X011875Y007725D01*
X008825Y007725D01*
X009075Y008075D02*
X017251Y008075D01*
X018022Y007304D01*
X018163Y007445D02*
X017334Y008275D01*
X008725Y008275D01*
X007325Y007625D02*
X006925Y007225D01*
X006925Y007175D01*
X006775Y006725D02*
X006325Y007175D01*
X006025Y006975D02*
X006025Y007625D01*
X006025Y006975D02*
X006675Y006325D01*
X006675Y005875D01*
X006575Y005775D01*
X005675Y005775D01*
X005460Y005990D01*
X004711Y005990D01*
X004185Y006075D02*
X004125Y006015D01*
X004125Y005475D01*
X004240Y005360D01*
X004711Y005360D01*
X004711Y005045D02*
X004612Y004947D01*
X004711Y005675D02*
X006675Y005675D01*
X006775Y005775D01*
X006775Y006725D01*
X007910Y006502D02*
X009002Y006502D01*
X009225Y006725D01*
X010875Y006725D01*
X011125Y006975D01*
X010925Y007125D02*
X010737Y007125D01*
X010702Y007090D01*
X010925Y007125D02*
X011025Y007225D01*
X011025Y007525D02*
X010975Y007575D01*
X010575Y007575D01*
X010387Y007387D01*
X010387Y007090D01*
X010752Y006502D02*
X010675Y006425D01*
X010725Y006475D01*
X010752Y006502D02*
X011290Y006502D01*
X011290Y006187D02*
X010837Y006187D01*
X010725Y006075D01*
X010775Y006125D01*
X012325Y006305D02*
X012325Y006625D01*
X012625Y006925D02*
X013625Y006925D01*
X013775Y006775D01*
X013825Y006725D01*
X013975Y006625D01*
X014225Y006375D01*
X014475Y006375D01*
X015075Y006375D01*
X015325Y006625D01*
X015625Y006925D01*
X015675Y006925D01*
X015725Y006925D01*
X016025Y007225D01*
X016432Y007225D01*
X016772Y006885D01*
X017055Y006885D01*
X017329Y006611D01*
X017187Y006469D02*
X016772Y006885D01*
X016025Y006625D02*
X016675Y005975D01*
X016675Y005893D01*
X017187Y005381D01*
X017329Y005239D02*
X017615Y005525D01*
X017725Y005525D01*
X017925Y005725D02*
X018175Y005475D01*
X018775Y005475D01*
X019375Y004875D01*
X020125Y004875D01*
X020675Y004325D01*
X020675Y004099D01*
X020928Y003846D01*
X020787Y003705D02*
X020525Y003966D01*
X020525Y004325D01*
X020175Y004675D01*
X019375Y004675D01*
X018675Y005375D01*
X018125Y005375D01*
X017475Y006025D01*
X016925Y006025D01*
X017575Y006175D02*
X017925Y006175D01*
X018075Y006025D01*
X018075Y005775D01*
X018275Y005575D01*
X018975Y005575D01*
X019525Y005025D01*
X020175Y005025D01*
X020825Y004375D01*
X020825Y004232D01*
X021070Y003988D01*
X021204Y004096D02*
X021204Y004122D01*
X021204Y004096D02*
X021425Y003875D01*
X021425Y003625D01*
X021875Y003675D02*
X022975Y003675D01*
X023025Y003675D01*
X023275Y003925D01*
X023975Y003925D01*
X024175Y003725D01*
X024325Y003575D01*
X024675Y003575D01*
X025475Y003225D02*
X025475Y002875D01*
X026825Y002525D02*
X026975Y002675D01*
X027125Y002825D01*
X028575Y002825D01*
X026825Y002525D02*
X022225Y002525D01*
X022075Y002675D01*
X021725Y003025D01*
X020915Y003025D01*
X020511Y003429D01*
X020511Y003439D01*
X020175Y003775D01*
X020248Y003975D02*
X020198Y004025D01*
X019375Y004025D01*
X019075Y004225D02*
X018925Y004375D01*
X018699Y004375D01*
X018446Y004122D01*
X018580Y003988D02*
X018818Y004225D01*
X018925Y004225D01*
X019525Y003625D01*
X019775Y003625D01*
X018998Y003570D02*
X018652Y003225D01*
X017575Y003225D01*
X017325Y002975D01*
X017275Y002975D01*
X017875Y002975D02*
X017925Y002925D01*
X018668Y002675D02*
X019281Y003287D01*
X019675Y003225D02*
X019775Y003225D01*
X019875Y003125D01*
X020207Y003125D01*
X020369Y003287D01*
X020652Y003570D02*
X020248Y003975D01*
X020325Y004225D02*
X019075Y004225D01*
X018825Y004525D02*
X018675Y004525D01*
X018566Y004525D01*
X018516Y004475D01*
X018305Y004263D01*
X018163Y004405D02*
X018163Y004413D01*
X018425Y004675D01*
X018575Y004675D01*
X018725Y004825D01*
X018725Y005075D01*
X018425Y005175D02*
X018325Y005275D01*
X018225Y005275D01*
X018199Y005275D01*
X017746Y004822D01*
X017888Y004688D02*
X018225Y005025D01*
X018351Y004875D02*
X018022Y004546D01*
X017888Y004680D02*
X017888Y004688D01*
X018351Y004875D02*
X018525Y004875D01*
X018875Y004575D02*
X018825Y004525D01*
X017605Y004963D02*
X017316Y004675D01*
X016825Y004675D01*
X016125Y005375D01*
X016075Y005375D01*
X016375Y005575D02*
X016375Y005675D01*
X016075Y005975D01*
X016375Y005575D02*
X017075Y004875D01*
X017125Y004875D01*
X017248Y004875D01*
X017470Y005098D01*
X017925Y005725D02*
X017925Y005825D01*
X017775Y005975D01*
X018425Y005775D02*
X021675Y005775D01*
X021775Y005675D01*
X021825Y005425D02*
X022075Y005675D01*
X022075Y005825D01*
X021925Y005975D01*
X022225Y006025D02*
X022225Y006232D01*
X022463Y006469D01*
X022463Y006463D01*
X022321Y006611D02*
X022585Y006875D01*
X023135Y007425D01*
X023825Y007425D01*
X024485Y007255D02*
X024505Y007275D01*
X024925Y007275D01*
X025825Y006375D01*
X026425Y006375D01*
X026975Y006925D01*
X029075Y006925D01*
X027125Y007875D02*
X026675Y007875D01*
X026575Y007775D01*
X022651Y007775D01*
X021904Y007028D01*
X022037Y006887D02*
X022045Y006887D01*
X022037Y006887D02*
X021825Y006675D01*
X021775Y006625D01*
X021575Y006625D01*
X021325Y006875D01*
X020725Y006875D01*
X020625Y006775D01*
X019975Y006775D01*
X019825Y006925D02*
X019525Y006925D01*
X019825Y006925D02*
X020075Y007175D01*
X020934Y007175D01*
X021345Y007587D01*
X021204Y007728D02*
X021001Y007525D01*
X020901Y007425D01*
X020775Y007425D01*
X020325Y007425D01*
X019525Y007425D01*
X019425Y007525D01*
X019025Y007701D02*
X019025Y007275D01*
X018775Y007425D02*
X018775Y007668D01*
X018580Y007862D01*
X018446Y007728D02*
X018225Y007949D01*
X018225Y008075D01*
X018225Y008225D01*
X018475Y008475D01*
X018802Y008475D01*
X018998Y008280D01*
X019202Y008075D01*
X019425Y008075D01*
X019525Y008175D01*
X019875Y008175D01*
X020511Y008421D02*
X020725Y008635D01*
X020725Y008825D01*
X020525Y009025D01*
X013375Y009025D01*
X012925Y008575D01*
X012075Y008575D01*
X013275Y008475D02*
X013725Y008925D01*
X020125Y008925D01*
X020275Y008775D01*
X020425Y008625D01*
X020425Y008618D01*
X020369Y008563D01*
X020652Y008280D02*
X020875Y008502D01*
X020875Y008825D01*
X020575Y009125D01*
X012975Y009125D01*
X013725Y009325D02*
X014275Y009325D01*
X014375Y009225D01*
X020625Y009225D01*
X021025Y008825D01*
X021025Y008384D01*
X020787Y008145D01*
X020928Y008004D02*
X021175Y008251D01*
X021175Y008875D01*
X020675Y009375D01*
X015875Y009375D01*
X015775Y009475D01*
X015475Y009675D02*
X017125Y009675D01*
X017325Y009475D01*
X019125Y009475D01*
X019175Y009525D01*
X020675Y009525D01*
X021325Y008875D01*
X021325Y008118D01*
X021070Y007862D01*
X021487Y007445D02*
X023566Y009525D01*
X025175Y009525D01*
X026075Y010425D01*
X025075Y010425D02*
X024575Y009925D01*
X019625Y009925D01*
X018725Y009725D02*
X024625Y009725D01*
X023775Y009275D02*
X023599Y009275D01*
X021628Y007304D01*
X021762Y007170D02*
X022618Y008025D01*
X025475Y008025D01*
X025425Y008675D02*
X026225Y008675D01*
X026725Y008825D02*
X026825Y008725D01*
X026825Y008675D01*
X025925Y009275D02*
X023775Y009275D01*
X023725Y009275D01*
X022875Y009325D02*
X021175Y009325D01*
X019625Y008525D02*
X019525Y008625D01*
X019475Y008675D01*
X019425Y008675D01*
X019393Y008675D01*
X019281Y008563D01*
X019139Y008421D02*
X018885Y008675D01*
X018625Y008675D01*
X018575Y008625D01*
X018325Y008625D01*
X017325Y008525D02*
X015075Y008525D01*
X015275Y009475D02*
X014775Y009475D01*
X015275Y009475D02*
X015475Y009675D01*
X014625Y009875D02*
X017325Y009875D01*
X017525Y009675D01*
X014625Y009875D02*
X014075Y010425D01*
X018863Y008145D02*
X018863Y008137D01*
X018722Y008004D02*
X019025Y007701D01*
X018382Y006675D02*
X017888Y007170D01*
X017746Y007028D02*
X018099Y006675D01*
X018125Y006675D01*
X018325Y006475D01*
X018775Y006475D01*
X019225Y006025D01*
X020625Y006025D01*
X020325Y006225D02*
X021935Y006225D01*
X022321Y006611D01*
X022180Y006752D02*
X021952Y006525D01*
X021852Y006425D01*
X021825Y006425D01*
X021375Y006425D01*
X021275Y006525D01*
X021075Y006725D01*
X020775Y006725D01*
X020625Y006575D01*
X019625Y006575D01*
X019525Y006675D01*
X019075Y006675D01*
X019025Y006425D02*
X018775Y006675D01*
X018382Y006675D01*
X019025Y006425D02*
X020875Y006425D01*
X020975Y006525D01*
X022875Y005525D02*
X023125Y005675D01*
X022875Y005525D02*
X022725Y005525D01*
X022607Y005525D01*
X022463Y005381D01*
X022321Y005239D02*
X022321Y005229D01*
X022180Y005098D02*
X022452Y004825D01*
X022625Y004825D01*
X022045Y004963D02*
X021925Y005084D01*
X021825Y005184D01*
X021775Y005234D01*
X021775Y005375D01*
X021825Y005425D01*
X021475Y005275D02*
X021475Y005251D01*
X021904Y004822D01*
X021762Y004680D02*
X021018Y005425D01*
X019525Y005425D01*
X020425Y005175D02*
X021025Y005175D01*
X021075Y004775D02*
X021075Y004534D01*
X021345Y004263D01*
X021487Y004405D02*
X021666Y004225D01*
X021766Y004125D01*
X021925Y004125D01*
X023175Y004125D01*
X023375Y004125D01*
X023525Y004275D01*
X023475Y004225D01*
X023125Y004475D02*
X022975Y004325D01*
X022925Y004275D01*
X022025Y004275D01*
X021899Y004275D01*
X021849Y004325D01*
X021628Y004546D01*
X023125Y004475D02*
X023825Y004475D01*
X024275Y004025D01*
X023625Y003675D02*
X023625Y003325D01*
X025475Y003925D02*
X027275Y003925D01*
X029075Y003925D01*
X023875Y005775D02*
X023725Y005675D01*
X018863Y003705D02*
X018534Y003375D01*
X018325Y003375D01*
X018225Y003375D01*
X018125Y003475D01*
X017025Y003475D01*
X016975Y003425D01*
X017075Y003775D02*
X017775Y003775D01*
X017925Y003625D01*
X018075Y003625D01*
X018375Y003625D01*
X018501Y003625D01*
X018722Y003846D01*
X019675Y003225D02*
X018975Y002525D01*
X015675Y002525D01*
X014775Y003425D01*
X013625Y003425D01*
X013625Y004325D01*
X013475Y004475D01*
X013475Y004775D01*
X013175Y004975D02*
X013275Y005075D01*
X013775Y005075D01*
X014075Y004775D01*
X014725Y004775D02*
X014725Y004725D01*
X015325Y004775D02*
X015325Y004225D01*
X015575Y003975D01*
X015575Y003475D01*
X015525Y003425D01*
X015575Y003425D01*
X016325Y002675D01*
X018668Y002675D01*
X019225Y002425D02*
X015525Y002425D01*
X015075Y002875D01*
X013575Y002875D01*
X013175Y003275D01*
X013175Y004975D01*
X012925Y004575D02*
X012925Y005375D01*
X013025Y005475D01*
X013025Y006325D01*
X013025Y006625D01*
X014275Y006925D02*
X014575Y006625D01*
X014625Y006625D01*
X014925Y006625D01*
X014975Y006675D01*
X014975Y006855D01*
X014275Y006925D02*
X014275Y007275D01*
X014175Y007375D01*
X013925Y007375D01*
X012025Y004975D02*
X011675Y004625D01*
X011302Y004625D01*
X011290Y004613D01*
X010075Y004175D02*
X010072Y004172D01*
X010072Y003710D01*
X010072Y003275D01*
X009825Y003275D01*
X009757Y003343D01*
X009757Y003710D01*
X009443Y003710D02*
X009443Y004107D01*
X009375Y004175D01*
X009325Y004225D01*
X009325Y004525D01*
X009443Y003710D02*
X009443Y003225D01*
X009225Y003225D01*
X009128Y003322D01*
X009128Y003710D01*
X010072Y003275D02*
X010072Y002957D01*
X010075Y002925D01*
X010275Y002625D02*
X010387Y002737D01*
X010387Y003710D01*
X010702Y003710D02*
X010737Y003675D01*
X011125Y003675D01*
X009443Y003225D02*
X009443Y002961D01*
X009475Y002925D01*
X010275Y002625D02*
X005275Y002625D01*
X004275Y002625D01*
X003075Y001425D01*
X004075Y001425D02*
X005175Y002525D01*
X010375Y002525D01*
X010775Y002925D01*
X010625Y002575D02*
X010975Y002575D01*
X011125Y002325D02*
X011275Y002475D01*
X011375Y002475D01*
X011125Y002325D02*
X010475Y002325D01*
X010325Y002175D01*
X006825Y002175D01*
X006075Y001425D01*
X005075Y001425D02*
X006075Y002425D01*
X010475Y002425D01*
X010625Y002575D01*
X011375Y001975D02*
X011675Y002275D01*
X021125Y002275D01*
X021175Y002325D01*
X021225Y002675D02*
X020275Y002675D01*
X020075Y002475D01*
X019675Y002475D01*
X019725Y002925D02*
X019225Y002425D01*
X019725Y002925D02*
X020225Y002925D01*
X021225Y002675D02*
X021325Y002775D01*
X021775Y002775D01*
X022175Y002375D01*
X022575Y002375D01*
X023075Y001875D01*
X023075Y001425D01*
X021625Y001925D02*
X018575Y001925D01*
X018075Y001425D01*
X017775Y002125D02*
X017075Y001425D01*
X016575Y001825D02*
X012475Y001825D01*
X012075Y001425D01*
X011725Y002075D02*
X011075Y001425D01*
X011375Y001975D02*
X009625Y001975D01*
X009075Y001425D01*
X011725Y002075D02*
X013425Y002075D01*
X016375Y002075D01*
X017775Y002125D02*
X022575Y002125D01*
X007575Y007375D02*
X007475Y007275D01*
X005625Y006775D02*
X005525Y006675D01*
X004235Y006675D01*
X004185Y006625D01*
X004185Y006075D01*
X005575Y006725D02*
X005625Y006775D01*
X003729Y007329D02*
X003725Y007325D01*
X003721Y007329D01*
X003675Y004025D02*
X003679Y004021D01*
X003675Y004025D02*
X003671Y004021D01*
X006175Y003975D02*
X006275Y003875D01*
X024275Y008675D02*
X024725Y008675D01*
X025925Y009275D02*
X027075Y010425D01*
D24*
X024625Y009725D03*
X022875Y009325D03*
X021175Y009325D03*
X019625Y009925D03*
X018725Y009725D03*
X017525Y009675D03*
X015775Y009475D03*
X014775Y009475D03*
X013725Y009325D03*
X012975Y009125D03*
X012075Y008575D03*
X013275Y008475D03*
X014975Y007775D03*
X015075Y008525D03*
X017325Y008525D03*
X018325Y008625D03*
X019625Y008525D03*
X019875Y008175D03*
X019225Y007775D03*
X019425Y007525D03*
X019025Y007275D03*
X018775Y007425D03*
X018575Y006875D03*
X019075Y006675D03*
X019525Y006925D03*
X019975Y006775D03*
X020975Y006525D03*
X020325Y006225D03*
X020625Y006025D03*
X021775Y005675D03*
X021925Y005975D03*
X022225Y006025D03*
X022725Y005525D03*
X022925Y005175D03*
X022625Y004825D03*
X023275Y004675D03*
X023525Y004275D03*
X024275Y004025D03*
X025225Y004525D03*
X027775Y004475D03*
X028075Y005525D03*
X023875Y006175D03*
X021475Y005275D03*
X021025Y005175D03*
X020425Y005175D03*
X019525Y005425D03*
X018725Y005075D03*
X018425Y005175D03*
X018225Y005025D03*
X018525Y004875D03*
X018875Y004575D03*
X019725Y004475D03*
X020325Y004225D03*
X019375Y004025D03*
X019775Y003625D03*
X020175Y003775D03*
X021425Y003625D03*
X021875Y003675D03*
X023625Y003325D03*
X025475Y002875D03*
X022575Y002125D03*
X021625Y001925D03*
X021175Y002325D03*
X020225Y002925D03*
X019675Y002475D03*
X018475Y002975D03*
X017575Y003225D03*
X016975Y003425D03*
X017075Y003775D03*
X017275Y004475D03*
X017725Y005525D03*
X018425Y005775D03*
X017775Y005975D03*
X017575Y006175D03*
X018125Y006425D03*
X018825Y006125D03*
X016925Y006025D03*
X014975Y006855D03*
X012325Y006305D03*
X011375Y006925D03*
X011125Y006975D03*
X011025Y007225D03*
X011025Y007525D03*
X009075Y008075D03*
X008725Y008275D03*
X008225Y007725D03*
X007325Y007625D03*
X007275Y007925D03*
X005725Y007875D03*
X007475Y007275D03*
X005625Y006775D03*
X003725Y007325D03*
X002225Y008475D03*
X007075Y005675D03*
X008625Y005675D03*
X009825Y006025D03*
X010725Y006075D03*
X010675Y006425D03*
X010075Y006525D03*
X012225Y005375D03*
X012025Y004975D03*
X012925Y004575D03*
X014425Y004225D03*
X011125Y003675D03*
X010075Y004175D03*
X009325Y004525D03*
X006925Y004525D03*
X006275Y004875D03*
X005725Y004375D03*
X003675Y004025D03*
X007875Y003425D03*
X010775Y002925D03*
X010975Y002575D03*
X011375Y002475D03*
X016375Y002075D03*
X016575Y001825D03*
X021075Y004775D03*
X023825Y007425D03*
X025475Y008025D03*
X024275Y008675D03*
X026725Y009125D03*
X027125Y007875D03*
X028575Y002825D03*
D25*
X022925Y005175D02*
X022775Y005025D01*
X022525Y005025D01*
X022321Y005229D01*
X022925Y005175D02*
X023475Y005175D01*
X023725Y005425D01*
X023725Y005675D01*
X023875Y005775D02*
X023875Y006175D01*
X019225Y007775D02*
X018863Y008137D01*
X026725Y008825D02*
X026725Y009125D01*
X014725Y004725D02*
X014425Y004425D01*
X014425Y004225D01*
X014425Y004425D02*
X014075Y004775D01*
X017925Y002925D02*
X018175Y002925D01*
X018225Y002975D01*
X018475Y002975D01*
X018685Y002975D01*
X019139Y003429D01*
D26*
X007925Y007375D02*
X007575Y007375D01*
X007575Y008025D01*
X007225Y008375D01*
X004375Y008375D01*
X004375Y009275D01*
X004125Y009525D01*
X004125Y010375D01*
X003125Y010375D02*
X003075Y010425D01*
X002725Y010075D01*
X002425Y010075D01*
X002225Y009875D01*
X003125Y009475D02*
X003125Y010375D01*
X003125Y009475D02*
X003775Y008825D01*
X003775Y008375D01*
X002225Y008475D02*
X002225Y009075D01*
X005725Y007875D02*
X005725Y007325D01*
X005875Y007175D01*
X005875Y006475D01*
X006275Y006075D01*
X005725Y006075D01*
X005495Y006305D01*
X004711Y006305D01*
X005675Y005375D02*
X005575Y005275D01*
X005575Y005075D01*
X005605Y005045D02*
X005725Y004925D01*
X005725Y004375D01*
X006175Y004375D02*
X006175Y003975D01*
X006975Y003875D02*
X006975Y004475D01*
X006925Y004525D01*
X006275Y004475D02*
X006175Y004375D01*
X006275Y004475D02*
X006275Y004875D01*
X006275Y005375D01*
X005675Y005375D01*
X005605Y005045D02*
X004711Y005045D01*
X004612Y004947D02*
X004612Y004021D01*
X003679Y004021D01*
X003671Y004021D02*
X002526Y004021D01*
X007475Y007275D02*
X007575Y007375D01*
X007975Y007975D02*
X008225Y007725D01*
X004612Y007329D02*
X003729Y007329D01*
X003721Y007329D02*
X002526Y007329D01*
M02*
