%
M48
M72
T01C0.0100
T02C0.0250
T03C0.0320
T04C0.0354
T05C0.0390
T06C0.0400
%
T01
X7875Y3425
X10075Y4175
X9325Y4525
X11125Y3675
X10775Y2925
X10975Y2575
X11375Y2475
X14425Y4225
X12925Y4575
X12025Y4975
X12225Y5375
X10725Y6075
X10675Y6425
X10075Y6525
X9825Y6025
X8625Y5675
X7075Y5675
X6275Y4875
X6925Y4525
X5725Y4375
X3675Y4025
X5625Y6775
X7475Y7275
X7325Y7625
X7275Y7925
X8225Y7725
X9075Y8075
X8725Y8275
X11025Y7525
X11025Y7225
X11125Y6975
X11375Y6925
X12325Y6305
X14975Y6855
X16925Y6025
X17575Y6175
X17775Y5975
X18425Y5775
X17725Y5525
X18425Y5175
X18225Y5025
X18725Y5075
X18525Y4875
X18875Y4575
X19725Y4475
X20325Y4225
X19375Y4025
X19775Y3625
X20175Y3775
X21425Y3625
X21875Y3675
X23525Y4275
X24275Y4025
X25225Y4525
X23275Y4675
X22625Y4825
X22925Y5175
X22725Y5525
X21775Y5675
X21925Y5975
X22225Y6025
X20975Y6525
X20325Y6225
X20625Y6025
X19525Y5425
X20425Y5175
X21025Y5175
X21475Y5275
X21075Y4775
X18825Y6125
X18125Y6425
X19075Y6675
X19525Y6925
X19975Y6775
X19025Y7275
X18775Y7425
X19425Y7525
X19225Y7775
X19875Y8175
X19625Y8525
X18325Y8625
X17325Y8525
X15075Y8525
X14975Y7775
X13275Y8475
X12075Y8575
X12975Y9125
X13725Y9325
X14775Y9475
X15775Y9475
X17525Y9675
X18725Y9725
X19625Y9925
X21175Y9325
X22875Y9325
X24275Y8675
X25475Y8025
X23825Y7425
X23875Y6175
X27125Y7875
X26725Y9125
X24625Y9725
X18575Y6875
X17275Y4475
X17075Y3775
X16975Y3425
X17575Y3225
X18475Y2975
X19675Y2475
X20225Y2925
X21175Y2325
X21625Y1925
X22575Y2125
X25475Y2875
X23625Y3325
X27775Y4475
X28075Y5525
X28575Y2825
X16575Y1825
X16375Y2075
X3725Y7325
X5725Y7875
X2225Y8475
T02
X16075Y5975
X16075Y5375
T03
X15525Y3425
X13625Y3425
T04
X3825Y4986
X3825Y6364
T05
X2075Y1425
X3075Y1425
X4075Y1425
X5075Y1425
X6075Y1425
X7075Y1425
X8075Y1425
X9075Y1425
X10075Y1425
X11075Y1425
X12075Y1425
X13075Y1425
X14075Y1425
X15075Y1425
X16075Y1425
X17075Y1425
X18075Y1425
X19075Y1425
X20075Y1425
X21075Y1425
X22075Y1425
X23075Y1425
X24075Y1425
X25075Y1425
X26075Y1425
X27075Y1425
X28075Y1425
X29075Y1425
X29075Y3925
X29075Y4925
X29075Y5925
X29075Y6925
X29075Y7925
X29075Y10425
X28075Y10425
X27075Y10425
X26075Y10425
X25075Y10425
X24075Y10425
X23075Y10425
X22075Y10425
X21075Y10425
X20075Y10425
X19075Y10425
X18075Y10425
X17075Y10425
X16075Y10425
X15075Y10425
X14075Y10425
X13075Y10425
X12075Y10425
X11075Y10425
X10075Y10425
X9075Y10425
X8075Y10425
X7075Y10425
X6075Y10425
X5075Y10425
X4075Y10425
X3075Y10425
T06
X24485Y7255
X26265Y7255
X26989Y5975
X26265Y4695
X24485Y4695
M30
