%
M48
M72
T01C0.0100
T02C0.0250
T03C0.0320
T04C0.0374
T05C0.0390
T06C0.0400
%
T01
X7875Y3425
X10075Y4125
X9325Y4525
X11075Y3675
X10775Y2875
X10975Y2575
X11375Y2475
X14425Y4225
X12925Y4575
X12025Y4975
X12225Y5375
X10725Y6075
X10675Y6425
X10025Y6575
X11025Y6975
X11375Y6925
X10975Y7275
X11025Y7525
X9075Y8075
X8675Y8275
X8225Y7775
X7325Y7625
X7275Y7925
X5725Y7875
X7475Y7275
X5625Y6775
X3775Y7425
X2175Y8475
X7075Y5675
X8625Y5675
X9825Y6025
X12325Y6305
X14975Y6855
X16875Y6025
X17525Y6175
X17725Y6025
X18325Y5775
X18825Y6175
X18125Y6425
X19075Y6675
X19525Y6925
X20075Y6775
X20925Y6625
X20275Y6225
X20625Y6025
X21775Y5675
X21925Y5975
X22225Y6175
X22725Y5525
X22925Y5175
X22625Y4825
X23275Y4675
X23525Y4275
X24225Y4025
X25225Y4525
X27625Y4475
X28075Y5425
X24675Y6575
X23825Y6175
X21475Y5275
X21025Y5175
X20425Y5175
X21225Y4825
X20325Y4225
X19725Y4475
X18775Y4475
X18725Y4725
X18525Y4875
X18375Y5125
X18125Y4925
X17575Y5475
X19525Y5475
X17275Y4475
X17075Y3775
X16975Y3425
X17575Y3225
X18475Y3025
X19575Y3475
X19775Y3675
X20275Y3675
X19325Y3975
X21425Y3625
X21825Y3675
X20225Y2925
X19675Y2525
X21175Y2375
X21625Y1925
X22575Y2125
X25475Y2875
X23625Y3325
X28575Y2825
X18625Y6975
X18925Y7425
X18725Y7575
X19425Y7525
X19125Y7925
X19875Y8175
X19625Y8525
X18325Y8625
X17325Y8525
X15075Y8525
X14975Y7775
X13225Y8475
X12075Y8575
X12975Y9125
X13725Y9325
X14775Y9475
X15775Y9475
X17525Y9675
X18725Y9725
X19625Y9925
X21175Y9275
X22825Y9275
X24275Y8675
X25475Y8025
X27125Y7875
X26725Y9125
X24625Y9725
X6925Y4525
X6275Y4875
X5725Y4375
X3825Y3975
X16375Y2075
X16575Y1825
T02
X16075Y5405
X16075Y5945
T03
X15525Y3425
X13625Y3425
T04
X3656Y4809
X3656Y6541
T05
X2075Y1425
X3075Y1425
X4075Y1425
X5075Y1425
X6075Y1425
X7075Y1425
X8075Y1425
X9075Y1425
X10075Y1425
X11075Y1425
X12075Y1425
X13075Y1425
X14075Y1425
X15075Y1425
X16075Y1425
X17075Y1425
X18075Y1425
X19075Y1425
X20075Y1425
X21075Y1425
X22075Y1425
X23075Y1425
X24075Y1425
X25075Y1425
X26075Y1425
X27075Y1425
X28075Y1425
X29075Y1425
X29075Y3925
X29075Y4925
X29075Y5925
X29075Y6925
X29075Y7925
X29075Y10425
X28075Y10425
X27075Y10425
X26075Y10425
X25075Y10425
X24075Y10425
X23075Y10425
X22075Y10425
X21075Y10425
X20075Y10425
X19075Y10425
X18075Y10425
X17075Y10425
X16075Y10425
X15075Y10425
X14075Y10425
X13075Y10425
X12075Y10425
X11075Y10425
X10075Y10425
X9075Y10425
X8075Y10425
X7075Y10425
X6075Y10425
X5075Y10425
X4075Y10425
X3075Y10425
T06
X24185Y7205
X25965Y7205
X26689Y5925
X25965Y4645
X24185Y4645
M30
