G75*
%MOIN*%
%OFA0B0*%
%FSLAX24Y24*%
%IPPOS*%
%LPD*%
%AMOC8*
5,1,8,0,0,1.08239X$1,22.5*
%
%ADD10R,0.0170X0.0640*%
%ADD11R,0.0280X0.0560*%
%ADD12R,0.0560X0.0280*%
%ADD13C,0.0540*%
%ADD14C,0.0450*%
%ADD15C,0.0103*%
%ADD16C,0.0115*%
%ADD17R,0.0926X0.1044*%
%ADD18R,0.0847X0.0257*%
%ADD19C,0.0414*%
%ADD20C,0.0645*%
%ADD21R,0.0510X0.0460*%
%ADD22C,0.0800*%
%ADD23R,0.0520X0.0690*%
%ADD24R,0.0060X0.0720*%
D10*
G36*
X017353Y005667D02*
X017473Y005547D01*
X017021Y005095D01*
X016901Y005215D01*
X017353Y005667D01*
G37*
G36*
X017495Y005525D02*
X017615Y005405D01*
X017163Y004953D01*
X017043Y005073D01*
X017495Y005525D01*
G37*
G36*
X017636Y005384D02*
X017756Y005264D01*
X017304Y004812D01*
X017184Y004932D01*
X017636Y005384D01*
G37*
G36*
X017771Y005249D02*
X017891Y005129D01*
X017439Y004677D01*
X017319Y004797D01*
X017771Y005249D01*
G37*
G36*
X017912Y005108D02*
X018032Y004988D01*
X017580Y004536D01*
X017460Y004656D01*
X017912Y005108D01*
G37*
G36*
X018054Y004966D02*
X018174Y004846D01*
X017722Y004394D01*
X017602Y004514D01*
X018054Y004966D01*
G37*
G36*
X018188Y004832D02*
X018308Y004712D01*
X017856Y004260D01*
X017736Y004380D01*
X018188Y004832D01*
G37*
G36*
X018329Y004691D02*
X018449Y004571D01*
X017997Y004119D01*
X017877Y004239D01*
X018329Y004691D01*
G37*
G36*
X018471Y004549D02*
X018591Y004429D01*
X018139Y003977D01*
X018019Y004097D01*
X018471Y004549D01*
G37*
G36*
X018612Y004408D02*
X018732Y004288D01*
X018280Y003836D01*
X018160Y003956D01*
X018612Y004408D01*
G37*
G36*
X018746Y004274D02*
X018866Y004154D01*
X018414Y003702D01*
X018294Y003822D01*
X018746Y004274D01*
G37*
G36*
X018888Y004132D02*
X019008Y004012D01*
X018556Y003560D01*
X018436Y003680D01*
X018888Y004132D01*
G37*
G36*
X019029Y003991D02*
X019149Y003871D01*
X018697Y003419D01*
X018577Y003539D01*
X019029Y003991D01*
G37*
G36*
X019164Y003856D02*
X019284Y003736D01*
X018832Y003284D01*
X018712Y003404D01*
X019164Y003856D01*
G37*
G36*
X019305Y003715D02*
X019425Y003595D01*
X018973Y003143D01*
X018853Y003263D01*
X019305Y003715D01*
G37*
G36*
X019447Y003573D02*
X019567Y003453D01*
X019115Y003001D01*
X018995Y003121D01*
X019447Y003573D01*
G37*
G36*
X020083Y003453D02*
X020203Y003573D01*
X020655Y003121D01*
X020535Y003001D01*
X020083Y003453D01*
G37*
G36*
X020225Y003595D02*
X020345Y003715D01*
X020797Y003263D01*
X020677Y003143D01*
X020225Y003595D01*
G37*
G36*
X020366Y003736D02*
X020486Y003856D01*
X020938Y003404D01*
X020818Y003284D01*
X020366Y003736D01*
G37*
G36*
X020501Y003871D02*
X020621Y003991D01*
X021073Y003539D01*
X020953Y003419D01*
X020501Y003871D01*
G37*
G36*
X020642Y004012D02*
X020762Y004132D01*
X021214Y003680D01*
X021094Y003560D01*
X020642Y004012D01*
G37*
G36*
X020784Y004154D02*
X020904Y004274D01*
X021356Y003822D01*
X021236Y003702D01*
X020784Y004154D01*
G37*
G36*
X020918Y004288D02*
X021038Y004408D01*
X021490Y003956D01*
X021370Y003836D01*
X020918Y004288D01*
G37*
G36*
X021059Y004429D02*
X021179Y004549D01*
X021631Y004097D01*
X021511Y003977D01*
X021059Y004429D01*
G37*
G36*
X021201Y004571D02*
X021321Y004691D01*
X021773Y004239D01*
X021653Y004119D01*
X021201Y004571D01*
G37*
G36*
X021342Y004712D02*
X021462Y004832D01*
X021914Y004380D01*
X021794Y004260D01*
X021342Y004712D01*
G37*
G36*
X021476Y004846D02*
X021596Y004966D01*
X022048Y004514D01*
X021928Y004394D01*
X021476Y004846D01*
G37*
G36*
X021618Y004988D02*
X021738Y005108D01*
X022190Y004656D01*
X022070Y004536D01*
X021618Y004988D01*
G37*
G36*
X021759Y005129D02*
X021879Y005249D01*
X022331Y004797D01*
X022211Y004677D01*
X021759Y005129D01*
G37*
G36*
X021894Y005264D02*
X022014Y005384D01*
X022466Y004932D01*
X022346Y004812D01*
X021894Y005264D01*
G37*
G36*
X022035Y005405D02*
X022155Y005525D01*
X022607Y005073D01*
X022487Y004953D01*
X022035Y005405D01*
G37*
G36*
X022177Y005547D02*
X022297Y005667D01*
X022749Y005215D01*
X022629Y005095D01*
X022177Y005547D01*
G37*
G36*
X022629Y006755D02*
X022749Y006635D01*
X022297Y006183D01*
X022177Y006303D01*
X022629Y006755D01*
G37*
G36*
X022487Y006897D02*
X022607Y006777D01*
X022155Y006325D01*
X022035Y006445D01*
X022487Y006897D01*
G37*
G36*
X022346Y007038D02*
X022466Y006918D01*
X022014Y006466D01*
X021894Y006586D01*
X022346Y007038D01*
G37*
G36*
X022211Y007173D02*
X022331Y007053D01*
X021879Y006601D01*
X021759Y006721D01*
X022211Y007173D01*
G37*
G36*
X021928Y007456D02*
X022048Y007336D01*
X021596Y006884D01*
X021476Y007004D01*
X021928Y007456D01*
G37*
G36*
X021794Y007590D02*
X021914Y007470D01*
X021462Y007018D01*
X021342Y007138D01*
X021794Y007590D01*
G37*
G36*
X021653Y007731D02*
X021773Y007611D01*
X021321Y007159D01*
X021201Y007279D01*
X021653Y007731D01*
G37*
G36*
X021511Y007873D02*
X021631Y007753D01*
X021179Y007301D01*
X021059Y007421D01*
X021511Y007873D01*
G37*
G36*
X021370Y008014D02*
X021490Y007894D01*
X021038Y007442D01*
X020918Y007562D01*
X021370Y008014D01*
G37*
G36*
X021094Y008290D02*
X021214Y008170D01*
X020762Y007718D01*
X020642Y007838D01*
X021094Y008290D01*
G37*
G36*
X020953Y008431D02*
X021073Y008311D01*
X020621Y007859D01*
X020501Y007979D01*
X020953Y008431D01*
G37*
G36*
X020818Y008566D02*
X020938Y008446D01*
X020486Y007994D01*
X020366Y008114D01*
X020818Y008566D01*
G37*
G36*
X020677Y008707D02*
X020797Y008587D01*
X020345Y008135D01*
X020225Y008255D01*
X020677Y008707D01*
G37*
G36*
X020535Y008849D02*
X020655Y008729D01*
X020203Y008277D01*
X020083Y008397D01*
X020535Y008849D01*
G37*
G36*
X018995Y008729D02*
X019115Y008849D01*
X019567Y008397D01*
X019447Y008277D01*
X018995Y008729D01*
G37*
G36*
X018853Y008587D02*
X018973Y008707D01*
X019425Y008255D01*
X019305Y008135D01*
X018853Y008587D01*
G37*
G36*
X018712Y008446D02*
X018832Y008566D01*
X019284Y008114D01*
X019164Y007994D01*
X018712Y008446D01*
G37*
G36*
X018577Y008311D02*
X018697Y008431D01*
X019149Y007979D01*
X019029Y007859D01*
X018577Y008311D01*
G37*
G36*
X018436Y008170D02*
X018556Y008290D01*
X019008Y007838D01*
X018888Y007718D01*
X018436Y008170D01*
G37*
G36*
X018294Y008028D02*
X018414Y008148D01*
X018866Y007696D01*
X018746Y007576D01*
X018294Y008028D01*
G37*
G36*
X018160Y007894D02*
X018280Y008014D01*
X018732Y007562D01*
X018612Y007442D01*
X018160Y007894D01*
G37*
G36*
X018019Y007753D02*
X018139Y007873D01*
X018591Y007421D01*
X018471Y007301D01*
X018019Y007753D01*
G37*
G36*
X017877Y007611D02*
X017997Y007731D01*
X018449Y007279D01*
X018329Y007159D01*
X017877Y007611D01*
G37*
G36*
X017736Y007470D02*
X017856Y007590D01*
X018308Y007138D01*
X018188Y007018D01*
X017736Y007470D01*
G37*
G36*
X017602Y007336D02*
X017722Y007456D01*
X018174Y007004D01*
X018054Y006884D01*
X017602Y007336D01*
G37*
G36*
X017460Y007194D02*
X017580Y007314D01*
X018032Y006862D01*
X017912Y006742D01*
X017460Y007194D01*
G37*
G36*
X017319Y007053D02*
X017439Y007173D01*
X017891Y006721D01*
X017771Y006601D01*
X017319Y007053D01*
G37*
G36*
X017184Y006918D02*
X017304Y007038D01*
X017756Y006586D01*
X017636Y006466D01*
X017184Y006918D01*
G37*
G36*
X017043Y006777D02*
X017163Y006897D01*
X017615Y006445D01*
X017495Y006325D01*
X017043Y006777D01*
G37*
G36*
X016901Y006635D02*
X017021Y006755D01*
X017473Y006303D01*
X017353Y006183D01*
X016901Y006635D01*
G37*
G36*
X021236Y008148D02*
X021356Y008028D01*
X020904Y007576D01*
X020784Y007696D01*
X021236Y008148D01*
G37*
G36*
X022070Y007314D02*
X022190Y007194D01*
X021738Y006742D01*
X021618Y006862D01*
X022070Y007314D01*
G37*
D11*
X010702Y007090D03*
X010387Y007090D03*
X010072Y007090D03*
X009757Y007090D03*
X009443Y007090D03*
X009128Y007090D03*
X008813Y007090D03*
X008498Y007090D03*
X008498Y003710D03*
X008813Y003710D03*
X009128Y003710D03*
X009443Y003710D03*
X009757Y003710D03*
X010072Y003710D03*
X010387Y003710D03*
X010702Y003710D03*
D12*
X011290Y004298D03*
X011290Y004613D03*
X011290Y004928D03*
X011290Y005243D03*
X011290Y005557D03*
X011290Y005872D03*
X011290Y006187D03*
X011290Y006502D03*
X007910Y006502D03*
X007910Y006187D03*
X007910Y005872D03*
X007910Y005557D03*
X007910Y005243D03*
X007910Y004928D03*
X007910Y004613D03*
X007910Y004298D03*
D13*
X013625Y003425D03*
X015525Y003425D03*
D14*
X016075Y005375D03*
X016075Y005975D03*
D15*
X016179Y006471D02*
X016179Y006779D01*
X016179Y006471D02*
X015871Y006471D01*
X015871Y006779D01*
X016179Y006779D01*
X016179Y006573D02*
X015871Y006573D01*
X015871Y006675D02*
X016179Y006675D01*
X016179Y006777D02*
X015871Y006777D01*
X015171Y006779D02*
X015171Y006471D01*
X015171Y006779D02*
X015479Y006779D01*
X015479Y006471D01*
X015171Y006471D01*
X015171Y006573D02*
X015479Y006573D01*
X015479Y006675D02*
X015171Y006675D01*
X015171Y006777D02*
X015479Y006777D01*
X014779Y006779D02*
X014779Y006471D01*
X014471Y006471D01*
X014471Y006779D01*
X014779Y006779D01*
X014779Y006573D02*
X014471Y006573D01*
X014471Y006675D02*
X014779Y006675D01*
X014779Y006777D02*
X014471Y006777D01*
X014779Y007071D02*
X014779Y007379D01*
X014779Y007071D02*
X014471Y007071D01*
X014471Y007379D01*
X014779Y007379D01*
X014779Y007173D02*
X014471Y007173D01*
X014471Y007275D02*
X014779Y007275D01*
X014779Y007377D02*
X014471Y007377D01*
X015171Y007379D02*
X015171Y007071D01*
X015171Y007379D02*
X015479Y007379D01*
X015479Y007071D01*
X015171Y007071D01*
X015171Y007173D02*
X015479Y007173D01*
X015479Y007275D02*
X015171Y007275D01*
X015171Y007377D02*
X015479Y007377D01*
X016179Y007379D02*
X016179Y007071D01*
X015871Y007071D01*
X015871Y007379D01*
X016179Y007379D01*
X016179Y007173D02*
X015871Y007173D01*
X015871Y007275D02*
X016179Y007275D01*
X016179Y007377D02*
X015871Y007377D01*
X012871Y007379D02*
X012871Y007071D01*
X012871Y007379D02*
X013179Y007379D01*
X013179Y007071D01*
X012871Y007071D01*
X012871Y007173D02*
X013179Y007173D01*
X013179Y007275D02*
X012871Y007275D01*
X012871Y007377D02*
X013179Y007377D01*
X012479Y007379D02*
X012479Y007071D01*
X012171Y007071D01*
X012171Y007379D01*
X012479Y007379D01*
X012479Y007173D02*
X012171Y007173D01*
X012171Y007275D02*
X012479Y007275D01*
X012479Y007377D02*
X012171Y007377D01*
X012479Y006779D02*
X012479Y006471D01*
X012171Y006471D01*
X012171Y006779D01*
X012479Y006779D01*
X012479Y006573D02*
X012171Y006573D01*
X012171Y006675D02*
X012479Y006675D01*
X012479Y006777D02*
X012171Y006777D01*
X012871Y006779D02*
X012871Y006471D01*
X012871Y006779D02*
X013179Y006779D01*
X013179Y006471D01*
X012871Y006471D01*
X012871Y006573D02*
X013179Y006573D01*
X013179Y006675D02*
X012871Y006675D01*
X012871Y006777D02*
X013179Y006777D01*
X013321Y004621D02*
X013629Y004621D01*
X013321Y004621D02*
X013321Y004929D01*
X013629Y004929D01*
X013629Y004621D01*
X013629Y004723D02*
X013321Y004723D01*
X013321Y004825D02*
X013629Y004825D01*
X013629Y004927D02*
X013321Y004927D01*
X013921Y004621D02*
X014229Y004621D01*
X013921Y004621D02*
X013921Y004929D01*
X014229Y004929D01*
X014229Y004621D01*
X014229Y004723D02*
X013921Y004723D01*
X013921Y004825D02*
X014229Y004825D01*
X014229Y004927D02*
X013921Y004927D01*
X014571Y004929D02*
X014879Y004929D01*
X014879Y004621D01*
X014571Y004621D01*
X014571Y004929D01*
X014571Y004723D02*
X014879Y004723D01*
X014879Y004825D02*
X014571Y004825D01*
X014571Y004927D02*
X014879Y004927D01*
X015171Y004929D02*
X015479Y004929D01*
X015479Y004621D01*
X015171Y004621D01*
X015171Y004929D01*
X015171Y004723D02*
X015479Y004723D01*
X015479Y004825D02*
X015171Y004825D01*
X015171Y004927D02*
X015479Y004927D01*
X017121Y002821D02*
X017429Y002821D01*
X017121Y002821D02*
X017121Y003129D01*
X017429Y003129D01*
X017429Y002821D01*
X017429Y002923D02*
X017121Y002923D01*
X017121Y003025D02*
X017429Y003025D01*
X017429Y003127D02*
X017121Y003127D01*
X017721Y002821D02*
X018029Y002821D01*
X017721Y002821D02*
X017721Y003129D01*
X018029Y003129D01*
X018029Y002821D01*
X018029Y002923D02*
X017721Y002923D01*
X017721Y003025D02*
X018029Y003025D01*
X018029Y003127D02*
X017721Y003127D01*
X022871Y003521D02*
X023179Y003521D01*
X022871Y003521D02*
X022871Y003829D01*
X023179Y003829D01*
X023179Y003521D01*
X023179Y003623D02*
X022871Y003623D01*
X022871Y003725D02*
X023179Y003725D01*
X023179Y003827D02*
X022871Y003827D01*
X023471Y003521D02*
X023779Y003521D01*
X023471Y003521D02*
X023471Y003829D01*
X023779Y003829D01*
X023779Y003521D01*
X023779Y003623D02*
X023471Y003623D01*
X023471Y003725D02*
X023779Y003725D01*
X023779Y003827D02*
X023471Y003827D01*
X023571Y005521D02*
X023879Y005521D01*
X023571Y005521D02*
X023571Y005829D01*
X023879Y005829D01*
X023879Y005521D01*
X023879Y005623D02*
X023571Y005623D01*
X023571Y005725D02*
X023879Y005725D01*
X023879Y005827D02*
X023571Y005827D01*
X023279Y005521D02*
X022971Y005521D01*
X022971Y005829D01*
X023279Y005829D01*
X023279Y005521D01*
X023279Y005623D02*
X022971Y005623D01*
X022971Y005725D02*
X023279Y005725D01*
X023279Y005827D02*
X022971Y005827D01*
X024571Y008446D02*
X024879Y008446D01*
X024571Y008446D02*
X024571Y008904D01*
X024879Y008904D01*
X024879Y008446D01*
X024879Y008548D02*
X024571Y008548D01*
X024571Y008650D02*
X024879Y008650D01*
X024879Y008752D02*
X024571Y008752D01*
X024571Y008854D02*
X024879Y008854D01*
X025271Y008446D02*
X025579Y008446D01*
X025271Y008446D02*
X025271Y008904D01*
X025579Y008904D01*
X025579Y008446D01*
X025579Y008548D02*
X025271Y008548D01*
X025271Y008650D02*
X025579Y008650D01*
X025579Y008752D02*
X025271Y008752D01*
X025271Y008854D02*
X025579Y008854D01*
X026071Y008829D02*
X026379Y008829D01*
X026379Y008521D01*
X026071Y008521D01*
X026071Y008829D01*
X026071Y008623D02*
X026379Y008623D01*
X026379Y008725D02*
X026071Y008725D01*
X026071Y008827D02*
X026379Y008827D01*
X026671Y008829D02*
X026979Y008829D01*
X026979Y008521D01*
X026671Y008521D01*
X026671Y008829D01*
X026671Y008623D02*
X026979Y008623D01*
X026979Y008725D02*
X026671Y008725D01*
X026671Y008827D02*
X026979Y008827D01*
X010229Y002771D02*
X009921Y002771D01*
X009921Y003079D01*
X010229Y003079D01*
X010229Y002771D01*
X010229Y002873D02*
X009921Y002873D01*
X009921Y002975D02*
X010229Y002975D01*
X010229Y003077D02*
X009921Y003077D01*
X009629Y002771D02*
X009321Y002771D01*
X009321Y003079D01*
X009629Y003079D01*
X009629Y002771D01*
X009629Y002873D02*
X009321Y002873D01*
X009321Y002975D02*
X009629Y002975D01*
X009629Y003077D02*
X009321Y003077D01*
X007079Y007021D02*
X006771Y007021D01*
X006771Y007329D01*
X007079Y007329D01*
X007079Y007021D01*
X007079Y007123D02*
X006771Y007123D01*
X006771Y007225D02*
X007079Y007225D01*
X007079Y007327D02*
X006771Y007327D01*
X006479Y007021D02*
X006171Y007021D01*
X006171Y007329D01*
X006479Y007329D01*
X006479Y007021D01*
X006479Y007123D02*
X006171Y007123D01*
X006171Y007225D02*
X006479Y007225D01*
X006479Y007327D02*
X006171Y007327D01*
X006171Y007771D02*
X006479Y007771D01*
X006171Y007771D02*
X006171Y008079D01*
X006479Y008079D01*
X006479Y007771D01*
X006479Y007873D02*
X006171Y007873D01*
X006171Y007975D02*
X006479Y007975D01*
X006479Y008077D02*
X006171Y008077D01*
X006771Y007771D02*
X007079Y007771D01*
X006771Y007771D02*
X006771Y008079D01*
X007079Y008079D01*
X007079Y007771D01*
X007079Y007873D02*
X006771Y007873D01*
X006771Y007975D02*
X007079Y007975D01*
X007079Y008077D02*
X006771Y008077D01*
X008079Y008129D02*
X008079Y007821D01*
X007771Y007821D01*
X007771Y008129D01*
X008079Y008129D01*
X008079Y007923D02*
X007771Y007923D01*
X007771Y008025D02*
X008079Y008025D01*
X008079Y008127D02*
X007771Y008127D01*
X008079Y007529D02*
X008079Y007221D01*
X007771Y007221D01*
X007771Y007529D01*
X008079Y007529D01*
X008079Y007323D02*
X007771Y007323D01*
X007771Y007425D02*
X008079Y007425D01*
X008079Y007527D02*
X007771Y007527D01*
D16*
X006027Y006248D02*
X006027Y005902D01*
X006027Y006248D02*
X006523Y006248D01*
X006523Y005902D01*
X006027Y005902D01*
X006027Y006016D02*
X006523Y006016D01*
X006523Y006130D02*
X006027Y006130D01*
X006027Y006244D02*
X006523Y006244D01*
X006027Y005548D02*
X006027Y005202D01*
X006027Y005548D02*
X006523Y005548D01*
X006523Y005202D01*
X006027Y005202D01*
X006027Y005316D02*
X006523Y005316D01*
X006523Y005430D02*
X006027Y005430D01*
X006027Y005544D02*
X006523Y005544D01*
X006448Y004123D02*
X006102Y004123D01*
X006448Y004123D02*
X006448Y003627D01*
X006102Y003627D01*
X006102Y004123D01*
X006102Y003741D02*
X006448Y003741D01*
X006448Y003855D02*
X006102Y003855D01*
X006102Y003969D02*
X006448Y003969D01*
X006448Y004083D02*
X006102Y004083D01*
X006802Y004123D02*
X007148Y004123D01*
X007148Y003627D01*
X006802Y003627D01*
X006802Y004123D01*
X006802Y003741D02*
X007148Y003741D01*
X007148Y003855D02*
X006802Y003855D01*
X006802Y003969D02*
X007148Y003969D01*
X007148Y004083D02*
X006802Y004083D01*
X013577Y006552D02*
X013577Y006898D01*
X014073Y006898D01*
X014073Y006552D01*
X013577Y006552D01*
X013577Y006666D02*
X014073Y006666D01*
X014073Y006780D02*
X013577Y006780D01*
X013577Y006894D02*
X014073Y006894D01*
X013577Y007252D02*
X013577Y007598D01*
X014073Y007598D01*
X014073Y007252D01*
X013577Y007252D01*
X013577Y007366D02*
X014073Y007366D01*
X014073Y007480D02*
X013577Y007480D01*
X013577Y007594D02*
X014073Y007594D01*
X002473Y008902D02*
X002473Y009248D01*
X002473Y008902D02*
X001977Y008902D01*
X001977Y009248D01*
X002473Y009248D01*
X002473Y009016D02*
X001977Y009016D01*
X001977Y009130D02*
X002473Y009130D01*
X002473Y009244D02*
X001977Y009244D01*
X002473Y009602D02*
X002473Y009948D01*
X002473Y009602D02*
X001977Y009602D01*
X001977Y009948D01*
X002473Y009948D01*
X002473Y009716D02*
X001977Y009716D01*
X001977Y009830D02*
X002473Y009830D01*
X002473Y009944D02*
X001977Y009944D01*
D17*
X002526Y007329D03*
X004612Y007329D03*
X004612Y004021D03*
X002526Y004021D03*
D18*
X004711Y005045D03*
X004711Y005360D03*
X004711Y005675D03*
X004711Y005990D03*
X004711Y006305D03*
D19*
X003825Y006364D03*
X003825Y004986D03*
D20*
X002075Y001425D03*
X003075Y001425D03*
X004075Y001425D03*
X005075Y001425D03*
X006075Y001425D03*
X007075Y001425D03*
X008075Y001425D03*
X009075Y001425D03*
X010075Y001425D03*
X011075Y001425D03*
X012075Y001425D03*
X013075Y001425D03*
X014075Y001425D03*
X015075Y001425D03*
X016075Y001425D03*
X017075Y001425D03*
X018075Y001425D03*
X019075Y001425D03*
X020075Y001425D03*
X021075Y001425D03*
X022075Y001425D03*
X023075Y001425D03*
X024075Y001425D03*
X025075Y001425D03*
X026075Y001425D03*
X027075Y001425D03*
X028075Y001425D03*
X029075Y001425D03*
X029075Y003925D03*
X029075Y004925D03*
X029075Y005925D03*
X029075Y006925D03*
X029075Y007925D03*
X029075Y010425D03*
X028075Y010425D03*
X027075Y010425D03*
X026075Y010425D03*
X025075Y010425D03*
X024075Y010425D03*
X023075Y010425D03*
X022075Y010425D03*
X021075Y010425D03*
X020075Y010425D03*
X019075Y010425D03*
X018075Y010425D03*
X017075Y010425D03*
X016075Y010425D03*
X015075Y010425D03*
X014075Y010425D03*
X013075Y010425D03*
X012075Y010425D03*
X011075Y010425D03*
X010075Y010425D03*
X009075Y010425D03*
X008075Y010425D03*
X007075Y010425D03*
X006075Y010425D03*
X005075Y010425D03*
X004075Y010425D03*
X003075Y010425D03*
D21*
X024675Y003575D03*
X025475Y003225D03*
X025475Y003925D03*
D22*
X026265Y004695D03*
X024485Y004695D03*
X026989Y005975D03*
X026265Y007255D03*
X024485Y007255D03*
D23*
X004375Y008375D03*
X003775Y008375D03*
D24*
X004075Y008375D03*
M02*
