G75*
%MOIN*%
%OFA0B0*%
%FSLAX24Y24*%
%IPPOS*%
%LPD*%
%AMOC8*
5,1,8,0,0,1.08239X$1,22.5*
%
%ADD10C,0.0480*%
%ADD11C,0.0390*%
%ADD12C,0.0561*%
%ADD13C,0.0585*%
%ADD14C,0.0600*%
%ADD15C,0.0180*%
%ADD16C,0.0050*%
%ADD17C,0.0120*%
D10*
X013625Y003425D03*
X015525Y003425D03*
D11*
X016075Y005405D03*
X016075Y005945D03*
D12*
X003656Y006541D03*
X003656Y004809D03*
D13*
X002075Y001425D03*
X003075Y001425D03*
X004075Y001425D03*
X005075Y001425D03*
X006075Y001425D03*
X007075Y001425D03*
X008075Y001425D03*
X009075Y001425D03*
X010075Y001425D03*
X011075Y001425D03*
X012075Y001425D03*
X013075Y001425D03*
X014075Y001425D03*
X015075Y001425D03*
X016075Y001425D03*
X017075Y001425D03*
X018075Y001425D03*
X019075Y001425D03*
X020075Y001425D03*
X021075Y001425D03*
X022075Y001425D03*
X023075Y001425D03*
X024075Y001425D03*
X025075Y001425D03*
X026075Y001425D03*
X027075Y001425D03*
X028075Y001425D03*
X029075Y001425D03*
X029075Y003925D03*
X029075Y004925D03*
X029075Y005925D03*
X029075Y006925D03*
X029075Y007925D03*
X029075Y010425D03*
X028075Y010425D03*
X027075Y010425D03*
X026075Y010425D03*
X025075Y010425D03*
X024075Y010425D03*
X023075Y010425D03*
X022075Y010425D03*
X021075Y010425D03*
X020075Y010425D03*
X019075Y010425D03*
X018075Y010425D03*
X017075Y010425D03*
X016075Y010425D03*
X015075Y010425D03*
X014075Y010425D03*
X013075Y010425D03*
X012075Y010425D03*
X011075Y010425D03*
X010075Y010425D03*
X009075Y010425D03*
X008075Y010425D03*
X007075Y010425D03*
X006075Y010425D03*
X005075Y010425D03*
X004075Y010425D03*
X003075Y010425D03*
D14*
X024185Y007205D03*
X025965Y007205D03*
X026689Y005925D03*
X025965Y004645D03*
X024185Y004645D03*
D15*
X023525Y004275D03*
X024225Y004025D03*
X025225Y004525D03*
X023275Y004675D03*
X022625Y004825D03*
X022925Y005175D03*
X022725Y005525D03*
X021775Y005675D03*
X021925Y005975D03*
X022225Y006175D03*
X020925Y006625D03*
X020275Y006225D03*
X020625Y006025D03*
X019525Y005475D03*
X020425Y005175D03*
X021025Y005175D03*
X021475Y005275D03*
X021225Y004825D03*
X020325Y004225D03*
X019725Y004475D03*
X018775Y004475D03*
X018725Y004725D03*
X018525Y004875D03*
X018375Y005125D03*
X018125Y004925D03*
X017575Y005475D03*
X018325Y005775D03*
X017725Y006025D03*
X017525Y006175D03*
X018125Y006425D03*
X018825Y006175D03*
X019075Y006675D03*
X019525Y006925D03*
X020075Y006775D03*
X018625Y006975D03*
X018925Y007425D03*
X018725Y007575D03*
X019425Y007525D03*
X019125Y007925D03*
X019875Y008175D03*
X019625Y008525D03*
X018325Y008625D03*
X017325Y008525D03*
X015075Y008525D03*
X014975Y007775D03*
X013275Y008475D03*
X012075Y008575D03*
X012975Y009125D03*
X013725Y009325D03*
X014775Y009475D03*
X015775Y009475D03*
X017525Y009675D03*
X018725Y009725D03*
X019625Y009925D03*
X021175Y009275D03*
X022825Y009275D03*
X024275Y008675D03*
X025475Y008025D03*
X027125Y007875D03*
X024725Y006575D03*
X023825Y006175D03*
X027625Y004475D03*
X028075Y005425D03*
X023625Y003325D03*
X025475Y002875D03*
X022575Y002125D03*
X021625Y001925D03*
X021175Y002325D03*
X020225Y002925D03*
X019675Y002525D03*
X018475Y003025D03*
X017575Y003225D03*
X016975Y003425D03*
X017075Y003775D03*
X017275Y004475D03*
X019325Y003975D03*
X019775Y003675D03*
X019575Y003475D03*
X020275Y003675D03*
X021425Y003625D03*
X021825Y003675D03*
X016575Y001825D03*
X016375Y002075D03*
X011375Y002475D03*
X010975Y002575D03*
X010775Y002875D03*
X011075Y003675D03*
X010075Y004125D03*
X009325Y004525D03*
X006925Y004525D03*
X006275Y004875D03*
X005725Y004375D03*
X003825Y003975D03*
X007875Y003425D03*
X012025Y004975D03*
X012225Y005375D03*
X012925Y004575D03*
X014425Y004225D03*
X016875Y006025D03*
X014975Y006855D03*
X012325Y006305D03*
X011375Y006925D03*
X011025Y006975D03*
X010975Y007275D03*
X011025Y007525D03*
X009075Y008075D03*
X008675Y008275D03*
X008225Y007725D03*
X007325Y007625D03*
X007275Y007925D03*
X005725Y007875D03*
X007475Y007275D03*
X005625Y006775D03*
X003775Y007425D03*
X002175Y008475D03*
X007075Y005675D03*
X008625Y005675D03*
X009825Y006025D03*
X010725Y006075D03*
X010675Y006425D03*
X010075Y006525D03*
X024625Y009725D03*
X026725Y009125D03*
X028575Y002825D03*
D16*
X025225Y004525D02*
X024775Y004975D01*
X024775Y005225D01*
X025225Y005425D02*
X024925Y005725D01*
X022425Y005725D01*
X022125Y005425D01*
X021675Y005425D01*
X021575Y005525D01*
X020375Y005525D01*
X020225Y005675D01*
X019175Y005675D01*
X019025Y005525D01*
X018625Y005525D01*
X018575Y005475D01*
X017625Y005475D01*
X017575Y005475D01*
X017775Y005075D02*
X018075Y005375D01*
X018875Y005375D01*
X019375Y004875D01*
X020425Y004875D01*
X020550Y005000D01*
X021200Y005000D01*
X021475Y005275D01*
X021175Y005825D02*
X018775Y005825D01*
X018625Y005975D01*
X018175Y005975D01*
X017975Y005775D01*
X016775Y005775D01*
X016275Y006275D01*
X014725Y006275D01*
X014325Y005875D01*
X010425Y005875D01*
X010325Y005975D01*
X010275Y006025D01*
X009825Y006025D01*
X010725Y006075D02*
X010925Y006075D01*
X010975Y006025D01*
X011025Y005975D01*
X014225Y005975D01*
X014625Y006375D01*
X017775Y006375D01*
X017975Y006175D01*
X018825Y006175D01*
X018125Y006425D02*
X018025Y006525D01*
X014625Y006525D01*
X014225Y006125D01*
X012125Y006125D01*
X011775Y006475D01*
X010725Y006475D01*
X010675Y006425D01*
X010525Y006625D02*
X010425Y006525D01*
X010075Y006525D01*
X010525Y006625D02*
X014525Y006625D01*
X014575Y006675D01*
X016175Y006675D01*
X018725Y006675D01*
X018925Y006875D01*
X019475Y006875D01*
X019525Y006925D01*
X018625Y006975D02*
X017825Y006975D01*
X017775Y007025D01*
X016775Y007025D01*
X014825Y007025D01*
X014775Y007075D01*
X014575Y007275D01*
X010975Y007275D01*
X011025Y007525D02*
X014525Y007525D01*
X014875Y007175D01*
X017875Y007175D01*
X017975Y007175D01*
X018075Y007175D01*
X023955Y007175D01*
X024185Y007205D01*
X021925Y005975D02*
X021325Y005975D01*
X021175Y005825D01*
X018525Y004875D02*
X018325Y004675D01*
X015575Y004675D01*
X015275Y004975D01*
X012025Y004975D01*
X012225Y005375D02*
X012525Y005375D01*
X012575Y005325D01*
X015275Y005325D01*
X015525Y005075D01*
X015775Y005075D01*
X017625Y005075D01*
X017775Y005075D01*
X018025Y003975D02*
X018275Y003725D01*
X019475Y003725D01*
X019625Y003875D01*
X020075Y003875D01*
X020275Y003675D01*
X020625Y003625D02*
X021425Y003625D01*
X020625Y003625D02*
X019775Y002775D01*
X012425Y002775D01*
X011775Y003425D01*
X007875Y003425D01*
X011075Y003675D02*
X012325Y003675D01*
X012625Y003975D01*
X018025Y003975D01*
X011375Y006925D02*
X011175Y006725D01*
X010575Y006725D01*
X010525Y006775D01*
X008325Y006775D01*
X005625Y006775D01*
X007325Y007625D02*
X007775Y007625D01*
X007875Y007525D01*
X009475Y007525D01*
X009675Y007725D01*
X014525Y007725D01*
X014925Y007325D01*
X018075Y007325D01*
X018175Y007325D01*
X018875Y007325D01*
X018925Y007425D01*
X018725Y007575D02*
X018675Y007525D01*
X016825Y007525D01*
X016725Y007525D01*
X014925Y007525D01*
X014625Y007825D01*
X008725Y007825D01*
X008625Y007925D01*
X007275Y007925D01*
X025225Y005425D02*
X027525Y005425D01*
X027625Y005425D01*
X028075Y005425D01*
D17*
X028475Y004925D02*
X028025Y004475D01*
X027625Y004475D01*
X027075Y004475D01*
X026325Y005225D01*
X025225Y005225D01*
X024775Y005225D01*
X023925Y005225D01*
X023675Y004975D01*
X023575Y004975D01*
X023275Y004675D01*
X022875Y004675D01*
X022675Y004475D01*
X019725Y004475D01*
X019475Y004475D01*
X019225Y004225D01*
X018225Y004225D01*
X017975Y004475D01*
X017275Y004475D01*
X015125Y004475D01*
X015025Y004575D01*
X012925Y004575D01*
X012625Y004575D01*
X012575Y004525D01*
X009325Y004525D01*
X006925Y004525D01*
X028475Y004925D02*
X029075Y004925D01*
M02*
