G75*
%MOIN*%
%OFA0B0*%
%FSLAX24Y24*%
%IPPOS*%
%LPD*%
%AMOC8*
5,1,8,0,0,1.08239X$1,22.5*
%
%ADD10C,0.0480*%
%ADD11C,0.0390*%
%ADD12C,0.0585*%
%ADD13C,0.0600*%
%ADD14C,0.0180*%
%ADD15C,0.0050*%
D10*
X013625Y003425D03*
X015525Y003425D03*
D11*
X016075Y005375D03*
X016075Y005975D03*
D12*
X016075Y010425D03*
X015075Y010425D03*
X014075Y010425D03*
X013075Y010425D03*
X012075Y010425D03*
X011075Y010425D03*
X010075Y010425D03*
X009075Y010425D03*
X008075Y010425D03*
X007075Y010425D03*
X006075Y010425D03*
X005075Y010425D03*
X004075Y010425D03*
X003075Y010425D03*
X017075Y010425D03*
X018075Y010425D03*
X019075Y010425D03*
X020075Y010425D03*
X021075Y010425D03*
X022075Y010425D03*
X023075Y010425D03*
X024075Y010425D03*
X025075Y010425D03*
X026075Y010425D03*
X027075Y010425D03*
X028075Y010425D03*
X029075Y010425D03*
X029075Y007925D03*
X029075Y006925D03*
X029075Y005925D03*
X029075Y004925D03*
X029075Y003925D03*
X029075Y001425D03*
X028075Y001425D03*
X027075Y001425D03*
X026075Y001425D03*
X025075Y001425D03*
X024075Y001425D03*
X023075Y001425D03*
X022075Y001425D03*
X021075Y001425D03*
X020075Y001425D03*
X019075Y001425D03*
X018075Y001425D03*
X017075Y001425D03*
X016075Y001425D03*
X015075Y001425D03*
X014075Y001425D03*
X013075Y001425D03*
X012075Y001425D03*
X011075Y001425D03*
X010075Y001425D03*
X009075Y001425D03*
X008075Y001425D03*
X007075Y001425D03*
X006075Y001425D03*
X005075Y001425D03*
X004075Y001425D03*
X003075Y001425D03*
X002075Y001425D03*
D13*
X024485Y004695D03*
X026265Y004695D03*
X026989Y005975D03*
X026265Y007255D03*
X024485Y007255D03*
D14*
X023825Y007425D03*
X025475Y008025D03*
X024275Y008675D03*
X022875Y009325D03*
X021175Y009325D03*
X019625Y009925D03*
X018725Y009725D03*
X017525Y009675D03*
X015775Y009475D03*
X014775Y009475D03*
X013725Y009325D03*
X012975Y009125D03*
X012075Y008575D03*
X013275Y008475D03*
X014975Y007775D03*
X015075Y008525D03*
X017325Y008525D03*
X018325Y008625D03*
X019625Y008525D03*
X019875Y008175D03*
X019225Y007775D03*
X019425Y007525D03*
X019025Y007275D03*
X018775Y007425D03*
X018575Y006875D03*
X019075Y006675D03*
X019525Y006925D03*
X019975Y006775D03*
X020975Y006525D03*
X020325Y006225D03*
X020625Y006025D03*
X021775Y005675D03*
X021925Y005975D03*
X022225Y006025D03*
X022725Y005525D03*
X022925Y005175D03*
X022625Y004825D03*
X023275Y004675D03*
X023525Y004275D03*
X024275Y004025D03*
X025225Y004525D03*
X027775Y004475D03*
X028075Y005525D03*
X023875Y006175D03*
X021475Y005275D03*
X021025Y005175D03*
X020425Y005175D03*
X019525Y005425D03*
X018725Y005075D03*
X018425Y005175D03*
X018225Y005025D03*
X018525Y004875D03*
X018875Y004575D03*
X019725Y004475D03*
X020325Y004225D03*
X019375Y004025D03*
X019775Y003625D03*
X020175Y003775D03*
X021425Y003625D03*
X021875Y003675D03*
X023625Y003325D03*
X025475Y002875D03*
X022575Y002125D03*
X021625Y001925D03*
X021175Y002325D03*
X020225Y002925D03*
X019675Y002475D03*
X018475Y002975D03*
X017575Y003225D03*
X016975Y003425D03*
X017075Y003775D03*
X017275Y004475D03*
X017725Y005525D03*
X018425Y005775D03*
X017775Y005975D03*
X017575Y006175D03*
X018125Y006425D03*
X018825Y006125D03*
X016925Y006025D03*
X014975Y006855D03*
X012325Y006305D03*
X011375Y006925D03*
X011125Y006975D03*
X011025Y007225D03*
X011025Y007525D03*
X009075Y008075D03*
X008725Y008275D03*
X008225Y007725D03*
X007325Y007625D03*
X007275Y007925D03*
X005725Y007875D03*
X007475Y007275D03*
X005625Y006775D03*
X003725Y007325D03*
X002225Y008475D03*
X007075Y005675D03*
X008625Y005675D03*
X009825Y006025D03*
X010725Y006075D03*
X010675Y006425D03*
X010075Y006525D03*
X012225Y005375D03*
X012025Y004975D03*
X012925Y004575D03*
X014425Y004225D03*
X011125Y003675D03*
X010075Y004175D03*
X009325Y004525D03*
X006925Y004525D03*
X006275Y004875D03*
X005725Y004375D03*
X003675Y004025D03*
X007875Y003425D03*
X010775Y002925D03*
X010975Y002575D03*
X011375Y002475D03*
X016375Y002075D03*
X016575Y001825D03*
X021075Y004775D03*
X028575Y002825D03*
X027125Y007875D03*
X026725Y009125D03*
X024625Y009725D03*
D15*
X002309Y001140D02*
X002250Y001100D01*
X002899Y001100D01*
X002867Y001113D01*
X002763Y001217D01*
X002708Y001352D01*
X002708Y001498D01*
X002763Y001633D01*
X002867Y001737D01*
X003002Y001792D01*
X003148Y001792D01*
X003283Y001737D01*
X003387Y001633D01*
X003442Y001498D01*
X003442Y001352D01*
X003387Y001217D01*
X003283Y001113D01*
X003251Y001100D01*
X003899Y001100D01*
X003867Y001113D01*
X003763Y001217D01*
X003708Y001352D01*
X003708Y001498D01*
X003763Y001633D01*
X003867Y001737D01*
X004002Y001792D01*
X004148Y001792D01*
X004283Y001737D01*
X004387Y001633D01*
X004442Y001498D01*
X004442Y001352D01*
X004387Y001217D01*
X004283Y001113D01*
X004251Y001100D01*
X004899Y001100D01*
X004867Y001113D01*
X004763Y001217D01*
X004708Y001352D01*
X004708Y001498D01*
X004763Y001633D01*
X004867Y001737D01*
X005002Y001792D01*
X005148Y001792D01*
X005283Y001737D01*
X005387Y001633D01*
X005442Y001498D01*
X005442Y001352D01*
X005387Y001217D01*
X005283Y001113D01*
X005251Y001100D01*
X005899Y001100D01*
X005867Y001113D01*
X005763Y001217D01*
X005708Y001352D01*
X005708Y001498D01*
X005763Y001633D01*
X005867Y001737D01*
X006002Y001792D01*
X006148Y001792D01*
X006283Y001737D01*
X006387Y001633D01*
X006442Y001498D01*
X006442Y001352D01*
X006387Y001217D01*
X006283Y001113D01*
X006251Y001100D01*
X006900Y001100D01*
X006841Y001140D01*
X006790Y001191D01*
X006749Y001251D01*
X006722Y001318D01*
X006708Y001389D01*
X006708Y001400D01*
X007050Y001400D01*
X007050Y001450D01*
X007050Y001792D01*
X007039Y001792D01*
X006968Y001778D01*
X006901Y001751D01*
X006841Y001710D01*
X006790Y001659D01*
X006749Y001599D01*
X006722Y001532D01*
X006708Y001461D01*
X006708Y001450D01*
X007050Y001450D01*
X007100Y001450D01*
X007100Y001792D01*
X007111Y001792D01*
X007182Y001778D01*
X007249Y001751D01*
X007309Y001710D01*
X007360Y001659D01*
X007401Y001599D01*
X007428Y001532D01*
X007442Y001461D01*
X007442Y001450D01*
X007100Y001450D01*
X007100Y001400D01*
X007442Y001400D01*
X007442Y001389D01*
X007428Y001318D01*
X007401Y001251D01*
X007360Y001191D01*
X007309Y001140D01*
X007250Y001100D01*
X007899Y001100D01*
X007867Y001113D01*
X007763Y001217D01*
X007708Y001352D01*
X007708Y001498D01*
X007763Y001633D01*
X007867Y001737D01*
X008002Y001792D01*
X008148Y001792D01*
X008283Y001737D01*
X008387Y001633D01*
X008442Y001498D01*
X008442Y001352D01*
X008387Y001217D01*
X008283Y001113D01*
X008251Y001100D01*
X008899Y001100D01*
X008867Y001113D01*
X008763Y001217D01*
X008708Y001352D01*
X008708Y001498D01*
X008763Y001633D01*
X008867Y001737D01*
X009002Y001792D01*
X009148Y001792D01*
X009283Y001737D01*
X009387Y001633D01*
X009442Y001498D01*
X009442Y001352D01*
X009387Y001217D01*
X009283Y001113D01*
X009251Y001100D01*
X009899Y001100D01*
X009867Y001113D01*
X009763Y001217D01*
X009708Y001352D01*
X009708Y001498D01*
X009763Y001633D01*
X009867Y001737D01*
X010002Y001792D01*
X010148Y001792D01*
X010283Y001737D01*
X010387Y001633D01*
X010442Y001498D01*
X010442Y001352D01*
X010387Y001217D01*
X010283Y001113D01*
X010251Y001100D01*
X010899Y001100D01*
X010867Y001113D01*
X010763Y001217D01*
X010708Y001352D01*
X010708Y001498D01*
X010763Y001633D01*
X010867Y001737D01*
X011002Y001792D01*
X011148Y001792D01*
X011283Y001737D01*
X011387Y001633D01*
X011442Y001498D01*
X011442Y001352D01*
X011387Y001217D01*
X011283Y001113D01*
X011251Y001100D01*
X011899Y001100D01*
X011867Y001113D01*
X011763Y001217D01*
X011708Y001352D01*
X011708Y001498D01*
X011763Y001633D01*
X011867Y001737D01*
X012002Y001792D01*
X012148Y001792D01*
X012283Y001737D01*
X012387Y001633D01*
X012442Y001498D01*
X012442Y001352D01*
X012387Y001217D01*
X012283Y001113D01*
X012251Y001100D01*
X012899Y001100D01*
X012867Y001113D01*
X012763Y001217D01*
X012708Y001352D01*
X012708Y001498D01*
X012763Y001633D01*
X012867Y001737D01*
X013002Y001792D01*
X013148Y001792D01*
X013283Y001737D01*
X013387Y001633D01*
X013442Y001498D01*
X013442Y001352D01*
X013387Y001217D01*
X013283Y001113D01*
X013251Y001100D01*
X013899Y001100D01*
X013867Y001113D01*
X013763Y001217D01*
X013708Y001352D01*
X013708Y001498D01*
X013763Y001633D01*
X013867Y001737D01*
X014002Y001792D01*
X014148Y001792D01*
X014283Y001737D01*
X014387Y001633D01*
X014442Y001498D01*
X014442Y001352D01*
X014387Y001217D01*
X014283Y001113D01*
X014251Y001100D01*
X014899Y001100D01*
X014867Y001113D01*
X014763Y001217D01*
X014708Y001352D01*
X014708Y001498D01*
X014763Y001633D01*
X014867Y001737D01*
X015002Y001792D01*
X015148Y001792D01*
X015283Y001737D01*
X015387Y001633D01*
X015442Y001498D01*
X015442Y001352D01*
X015387Y001217D01*
X015283Y001113D01*
X015251Y001100D01*
X015899Y001100D01*
X015867Y001113D01*
X015763Y001217D01*
X015708Y001352D01*
X015708Y001498D01*
X015763Y001633D01*
X015867Y001737D01*
X016002Y001792D01*
X016148Y001792D01*
X016283Y001737D01*
X016387Y001633D01*
X016442Y001498D01*
X016442Y001352D01*
X016387Y001217D01*
X016283Y001113D01*
X016251Y001100D01*
X016899Y001100D01*
X016867Y001113D01*
X016763Y001217D01*
X016708Y001352D01*
X016708Y001498D01*
X016763Y001633D01*
X016867Y001737D01*
X017002Y001792D01*
X017148Y001792D01*
X017283Y001737D01*
X017387Y001633D01*
X017442Y001498D01*
X017442Y001352D01*
X017387Y001217D01*
X017283Y001113D01*
X017251Y001100D01*
X017899Y001100D01*
X017867Y001113D01*
X017763Y001217D01*
X017708Y001352D01*
X017708Y001498D01*
X017763Y001633D01*
X017867Y001737D01*
X018002Y001792D01*
X018148Y001792D01*
X018283Y001737D01*
X018387Y001633D01*
X018442Y001498D01*
X018442Y001352D01*
X018387Y001217D01*
X018283Y001113D01*
X018251Y001100D01*
X018899Y001100D01*
X018867Y001113D01*
X018763Y001217D01*
X018708Y001352D01*
X018708Y001498D01*
X018763Y001633D01*
X018867Y001737D01*
X019002Y001792D01*
X019148Y001792D01*
X019283Y001737D01*
X019387Y001633D01*
X019442Y001498D01*
X019442Y001352D01*
X019387Y001217D01*
X019283Y001113D01*
X019251Y001100D01*
X019899Y001100D01*
X019867Y001113D01*
X019763Y001217D01*
X019708Y001352D01*
X019708Y001498D01*
X019763Y001633D01*
X019867Y001737D01*
X020002Y001792D01*
X020148Y001792D01*
X020283Y001737D01*
X020387Y001633D01*
X020442Y001498D01*
X020442Y001352D01*
X020387Y001217D01*
X020283Y001113D01*
X020251Y001100D01*
X020899Y001100D01*
X020867Y001113D01*
X020763Y001217D01*
X020708Y001352D01*
X020708Y001498D01*
X020763Y001633D01*
X020867Y001737D01*
X021002Y001792D01*
X021148Y001792D01*
X021283Y001737D01*
X021387Y001633D01*
X021442Y001498D01*
X021442Y001352D01*
X021387Y001217D01*
X021283Y001113D01*
X021251Y001100D01*
X021900Y001100D01*
X021841Y001140D01*
X021790Y001191D01*
X021749Y001251D01*
X021722Y001318D01*
X021708Y001389D01*
X021708Y001400D01*
X022050Y001400D01*
X022050Y001450D01*
X022050Y001792D01*
X022039Y001792D01*
X021968Y001778D01*
X021901Y001751D01*
X021841Y001710D01*
X021790Y001659D01*
X021749Y001599D01*
X021722Y001532D01*
X021708Y001461D01*
X021708Y001450D01*
X022050Y001450D01*
X022100Y001450D01*
X022100Y001792D01*
X022111Y001792D01*
X022182Y001778D01*
X022249Y001751D01*
X022309Y001710D01*
X022360Y001659D01*
X022401Y001599D01*
X022428Y001532D01*
X022442Y001461D01*
X022442Y001450D01*
X022100Y001450D01*
X022100Y001400D01*
X022442Y001400D01*
X022442Y001389D01*
X022428Y001318D01*
X022401Y001251D01*
X022360Y001191D01*
X022309Y001140D01*
X022250Y001100D01*
X022899Y001100D01*
X022867Y001113D01*
X022763Y001217D01*
X022708Y001352D01*
X022708Y001498D01*
X022763Y001633D01*
X022867Y001737D01*
X023002Y001792D01*
X023148Y001792D01*
X023283Y001737D01*
X023387Y001633D01*
X023442Y001498D01*
X023442Y001352D01*
X023387Y001217D01*
X023283Y001113D01*
X023251Y001100D01*
X023899Y001100D01*
X023867Y001113D01*
X023763Y001217D01*
X023708Y001352D01*
X023708Y001498D01*
X023763Y001633D01*
X023867Y001737D01*
X024002Y001792D01*
X024148Y001792D01*
X024283Y001737D01*
X024387Y001633D01*
X024442Y001498D01*
X024442Y001352D01*
X024387Y001217D01*
X024283Y001113D01*
X024251Y001100D01*
X024899Y001100D01*
X024867Y001113D01*
X024763Y001217D01*
X024708Y001352D01*
X024708Y001498D01*
X024763Y001633D01*
X024867Y001737D01*
X025002Y001792D01*
X025148Y001792D01*
X025283Y001737D01*
X025387Y001633D01*
X025442Y001498D01*
X025442Y001352D01*
X025387Y001217D01*
X025283Y001113D01*
X025251Y001100D01*
X025899Y001100D01*
X025867Y001113D01*
X025763Y001217D01*
X025708Y001352D01*
X025708Y001498D01*
X025763Y001633D01*
X025867Y001737D01*
X026002Y001792D01*
X026148Y001792D01*
X026283Y001737D01*
X026387Y001633D01*
X026442Y001498D01*
X026442Y001352D01*
X026387Y001217D01*
X026283Y001113D01*
X026251Y001100D01*
X026899Y001100D01*
X026867Y001113D01*
X026763Y001217D01*
X026708Y001352D01*
X026708Y001498D01*
X026763Y001633D01*
X026867Y001737D01*
X027002Y001792D01*
X027148Y001792D01*
X027283Y001737D01*
X027387Y001633D01*
X027442Y001498D01*
X027442Y001352D01*
X027387Y001217D01*
X027283Y001113D01*
X027251Y001100D01*
X027899Y001100D01*
X027867Y001113D01*
X027763Y001217D01*
X027708Y001352D01*
X027708Y001498D01*
X027763Y001633D01*
X027867Y001737D01*
X028002Y001792D01*
X028148Y001792D01*
X028283Y001737D01*
X028387Y001633D01*
X028442Y001498D01*
X028442Y001352D01*
X028387Y001217D01*
X028283Y001113D01*
X028251Y001100D01*
X028900Y001100D01*
X028841Y001140D01*
X028790Y001191D01*
X028749Y001251D01*
X028722Y001318D01*
X028708Y001389D01*
X028708Y001400D01*
X029050Y001400D01*
X029050Y001450D01*
X029050Y001792D01*
X029039Y001792D01*
X028968Y001778D01*
X028901Y001751D01*
X028841Y001710D01*
X028790Y001659D01*
X028749Y001599D01*
X028722Y001532D01*
X028708Y001461D01*
X028708Y001450D01*
X029050Y001450D01*
X029100Y001450D01*
X029100Y001792D01*
X029111Y001792D01*
X029182Y001778D01*
X029249Y001751D01*
X029309Y001710D01*
X029360Y001659D01*
X029400Y001600D01*
X029400Y003749D01*
X029387Y003717D01*
X029283Y003613D01*
X029148Y003558D01*
X029002Y003558D01*
X028867Y003613D01*
X028763Y003717D01*
X028708Y003852D01*
X028708Y003998D01*
X028763Y004133D01*
X028867Y004237D01*
X029002Y004292D01*
X029148Y004292D01*
X029283Y004237D01*
X029387Y004133D01*
X029400Y004101D01*
X029400Y004749D01*
X029387Y004717D01*
X029283Y004613D01*
X029148Y004558D01*
X029002Y004558D01*
X028867Y004613D01*
X028763Y004717D01*
X028708Y004852D01*
X028708Y004998D01*
X028763Y005133D01*
X028867Y005237D01*
X029002Y005292D01*
X029148Y005292D01*
X029283Y005237D01*
X029387Y005133D01*
X029400Y005101D01*
X029400Y005750D01*
X029360Y005691D01*
X029309Y005640D01*
X029249Y005599D01*
X029182Y005572D01*
X029111Y005558D01*
X029100Y005558D01*
X029100Y005900D01*
X029050Y005900D01*
X029050Y005558D01*
X029039Y005558D01*
X028968Y005572D01*
X028901Y005599D01*
X028841Y005640D01*
X028790Y005691D01*
X028749Y005751D01*
X028722Y005818D01*
X028708Y005889D01*
X028708Y005900D01*
X029050Y005900D01*
X029050Y005950D01*
X029050Y006292D01*
X029039Y006292D01*
X028968Y006278D01*
X028901Y006251D01*
X028841Y006210D01*
X028790Y006159D01*
X028749Y006099D01*
X028722Y006032D01*
X028708Y005961D01*
X028708Y005950D01*
X029050Y005950D01*
X029100Y005950D01*
X029100Y006292D01*
X029111Y006292D01*
X029182Y006278D01*
X029249Y006251D01*
X029309Y006210D01*
X029360Y006159D01*
X029400Y006100D01*
X029400Y006749D01*
X029387Y006717D01*
X029283Y006613D01*
X029148Y006558D01*
X029002Y006558D01*
X028867Y006613D01*
X028763Y006717D01*
X028708Y006852D01*
X028708Y006998D01*
X028763Y007133D01*
X026620Y007133D01*
X026626Y007146D02*
X026640Y007218D01*
X026640Y007230D01*
X026290Y007230D01*
X026290Y007280D01*
X026240Y007280D01*
X026240Y007630D01*
X026228Y007630D01*
X026156Y007616D01*
X026087Y007587D01*
X026026Y007546D01*
X025974Y007494D01*
X025933Y007433D01*
X025904Y007364D01*
X025890Y007292D01*
X025890Y007280D01*
X026240Y007280D01*
X026240Y007230D01*
X025890Y007230D01*
X025890Y007218D01*
X025904Y007146D01*
X025933Y007077D01*
X025974Y007016D01*
X026026Y006964D01*
X026087Y006923D01*
X026156Y006894D01*
X026228Y006880D01*
X026240Y006880D01*
X026240Y007230D01*
X026290Y007230D01*
X026290Y006880D01*
X026302Y006880D01*
X026374Y006894D01*
X026443Y006923D01*
X026504Y006964D01*
X026556Y007016D01*
X026597Y007077D01*
X026626Y007146D01*
X026633Y007182D02*
X028812Y007182D01*
X028860Y007230D02*
X026290Y007230D01*
X026290Y007182D02*
X026240Y007182D01*
X026240Y007230D02*
X024860Y007230D01*
X024860Y007182D02*
X025897Y007182D01*
X025910Y007133D02*
X024840Y007133D01*
X024860Y007180D02*
X024803Y007043D01*
X024697Y006937D01*
X024560Y006880D01*
X024410Y006880D01*
X024273Y006937D01*
X024167Y007043D01*
X024110Y007180D01*
X024110Y007330D01*
X024167Y007467D01*
X024273Y007573D01*
X024410Y007630D01*
X024560Y007630D01*
X024697Y007573D01*
X024803Y007467D01*
X024860Y007330D01*
X024860Y007180D01*
X024860Y007279D02*
X026240Y007279D01*
X026240Y007327D02*
X026290Y007327D01*
X026290Y007280D02*
X026290Y007630D01*
X026302Y007630D01*
X026374Y007616D01*
X026443Y007587D01*
X026504Y007546D01*
X026556Y007494D01*
X026597Y007433D01*
X026626Y007364D01*
X026640Y007292D01*
X026640Y007280D01*
X026290Y007280D01*
X026290Y007279D02*
X028968Y007279D01*
X029002Y007292D02*
X028867Y007237D01*
X028763Y007133D01*
X028743Y007085D02*
X026600Y007085D01*
X026570Y007036D02*
X028723Y007036D01*
X028708Y006988D02*
X026528Y006988D01*
X026467Y006939D02*
X028708Y006939D01*
X028708Y006891D02*
X026355Y006891D01*
X026290Y006891D02*
X026240Y006891D01*
X026240Y006939D02*
X026290Y006939D01*
X026290Y006988D02*
X026240Y006988D01*
X026240Y007036D02*
X026290Y007036D01*
X026290Y007085D02*
X026240Y007085D01*
X026240Y007133D02*
X026290Y007133D01*
X026063Y006939D02*
X024699Y006939D01*
X024748Y006988D02*
X026002Y006988D01*
X025960Y007036D02*
X024796Y007036D01*
X024820Y007085D02*
X025930Y007085D01*
X025897Y007327D02*
X024860Y007327D01*
X024841Y007376D02*
X025909Y007376D01*
X025929Y007424D02*
X024821Y007424D01*
X024798Y007473D02*
X025959Y007473D01*
X026001Y007521D02*
X024749Y007521D01*
X024701Y007570D02*
X026061Y007570D01*
X026168Y007618D02*
X024588Y007618D01*
X024382Y007618D02*
X019565Y007618D01*
X019590Y007593D02*
X019493Y007690D01*
X019357Y007690D01*
X019260Y007593D01*
X019260Y007457D01*
X019357Y007360D01*
X019493Y007360D01*
X019590Y007457D01*
X019590Y007593D01*
X019590Y007570D02*
X023736Y007570D01*
X023757Y007590D02*
X023660Y007493D01*
X023660Y007357D01*
X023757Y007260D01*
X023893Y007260D01*
X023990Y007357D01*
X023990Y007493D01*
X023893Y007590D01*
X023757Y007590D01*
X023688Y007521D02*
X019590Y007521D01*
X019590Y007473D02*
X023660Y007473D01*
X023660Y007424D02*
X019557Y007424D01*
X019509Y007376D02*
X023660Y007376D01*
X023690Y007327D02*
X019190Y007327D01*
X019190Y007343D02*
X019093Y007440D01*
X018957Y007440D01*
X018940Y007423D01*
X018940Y007493D01*
X018843Y007590D01*
X018707Y007590D01*
X018610Y007493D01*
X018610Y007357D01*
X018707Y007260D01*
X018843Y007260D01*
X018860Y007277D01*
X018860Y007207D01*
X018957Y007110D01*
X019093Y007110D01*
X019190Y007207D01*
X019190Y007343D01*
X019158Y007376D02*
X019341Y007376D01*
X019293Y007424D02*
X019109Y007424D01*
X019260Y007473D02*
X018940Y007473D01*
X018940Y007424D02*
X018941Y007424D01*
X018912Y007521D02*
X019260Y007521D01*
X019260Y007570D02*
X018864Y007570D01*
X018686Y007570D02*
X011190Y007570D01*
X011190Y007593D02*
X011093Y007690D01*
X010957Y007690D01*
X010860Y007593D01*
X010860Y007457D01*
X010942Y007375D01*
X010860Y007293D01*
X010860Y007157D01*
X010957Y007060D01*
X010977Y007060D01*
X010960Y007043D01*
X010960Y006907D01*
X011057Y006810D01*
X011193Y006810D01*
X011225Y006842D01*
X011307Y006760D01*
X011443Y006760D01*
X011540Y006857D01*
X011540Y006993D01*
X011443Y007090D01*
X011307Y007090D01*
X011275Y007058D01*
X011193Y007140D01*
X011173Y007140D01*
X011190Y007157D01*
X011190Y007293D01*
X011108Y007375D01*
X011190Y007457D01*
X011190Y007593D01*
X011165Y007618D02*
X014899Y007618D01*
X014907Y007610D02*
X015043Y007610D01*
X015140Y007707D01*
X015140Y007843D01*
X015043Y007940D01*
X014907Y007940D01*
X014810Y007843D01*
X014810Y007707D01*
X014907Y007610D01*
X014850Y007667D02*
X011117Y007667D01*
X010933Y007667D02*
X007490Y007667D01*
X007490Y007693D02*
X007393Y007790D01*
X007373Y007790D01*
X007440Y007857D01*
X007440Y007993D01*
X007343Y008090D01*
X007207Y008090D01*
X007110Y007993D01*
X007110Y007857D01*
X007207Y007760D01*
X007227Y007760D01*
X007160Y007693D01*
X007160Y007557D01*
X007257Y007460D01*
X007393Y007460D01*
X007490Y007557D01*
X007490Y007693D01*
X007468Y007715D02*
X014810Y007715D01*
X014810Y007764D02*
X007420Y007764D01*
X007395Y007812D02*
X014810Y007812D01*
X014827Y007861D02*
X007440Y007861D01*
X007440Y007909D02*
X014876Y007909D01*
X015074Y007909D02*
X025358Y007909D01*
X025310Y007957D02*
X025407Y007860D01*
X025543Y007860D01*
X025640Y007957D01*
X025640Y008093D01*
X025543Y008190D01*
X025407Y008190D01*
X025310Y008093D01*
X025310Y007957D01*
X025310Y007958D02*
X009191Y007958D01*
X009143Y007910D02*
X009240Y008007D01*
X009240Y008143D01*
X009143Y008240D01*
X009007Y008240D01*
X008910Y008143D01*
X008910Y008007D01*
X009007Y007910D01*
X009143Y007910D01*
X009239Y008006D02*
X025310Y008006D01*
X025310Y008055D02*
X019988Y008055D01*
X019943Y008010D02*
X020040Y008107D01*
X020040Y008243D01*
X019943Y008340D01*
X019807Y008340D01*
X019710Y008243D01*
X019710Y008107D01*
X019807Y008010D01*
X019943Y008010D01*
X020036Y008103D02*
X025320Y008103D01*
X025368Y008152D02*
X020040Y008152D01*
X020040Y008200D02*
X028830Y008200D01*
X028867Y008237D02*
X028763Y008133D01*
X028708Y007998D01*
X028708Y007852D01*
X028763Y007717D01*
X028867Y007613D01*
X029002Y007558D01*
X029148Y007558D01*
X029283Y007613D01*
X029387Y007717D01*
X029400Y007749D01*
X029400Y007101D01*
X029387Y007133D01*
X029400Y007133D01*
X029387Y007133D02*
X029283Y007237D01*
X029148Y007292D01*
X029002Y007292D01*
X029182Y007279D02*
X029400Y007279D01*
X029400Y007327D02*
X026633Y007327D01*
X026621Y007376D02*
X029400Y007376D01*
X029400Y007424D02*
X026601Y007424D01*
X026571Y007473D02*
X029400Y007473D01*
X029400Y007521D02*
X026529Y007521D01*
X026469Y007570D02*
X028973Y007570D01*
X028862Y007618D02*
X026362Y007618D01*
X026290Y007618D02*
X026240Y007618D01*
X026240Y007570D02*
X026290Y007570D01*
X026290Y007521D02*
X026240Y007521D01*
X026240Y007473D02*
X026290Y007473D01*
X026290Y007424D02*
X026240Y007424D01*
X026240Y007376D02*
X026290Y007376D01*
X026960Y007807D02*
X027057Y007710D01*
X027193Y007710D01*
X027290Y007807D01*
X027290Y007943D01*
X027193Y008040D01*
X027057Y008040D01*
X026960Y007943D01*
X026960Y007807D01*
X026960Y007812D02*
X015140Y007812D01*
X015140Y007764D02*
X027003Y007764D01*
X027052Y007715D02*
X015140Y007715D01*
X015100Y007667D02*
X019333Y007667D01*
X019285Y007618D02*
X015051Y007618D01*
X015123Y007861D02*
X025406Y007861D01*
X025544Y007861D02*
X026960Y007861D01*
X026960Y007909D02*
X025592Y007909D01*
X025640Y007958D02*
X026974Y007958D01*
X027023Y008006D02*
X025640Y008006D01*
X025640Y008055D02*
X028731Y008055D01*
X028751Y008103D02*
X025630Y008103D01*
X025582Y008152D02*
X028782Y008152D01*
X028867Y008237D02*
X029002Y008292D01*
X029148Y008292D01*
X029283Y008237D01*
X029387Y008133D01*
X029400Y008101D01*
X029400Y010250D01*
X029360Y010191D01*
X029309Y010140D01*
X029249Y010099D01*
X029182Y010072D01*
X029111Y010058D01*
X029100Y010058D01*
X029100Y010400D01*
X029050Y010400D01*
X029050Y010058D01*
X029039Y010058D01*
X028968Y010072D01*
X028901Y010099D01*
X028841Y010140D01*
X028790Y010191D01*
X028749Y010251D01*
X028722Y010318D01*
X028708Y010389D01*
X028708Y010400D01*
X029050Y010400D01*
X029050Y010450D01*
X028708Y010450D01*
X028708Y010461D01*
X028722Y010532D01*
X028749Y010599D01*
X028790Y010659D01*
X028841Y010710D01*
X028900Y010750D01*
X028251Y010750D01*
X028283Y010737D01*
X028387Y010633D01*
X028442Y010498D01*
X028442Y010352D01*
X028387Y010217D01*
X028283Y010113D01*
X028148Y010058D01*
X028002Y010058D01*
X027867Y010113D01*
X027763Y010217D01*
X027708Y010352D01*
X027708Y010498D01*
X027763Y010633D01*
X027867Y010737D01*
X027899Y010750D01*
X027251Y010750D01*
X027283Y010737D01*
X027387Y010633D01*
X027442Y010498D01*
X027442Y010352D01*
X027387Y010217D01*
X027283Y010113D01*
X027148Y010058D01*
X027002Y010058D01*
X026867Y010113D01*
X026763Y010217D01*
X026708Y010352D01*
X026708Y010498D01*
X026763Y010633D01*
X026867Y010737D01*
X026899Y010750D01*
X026251Y010750D01*
X026283Y010737D01*
X026387Y010633D01*
X026442Y010498D01*
X026442Y010352D01*
X026387Y010217D01*
X026283Y010113D01*
X026148Y010058D01*
X026002Y010058D01*
X025867Y010113D01*
X025763Y010217D01*
X025708Y010352D01*
X025708Y010498D01*
X025763Y010633D01*
X025867Y010737D01*
X025899Y010750D01*
X025251Y010750D01*
X025283Y010737D01*
X025387Y010633D01*
X025442Y010498D01*
X025442Y010352D01*
X025387Y010217D01*
X025283Y010113D01*
X025148Y010058D01*
X025002Y010058D01*
X024867Y010113D01*
X024763Y010217D01*
X024708Y010352D01*
X024708Y010498D01*
X024763Y010633D01*
X024867Y010737D01*
X024899Y010750D01*
X024251Y010750D01*
X024283Y010737D01*
X024387Y010633D01*
X024442Y010498D01*
X024442Y010352D01*
X024387Y010217D01*
X024283Y010113D01*
X024148Y010058D01*
X024002Y010058D01*
X023867Y010113D01*
X023763Y010217D01*
X023708Y010352D01*
X023708Y010498D01*
X023763Y010633D01*
X023867Y010737D01*
X023899Y010750D01*
X023251Y010750D01*
X023283Y010737D01*
X023387Y010633D01*
X023442Y010498D01*
X023442Y010352D01*
X023387Y010217D01*
X023283Y010113D01*
X023148Y010058D01*
X023002Y010058D01*
X022867Y010113D01*
X022763Y010217D01*
X022708Y010352D01*
X022708Y010498D01*
X022763Y010633D01*
X022867Y010737D01*
X022899Y010750D01*
X022251Y010750D01*
X022283Y010737D01*
X022387Y010633D01*
X022442Y010498D01*
X022442Y010352D01*
X022387Y010217D01*
X022283Y010113D01*
X022148Y010058D01*
X022002Y010058D01*
X021867Y010113D01*
X021763Y010217D01*
X021708Y010352D01*
X021708Y010498D01*
X021763Y010633D01*
X021867Y010737D01*
X021899Y010750D01*
X021251Y010750D01*
X021283Y010737D01*
X021387Y010633D01*
X021442Y010498D01*
X021442Y010352D01*
X021387Y010217D01*
X021283Y010113D01*
X021148Y010058D01*
X021002Y010058D01*
X020867Y010113D01*
X020763Y010217D01*
X020708Y010352D01*
X020708Y010498D01*
X020763Y010633D01*
X020867Y010737D01*
X020899Y010750D01*
X020251Y010750D01*
X020283Y010737D01*
X020387Y010633D01*
X020442Y010498D01*
X020442Y010352D01*
X020387Y010217D01*
X020283Y010113D01*
X020148Y010058D01*
X020002Y010058D01*
X019867Y010113D01*
X019763Y010217D01*
X019708Y010352D01*
X019708Y010498D01*
X019763Y010633D01*
X019867Y010737D01*
X019899Y010750D01*
X019251Y010750D01*
X019283Y010737D01*
X019387Y010633D01*
X019442Y010498D01*
X019442Y010352D01*
X019387Y010217D01*
X019283Y010113D01*
X019148Y010058D01*
X019002Y010058D01*
X018867Y010113D01*
X018763Y010217D01*
X018708Y010352D01*
X018708Y010498D01*
X018763Y010633D01*
X018867Y010737D01*
X018899Y010750D01*
X018251Y010750D01*
X018283Y010737D01*
X018387Y010633D01*
X018442Y010498D01*
X018442Y010352D01*
X018387Y010217D01*
X018283Y010113D01*
X018148Y010058D01*
X018002Y010058D01*
X017867Y010113D01*
X017763Y010217D01*
X017708Y010352D01*
X017708Y010498D01*
X017763Y010633D01*
X017867Y010737D01*
X017899Y010750D01*
X017251Y010750D01*
X017283Y010737D01*
X017387Y010633D01*
X017442Y010498D01*
X017442Y010352D01*
X017387Y010217D01*
X017283Y010113D01*
X017148Y010058D01*
X017002Y010058D01*
X016867Y010113D01*
X016763Y010217D01*
X016708Y010352D01*
X016708Y010498D01*
X016763Y010633D01*
X016867Y010737D01*
X016899Y010750D01*
X016251Y010750D01*
X016283Y010737D01*
X016387Y010633D01*
X016442Y010498D01*
X016442Y010352D01*
X016387Y010217D01*
X016283Y010113D01*
X016148Y010058D01*
X016002Y010058D01*
X015867Y010113D01*
X015763Y010217D01*
X015708Y010352D01*
X015708Y010498D01*
X015763Y010633D01*
X015867Y010737D01*
X015899Y010750D01*
X015251Y010750D01*
X015283Y010737D01*
X015387Y010633D01*
X015442Y010498D01*
X015442Y010352D01*
X015387Y010217D01*
X015283Y010113D01*
X015148Y010058D01*
X015002Y010058D01*
X014867Y010113D01*
X014763Y010217D01*
X014708Y010352D01*
X014708Y010498D01*
X014763Y010633D01*
X014867Y010737D01*
X014899Y010750D01*
X014251Y010750D01*
X014283Y010737D01*
X014387Y010633D01*
X014442Y010498D01*
X014442Y010352D01*
X014387Y010217D01*
X014283Y010113D01*
X014148Y010058D01*
X014002Y010058D01*
X013867Y010113D01*
X013763Y010217D01*
X013708Y010352D01*
X013708Y010498D01*
X013763Y010633D01*
X013867Y010737D01*
X013899Y010750D01*
X013251Y010750D01*
X013283Y010737D01*
X013387Y010633D01*
X013442Y010498D01*
X013442Y010352D01*
X013387Y010217D01*
X013283Y010113D01*
X013148Y010058D01*
X013002Y010058D01*
X012867Y010113D01*
X012763Y010217D01*
X012708Y010352D01*
X012708Y010498D01*
X012763Y010633D01*
X012867Y010737D01*
X012899Y010750D01*
X012251Y010750D01*
X012283Y010737D01*
X012387Y010633D01*
X012442Y010498D01*
X012442Y010352D01*
X012387Y010217D01*
X012283Y010113D01*
X012148Y010058D01*
X012002Y010058D01*
X011867Y010113D01*
X011763Y010217D01*
X011708Y010352D01*
X011708Y010498D01*
X011763Y010633D01*
X011867Y010737D01*
X011899Y010750D01*
X011251Y010750D01*
X011283Y010737D01*
X011387Y010633D01*
X011442Y010498D01*
X011442Y010352D01*
X011387Y010217D01*
X011283Y010113D01*
X011148Y010058D01*
X011002Y010058D01*
X010867Y010113D01*
X010763Y010217D01*
X010708Y010352D01*
X010708Y010498D01*
X010763Y010633D01*
X010867Y010737D01*
X010899Y010750D01*
X010251Y010750D01*
X010283Y010737D01*
X010387Y010633D01*
X010442Y010498D01*
X010442Y010352D01*
X010387Y010217D01*
X010283Y010113D01*
X010148Y010058D01*
X010002Y010058D01*
X009867Y010113D01*
X009763Y010217D01*
X009708Y010352D01*
X009708Y010498D01*
X009763Y010633D01*
X009867Y010737D01*
X009899Y010750D01*
X009251Y010750D01*
X009283Y010737D01*
X009387Y010633D01*
X009442Y010498D01*
X009442Y010352D01*
X009387Y010217D01*
X009283Y010113D01*
X009148Y010058D01*
X009002Y010058D01*
X008867Y010113D01*
X008763Y010217D01*
X008708Y010352D01*
X008708Y010498D01*
X008763Y010633D01*
X008867Y010737D01*
X008899Y010750D01*
X008251Y010750D01*
X008283Y010737D01*
X008387Y010633D01*
X008442Y010498D01*
X008442Y010352D01*
X008387Y010217D01*
X008283Y010113D01*
X008148Y010058D01*
X008002Y010058D01*
X007867Y010113D01*
X007763Y010217D01*
X007708Y010352D01*
X007708Y010498D01*
X007763Y010633D01*
X007867Y010737D01*
X007899Y010750D01*
X007251Y010750D01*
X007283Y010737D01*
X007387Y010633D01*
X007442Y010498D01*
X007442Y010352D01*
X007387Y010217D01*
X007283Y010113D01*
X007148Y010058D01*
X007002Y010058D01*
X006867Y010113D01*
X006763Y010217D01*
X006708Y010352D01*
X006708Y010498D01*
X006763Y010633D01*
X006867Y010737D01*
X006899Y010750D01*
X006251Y010750D01*
X006283Y010737D01*
X006387Y010633D01*
X006442Y010498D01*
X006442Y010352D01*
X006387Y010217D01*
X006283Y010113D01*
X006148Y010058D01*
X006002Y010058D01*
X005867Y010113D01*
X005763Y010217D01*
X005708Y010352D01*
X005708Y010498D01*
X005763Y010633D01*
X005867Y010737D01*
X005899Y010750D01*
X005251Y010750D01*
X005283Y010737D01*
X005387Y010633D01*
X005442Y010498D01*
X005442Y010352D01*
X005387Y010217D01*
X005283Y010113D01*
X005148Y010058D01*
X005002Y010058D01*
X004867Y010113D01*
X004763Y010217D01*
X004708Y010352D01*
X004708Y010498D01*
X004763Y010633D01*
X004867Y010737D01*
X004899Y010750D01*
X004251Y010750D01*
X004283Y010737D01*
X004387Y010633D01*
X004442Y010498D01*
X004442Y010352D01*
X004387Y010217D01*
X004283Y010113D01*
X004148Y010058D01*
X004002Y010058D01*
X003867Y010113D01*
X003763Y010217D01*
X003708Y010352D01*
X003708Y010498D01*
X003763Y010633D01*
X003867Y010737D01*
X003899Y010750D01*
X003251Y010750D01*
X003283Y010737D01*
X003387Y010633D01*
X003442Y010498D01*
X003442Y010352D01*
X003387Y010217D01*
X003283Y010113D01*
X003148Y010058D01*
X003002Y010058D01*
X002867Y010113D01*
X002763Y010217D01*
X002708Y010352D01*
X002708Y010498D01*
X002763Y010633D01*
X002867Y010737D01*
X002899Y010750D01*
X001750Y010750D01*
X001750Y001600D01*
X001790Y001659D01*
X001841Y001710D01*
X001901Y001751D01*
X001968Y001778D01*
X002039Y001792D01*
X002050Y001792D01*
X002050Y001450D01*
X002100Y001450D01*
X002442Y001450D01*
X002442Y001461D01*
X002428Y001532D01*
X002401Y001599D01*
X002360Y001659D01*
X002309Y001710D01*
X002249Y001751D01*
X002182Y001778D01*
X002111Y001792D01*
X002100Y001792D01*
X002100Y001450D01*
X002100Y001400D01*
X002442Y001400D01*
X002442Y001389D01*
X002428Y001318D01*
X002401Y001251D01*
X002360Y001191D01*
X002309Y001140D01*
X002279Y001119D02*
X002861Y001119D01*
X002813Y001168D02*
X002337Y001168D01*
X002377Y001216D02*
X002764Y001216D01*
X002744Y001265D02*
X002406Y001265D01*
X002426Y001313D02*
X002724Y001313D01*
X002708Y001362D02*
X002437Y001362D01*
X002442Y001459D02*
X002708Y001459D01*
X002711Y001507D02*
X002433Y001507D01*
X002419Y001556D02*
X002731Y001556D01*
X002751Y001604D02*
X002397Y001604D01*
X002365Y001653D02*
X002783Y001653D01*
X002831Y001701D02*
X002319Y001701D01*
X002251Y001750D02*
X002898Y001750D01*
X003252Y001750D02*
X003898Y001750D01*
X003831Y001701D02*
X003319Y001701D01*
X003367Y001653D02*
X003783Y001653D01*
X003751Y001604D02*
X003399Y001604D01*
X003419Y001556D02*
X003731Y001556D01*
X003711Y001507D02*
X003439Y001507D01*
X003442Y001459D02*
X003708Y001459D01*
X003708Y001410D02*
X003442Y001410D01*
X003442Y001362D02*
X003708Y001362D01*
X003724Y001313D02*
X003426Y001313D01*
X003406Y001265D02*
X003744Y001265D01*
X003764Y001216D02*
X003386Y001216D01*
X003337Y001168D02*
X003813Y001168D01*
X003861Y001119D02*
X003289Y001119D01*
X002708Y001410D02*
X002100Y001410D01*
X002100Y001459D02*
X002050Y001459D01*
X002050Y001507D02*
X002100Y001507D01*
X002100Y001556D02*
X002050Y001556D01*
X002050Y001604D02*
X002100Y001604D01*
X002100Y001653D02*
X002050Y001653D01*
X002050Y001701D02*
X002100Y001701D01*
X002100Y001750D02*
X002050Y001750D01*
X001899Y001750D02*
X001750Y001750D01*
X001750Y001798D02*
X016410Y001798D01*
X016410Y001757D02*
X016410Y001893D01*
X016427Y001910D01*
X016307Y001910D01*
X016210Y002007D01*
X016210Y002143D01*
X016307Y002240D01*
X016443Y002240D01*
X016540Y002143D01*
X016540Y002007D01*
X016523Y001990D01*
X016643Y001990D01*
X016740Y001893D01*
X016740Y001757D01*
X016643Y001660D01*
X016507Y001660D01*
X016410Y001757D01*
X016417Y001750D02*
X016252Y001750D01*
X016319Y001701D02*
X016466Y001701D01*
X016367Y001653D02*
X016783Y001653D01*
X016751Y001604D02*
X016399Y001604D01*
X016419Y001556D02*
X016731Y001556D01*
X016711Y001507D02*
X016439Y001507D01*
X016442Y001459D02*
X016708Y001459D01*
X016708Y001410D02*
X016442Y001410D01*
X016442Y001362D02*
X016708Y001362D01*
X016724Y001313D02*
X016426Y001313D01*
X016406Y001265D02*
X016744Y001265D01*
X016764Y001216D02*
X016386Y001216D01*
X016337Y001168D02*
X016813Y001168D01*
X016861Y001119D02*
X016289Y001119D01*
X015861Y001119D02*
X015289Y001119D01*
X015337Y001168D02*
X015813Y001168D01*
X015764Y001216D02*
X015386Y001216D01*
X015406Y001265D02*
X015744Y001265D01*
X015724Y001313D02*
X015426Y001313D01*
X015442Y001362D02*
X015708Y001362D01*
X015708Y001410D02*
X015442Y001410D01*
X015442Y001459D02*
X015708Y001459D01*
X015711Y001507D02*
X015439Y001507D01*
X015419Y001556D02*
X015731Y001556D01*
X015751Y001604D02*
X015399Y001604D01*
X015367Y001653D02*
X015783Y001653D01*
X015831Y001701D02*
X015319Y001701D01*
X015252Y001750D02*
X015898Y001750D01*
X016225Y001992D02*
X001750Y001992D01*
X001750Y001944D02*
X016273Y001944D01*
X016210Y002041D02*
X001750Y002041D01*
X001750Y002089D02*
X016210Y002089D01*
X016210Y002138D02*
X001750Y002138D01*
X001750Y002186D02*
X016253Y002186D01*
X016301Y002235D02*
X001750Y002235D01*
X001750Y002283D02*
X021010Y002283D01*
X021010Y002257D02*
X021107Y002160D01*
X021243Y002160D01*
X021340Y002257D01*
X021340Y002393D01*
X021243Y002490D01*
X021107Y002490D01*
X021010Y002393D01*
X021010Y002257D01*
X021032Y002235D02*
X016449Y002235D01*
X016497Y002186D02*
X021081Y002186D01*
X021010Y002332D02*
X019765Y002332D01*
X019743Y002310D02*
X019840Y002407D01*
X019840Y002543D01*
X019743Y002640D01*
X019607Y002640D01*
X019510Y002543D01*
X019510Y002407D01*
X019607Y002310D01*
X019743Y002310D01*
X019813Y002380D02*
X021010Y002380D01*
X021045Y002429D02*
X019840Y002429D01*
X019840Y002477D02*
X021094Y002477D01*
X021256Y002477D02*
X029400Y002477D01*
X029400Y002429D02*
X021305Y002429D01*
X021340Y002380D02*
X029400Y002380D01*
X029400Y002332D02*
X021340Y002332D01*
X021340Y002283D02*
X022500Y002283D01*
X022507Y002290D02*
X022410Y002193D01*
X022410Y002057D01*
X022507Y001960D01*
X022643Y001960D01*
X022740Y002057D01*
X022740Y002193D01*
X022643Y002290D01*
X022507Y002290D01*
X022451Y002235D02*
X021318Y002235D01*
X021269Y002186D02*
X022410Y002186D01*
X022410Y002138D02*
X016540Y002138D01*
X016540Y002089D02*
X021556Y002089D01*
X021557Y002090D02*
X021460Y001993D01*
X021460Y001857D01*
X021557Y001760D01*
X021693Y001760D01*
X021790Y001857D01*
X021790Y001993D01*
X021693Y002090D01*
X021557Y002090D01*
X021507Y002041D02*
X016540Y002041D01*
X016525Y001992D02*
X021460Y001992D01*
X021460Y001944D02*
X016690Y001944D01*
X016738Y001895D02*
X021460Y001895D01*
X021470Y001847D02*
X016740Y001847D01*
X016740Y001798D02*
X021519Y001798D01*
X021731Y001798D02*
X029400Y001798D01*
X029400Y001750D02*
X029251Y001750D01*
X029319Y001701D02*
X029400Y001701D01*
X029400Y001653D02*
X029365Y001653D01*
X029397Y001604D02*
X029400Y001604D01*
X029100Y001604D02*
X029050Y001604D01*
X029050Y001556D02*
X029100Y001556D01*
X029100Y001507D02*
X029050Y001507D01*
X029050Y001459D02*
X029100Y001459D01*
X029050Y001410D02*
X028442Y001410D01*
X028442Y001362D02*
X028713Y001362D01*
X028724Y001313D02*
X028426Y001313D01*
X028406Y001265D02*
X028744Y001265D01*
X028773Y001216D02*
X028386Y001216D01*
X028337Y001168D02*
X028813Y001168D01*
X028871Y001119D02*
X028289Y001119D01*
X027861Y001119D02*
X027289Y001119D01*
X027337Y001168D02*
X027813Y001168D01*
X027764Y001216D02*
X027386Y001216D01*
X027406Y001265D02*
X027744Y001265D01*
X027724Y001313D02*
X027426Y001313D01*
X027442Y001362D02*
X027708Y001362D01*
X027708Y001410D02*
X027442Y001410D01*
X027442Y001459D02*
X027708Y001459D01*
X027711Y001507D02*
X027439Y001507D01*
X027419Y001556D02*
X027731Y001556D01*
X027751Y001604D02*
X027399Y001604D01*
X027367Y001653D02*
X027783Y001653D01*
X027831Y001701D02*
X027319Y001701D01*
X027252Y001750D02*
X027898Y001750D01*
X028252Y001750D02*
X028899Y001750D01*
X028831Y001701D02*
X028319Y001701D01*
X028367Y001653D02*
X028785Y001653D01*
X028753Y001604D02*
X028399Y001604D01*
X028419Y001556D02*
X028731Y001556D01*
X028717Y001507D02*
X028439Y001507D01*
X028442Y001459D02*
X028708Y001459D01*
X029050Y001653D02*
X029100Y001653D01*
X029100Y001701D02*
X029050Y001701D01*
X029050Y001750D02*
X029100Y001750D01*
X029400Y001847D02*
X021780Y001847D01*
X021790Y001895D02*
X029400Y001895D01*
X029400Y001944D02*
X021790Y001944D01*
X021790Y001992D02*
X022475Y001992D01*
X022426Y002041D02*
X021743Y002041D01*
X021694Y002089D02*
X022410Y002089D01*
X022675Y001992D02*
X029400Y001992D01*
X029400Y002041D02*
X022724Y002041D01*
X022740Y002089D02*
X029400Y002089D01*
X029400Y002138D02*
X022740Y002138D01*
X022740Y002186D02*
X029400Y002186D01*
X029400Y002235D02*
X022699Y002235D01*
X022650Y002283D02*
X029400Y002283D01*
X029400Y002526D02*
X019840Y002526D01*
X019809Y002574D02*
X029400Y002574D01*
X029400Y002623D02*
X019761Y002623D01*
X019589Y002623D02*
X011461Y002623D01*
X011443Y002640D02*
X011307Y002640D01*
X011210Y002543D01*
X011210Y002407D01*
X011307Y002310D01*
X011443Y002310D01*
X011540Y002407D01*
X011540Y002543D01*
X011443Y002640D01*
X011509Y002574D02*
X019541Y002574D01*
X019510Y002526D02*
X011540Y002526D01*
X011540Y002477D02*
X019510Y002477D01*
X019510Y002429D02*
X011540Y002429D01*
X011513Y002380D02*
X019537Y002380D01*
X019585Y002332D02*
X011465Y002332D01*
X011285Y002332D02*
X001750Y002332D01*
X001750Y002380D02*
X011237Y002380D01*
X011210Y002429D02*
X011062Y002429D01*
X011043Y002410D02*
X011140Y002507D01*
X011140Y002643D01*
X011043Y002740D01*
X010907Y002740D01*
X010810Y002643D01*
X010810Y002507D01*
X010907Y002410D01*
X011043Y002410D01*
X011110Y002477D02*
X011210Y002477D01*
X011210Y002526D02*
X011140Y002526D01*
X011140Y002574D02*
X011241Y002574D01*
X011289Y002623D02*
X011140Y002623D01*
X011112Y002671D02*
X028496Y002671D01*
X028507Y002660D02*
X028643Y002660D01*
X028740Y002757D01*
X028740Y002893D01*
X028643Y002990D01*
X028507Y002990D01*
X028410Y002893D01*
X028410Y002757D01*
X028507Y002660D01*
X028447Y002720D02*
X025553Y002720D01*
X025543Y002710D02*
X025640Y002807D01*
X025640Y002943D01*
X025543Y003040D01*
X025407Y003040D01*
X025310Y002943D01*
X025310Y002807D01*
X025407Y002710D01*
X025543Y002710D01*
X025601Y002768D02*
X028410Y002768D01*
X028410Y002817D02*
X025640Y002817D01*
X025640Y002865D02*
X028410Y002865D01*
X028430Y002914D02*
X025640Y002914D01*
X025621Y002962D02*
X028479Y002962D01*
X028671Y002962D02*
X029400Y002962D01*
X029400Y002914D02*
X028720Y002914D01*
X028740Y002865D02*
X029400Y002865D01*
X029400Y002817D02*
X028740Y002817D01*
X028740Y002768D02*
X029400Y002768D01*
X029400Y002720D02*
X028703Y002720D01*
X028654Y002671D02*
X029400Y002671D01*
X029400Y003011D02*
X025573Y003011D01*
X025377Y003011D02*
X010923Y003011D01*
X010940Y002993D02*
X010843Y003090D01*
X010707Y003090D01*
X010610Y002993D01*
X010610Y002857D01*
X010707Y002760D01*
X010843Y002760D01*
X010940Y002857D01*
X010940Y002993D01*
X010940Y002962D02*
X025329Y002962D01*
X025310Y002914D02*
X010940Y002914D01*
X010940Y002865D02*
X025310Y002865D01*
X025310Y002817D02*
X010900Y002817D01*
X010851Y002768D02*
X025349Y002768D01*
X025397Y002720D02*
X011064Y002720D01*
X010886Y002720D02*
X001750Y002720D01*
X001750Y002768D02*
X010699Y002768D01*
X010650Y002817D02*
X001750Y002817D01*
X001750Y002865D02*
X010610Y002865D01*
X010610Y002914D02*
X001750Y002914D01*
X001750Y002962D02*
X010610Y002962D01*
X010627Y003011D02*
X001750Y003011D01*
X001750Y003059D02*
X010676Y003059D01*
X010874Y003059D02*
X029400Y003059D01*
X029400Y003108D02*
X017691Y003108D01*
X017643Y003060D02*
X017740Y003157D01*
X017740Y003293D01*
X017643Y003390D01*
X017507Y003390D01*
X017410Y003293D01*
X017410Y003157D01*
X017507Y003060D01*
X017643Y003060D01*
X017739Y003156D02*
X029400Y003156D01*
X029400Y003205D02*
X017740Y003205D01*
X017740Y003253D02*
X029400Y003253D01*
X029400Y003302D02*
X017732Y003302D01*
X017683Y003350D02*
X029400Y003350D01*
X029400Y003399D02*
X017140Y003399D01*
X017140Y003357D02*
X017043Y003260D01*
X016907Y003260D01*
X016810Y003357D01*
X016810Y003493D01*
X016907Y003590D01*
X017043Y003590D01*
X017140Y003493D01*
X017140Y003357D01*
X017133Y003350D02*
X017467Y003350D01*
X017418Y003302D02*
X017085Y003302D01*
X017140Y003447D02*
X029400Y003447D01*
X029400Y003496D02*
X021529Y003496D01*
X021493Y003460D02*
X021590Y003557D01*
X021590Y003693D01*
X021493Y003790D01*
X021357Y003790D01*
X021260Y003693D01*
X021260Y003557D01*
X021357Y003460D01*
X021493Y003460D01*
X021577Y003544D02*
X021773Y003544D01*
X021807Y003510D02*
X021943Y003510D01*
X022040Y003607D01*
X022040Y003743D01*
X021943Y003840D01*
X021807Y003840D01*
X021710Y003743D01*
X021710Y003607D01*
X021807Y003510D01*
X021724Y003593D02*
X021590Y003593D01*
X021590Y003641D02*
X021710Y003641D01*
X021710Y003690D02*
X021590Y003690D01*
X021545Y003738D02*
X021710Y003738D01*
X021753Y003787D02*
X021497Y003787D01*
X021353Y003787D02*
X020340Y003787D01*
X020340Y003835D02*
X021802Y003835D01*
X021948Y003835D02*
X028714Y003835D01*
X028708Y003884D02*
X024367Y003884D01*
X024343Y003860D02*
X024440Y003957D01*
X024440Y004093D01*
X024343Y004190D01*
X024207Y004190D01*
X024110Y004093D01*
X024110Y003957D01*
X024207Y003860D01*
X024343Y003860D01*
X024415Y003932D02*
X028708Y003932D01*
X028708Y003981D02*
X024440Y003981D01*
X024440Y004029D02*
X028720Y004029D01*
X028740Y004078D02*
X024440Y004078D01*
X024407Y004126D02*
X028760Y004126D01*
X028805Y004175D02*
X024359Y004175D01*
X024191Y004175D02*
X023658Y004175D01*
X023690Y004207D02*
X023593Y004110D01*
X023457Y004110D01*
X023360Y004207D01*
X023360Y004343D01*
X023457Y004440D01*
X023593Y004440D01*
X023690Y004343D01*
X023690Y004207D01*
X023690Y004223D02*
X028853Y004223D01*
X028951Y004272D02*
X023690Y004272D01*
X023690Y004320D02*
X024410Y004320D01*
X024560Y004320D01*
X026228Y004320D01*
X026156Y004334D01*
X026087Y004363D01*
X026026Y004404D01*
X025974Y004456D01*
X025933Y004517D01*
X025904Y004586D01*
X025890Y004658D01*
X025890Y004670D01*
X026240Y004670D01*
X026240Y004720D01*
X026240Y005070D01*
X026228Y005070D01*
X026156Y005056D01*
X026087Y005027D01*
X026026Y004986D01*
X025974Y004934D01*
X025933Y004873D01*
X025904Y004804D01*
X025890Y004732D01*
X025890Y004720D01*
X026240Y004720D01*
X026290Y004720D01*
X026290Y005070D01*
X026302Y005070D01*
X026374Y005056D01*
X026443Y005027D01*
X026504Y004986D01*
X026556Y004934D01*
X026597Y004873D01*
X026626Y004804D01*
X026640Y004732D01*
X026640Y004720D01*
X026290Y004720D01*
X026290Y004670D01*
X026640Y004670D01*
X026640Y004658D01*
X026626Y004586D01*
X026597Y004517D01*
X026556Y004456D01*
X026504Y004404D01*
X026443Y004363D01*
X026374Y004334D01*
X026302Y004320D01*
X027697Y004320D01*
X027707Y004310D02*
X027843Y004310D01*
X027940Y004407D01*
X027940Y004543D01*
X027843Y004640D01*
X027707Y004640D01*
X027610Y004543D01*
X027610Y004407D01*
X027707Y004310D01*
X027648Y004369D02*
X026451Y004369D01*
X026517Y004417D02*
X027610Y004417D01*
X027610Y004466D02*
X026563Y004466D01*
X026595Y004514D02*
X027610Y004514D01*
X027629Y004563D02*
X026616Y004563D01*
X026631Y004611D02*
X027678Y004611D01*
X027872Y004611D02*
X028873Y004611D01*
X028821Y004660D02*
X026640Y004660D01*
X026635Y004757D02*
X028747Y004757D01*
X028727Y004805D02*
X026625Y004805D01*
X026605Y004854D02*
X028708Y004854D01*
X028708Y004902D02*
X026578Y004902D01*
X026540Y004951D02*
X028708Y004951D01*
X028708Y004999D02*
X026485Y004999D01*
X026394Y005048D02*
X028728Y005048D01*
X028748Y005096D02*
X021179Y005096D01*
X021190Y005107D02*
X021093Y005010D01*
X020957Y005010D01*
X020860Y005107D01*
X020860Y005243D01*
X020957Y005340D01*
X021093Y005340D01*
X021190Y005243D01*
X021190Y005107D01*
X021190Y005145D02*
X021372Y005145D01*
X021407Y005110D02*
X021310Y005207D01*
X021310Y005343D01*
X021407Y005440D01*
X021543Y005440D01*
X021640Y005343D01*
X021640Y005207D01*
X021543Y005110D01*
X021407Y005110D01*
X021324Y005193D02*
X021190Y005193D01*
X021190Y005242D02*
X021310Y005242D01*
X021310Y005290D02*
X021143Y005290D01*
X021095Y005339D02*
X021310Y005339D01*
X021354Y005387D02*
X019690Y005387D01*
X019690Y005357D02*
X019690Y005493D01*
X019593Y005590D01*
X019457Y005590D01*
X019360Y005493D01*
X019360Y005357D01*
X019457Y005260D01*
X019593Y005260D01*
X019690Y005357D01*
X019672Y005339D02*
X020355Y005339D01*
X020357Y005340D02*
X020260Y005243D01*
X020260Y005107D01*
X020357Y005010D01*
X020493Y005010D01*
X020590Y005107D01*
X020590Y005243D01*
X020493Y005340D01*
X020357Y005340D01*
X020307Y005290D02*
X019623Y005290D01*
X019690Y005436D02*
X021402Y005436D01*
X021548Y005436D02*
X022581Y005436D01*
X022560Y005457D02*
X022657Y005360D01*
X022793Y005360D01*
X022890Y005457D01*
X022890Y005593D01*
X022793Y005690D01*
X022657Y005690D01*
X022560Y005593D01*
X022560Y005457D01*
X022560Y005484D02*
X019690Y005484D01*
X019651Y005533D02*
X021684Y005533D01*
X021707Y005510D02*
X021610Y005607D01*
X021610Y005743D01*
X021707Y005840D01*
X021827Y005840D01*
X021760Y005907D01*
X021760Y006043D01*
X021857Y006140D01*
X021993Y006140D01*
X022060Y006073D01*
X022060Y006093D01*
X022157Y006190D01*
X022293Y006190D01*
X022390Y006093D01*
X022390Y005957D01*
X022293Y005860D01*
X022157Y005860D01*
X022090Y005927D01*
X022090Y005907D01*
X021993Y005810D01*
X021873Y005810D01*
X021940Y005743D01*
X021940Y005607D01*
X021843Y005510D01*
X021707Y005510D01*
X021636Y005581D02*
X019602Y005581D01*
X019448Y005581D02*
X017890Y005581D01*
X017890Y005593D02*
X017793Y005690D01*
X017657Y005690D01*
X017560Y005593D01*
X017560Y005457D01*
X017657Y005360D01*
X017793Y005360D01*
X017890Y005457D01*
X017890Y005593D01*
X017854Y005630D02*
X018337Y005630D01*
X018357Y005610D02*
X018260Y005707D01*
X018260Y005843D01*
X018357Y005940D01*
X018493Y005940D01*
X018590Y005843D01*
X018590Y005707D01*
X018493Y005610D01*
X018357Y005610D01*
X018289Y005678D02*
X017805Y005678D01*
X017843Y005810D02*
X017940Y005907D01*
X017940Y006043D01*
X017843Y006140D01*
X017740Y006140D01*
X017740Y006243D01*
X017643Y006340D01*
X017507Y006340D01*
X017410Y006243D01*
X017410Y006107D01*
X017507Y006010D01*
X017610Y006010D01*
X017610Y005907D01*
X017707Y005810D01*
X017843Y005810D01*
X017857Y005824D02*
X018260Y005824D01*
X018260Y005775D02*
X016257Y005775D01*
X016228Y005746D02*
X016304Y005822D01*
X016345Y005921D01*
X016345Y006029D01*
X016304Y006128D01*
X016228Y006204D01*
X016129Y006245D01*
X016021Y006245D01*
X015922Y006204D01*
X015846Y006128D01*
X015805Y006029D01*
X015805Y005921D01*
X015846Y005822D01*
X015922Y005746D01*
X016021Y005705D01*
X016129Y005705D01*
X016228Y005746D01*
X016181Y005727D02*
X018260Y005727D01*
X018513Y005630D02*
X021610Y005630D01*
X021610Y005678D02*
X018561Y005678D01*
X018590Y005727D02*
X021610Y005727D01*
X021642Y005775D02*
X018590Y005775D01*
X018590Y005824D02*
X021690Y005824D01*
X021795Y005872D02*
X020705Y005872D01*
X020693Y005860D02*
X020790Y005957D01*
X020790Y006093D01*
X020693Y006190D01*
X020557Y006190D01*
X020460Y006093D01*
X020460Y005957D01*
X020557Y005860D01*
X020693Y005860D01*
X020754Y005921D02*
X021760Y005921D01*
X021760Y005969D02*
X020790Y005969D01*
X020790Y006018D02*
X021760Y006018D01*
X021783Y006066D02*
X020790Y006066D01*
X020769Y006115D02*
X021831Y006115D01*
X022019Y006115D02*
X022081Y006115D01*
X022130Y006163D02*
X020720Y006163D01*
X020530Y006163D02*
X020490Y006163D01*
X020490Y006157D02*
X020393Y006060D01*
X020257Y006060D01*
X020160Y006157D01*
X020160Y006293D01*
X020257Y006390D01*
X020393Y006390D01*
X020490Y006293D01*
X020490Y006157D01*
X020481Y006115D02*
X020448Y006115D01*
X020460Y006066D02*
X020399Y006066D01*
X020460Y006018D02*
X018951Y006018D01*
X018990Y006057D02*
X018893Y005960D01*
X018757Y005960D01*
X018660Y006057D01*
X018660Y006193D01*
X018757Y006290D01*
X018893Y006290D01*
X018990Y006193D01*
X018990Y006057D01*
X018990Y006066D02*
X020251Y006066D01*
X020202Y006115D02*
X018990Y006115D01*
X018990Y006163D02*
X020160Y006163D01*
X020160Y006212D02*
X018972Y006212D01*
X018923Y006260D02*
X020160Y006260D01*
X020175Y006309D02*
X018242Y006309D01*
X018290Y006357D02*
X018193Y006260D01*
X018057Y006260D01*
X017960Y006357D01*
X010840Y006357D01*
X010743Y006260D01*
X010607Y006260D01*
X010510Y006357D01*
X004177Y006357D01*
X004177Y006309D02*
X010558Y006309D01*
X010510Y006357D02*
X010510Y006493D01*
X010607Y006590D01*
X010743Y006590D01*
X010840Y006493D01*
X010840Y006357D01*
X010840Y006406D02*
X017960Y006406D01*
X017960Y006454D02*
X010840Y006454D01*
X010831Y006503D02*
X017969Y006503D01*
X017960Y006493D02*
X017960Y006357D01*
X018008Y006309D02*
X017675Y006309D01*
X017723Y006260D02*
X018057Y006260D01*
X018193Y006260D02*
X018727Y006260D01*
X018678Y006212D02*
X017740Y006212D01*
X017740Y006163D02*
X018660Y006163D01*
X018660Y006115D02*
X017869Y006115D01*
X017917Y006066D02*
X018660Y006066D01*
X018699Y006018D02*
X017940Y006018D01*
X017940Y005969D02*
X018748Y005969D01*
X018902Y005969D02*
X020460Y005969D01*
X020496Y005921D02*
X018513Y005921D01*
X018561Y005872D02*
X020545Y005872D01*
X020490Y006212D02*
X026695Y006212D01*
X026671Y006187D02*
X026614Y006050D01*
X026614Y005900D01*
X026671Y005763D01*
X026777Y005657D01*
X026915Y005600D01*
X027064Y005600D01*
X027202Y005657D01*
X027307Y005763D01*
X027364Y005900D01*
X027364Y006050D01*
X027307Y006187D01*
X027202Y006293D01*
X027064Y006350D01*
X026915Y006350D01*
X026777Y006293D01*
X026671Y006187D01*
X026661Y006163D02*
X022320Y006163D01*
X022369Y006115D02*
X026641Y006115D01*
X026621Y006066D02*
X022390Y006066D01*
X022390Y006018D02*
X026614Y006018D01*
X026614Y005969D02*
X022390Y005969D01*
X022354Y005921D02*
X026614Y005921D01*
X026626Y005872D02*
X022305Y005872D01*
X022145Y005872D02*
X022055Y005872D01*
X022090Y005921D02*
X022096Y005921D01*
X022007Y005824D02*
X026646Y005824D01*
X026666Y005775D02*
X021908Y005775D01*
X021940Y005727D02*
X026707Y005727D01*
X026756Y005678D02*
X022805Y005678D01*
X022854Y005630D02*
X026843Y005630D01*
X027135Y005630D02*
X027946Y005630D01*
X027910Y005593D02*
X028007Y005690D01*
X028143Y005690D01*
X028240Y005593D01*
X028240Y005457D01*
X028143Y005360D01*
X028007Y005360D01*
X027910Y005457D01*
X027910Y005593D01*
X027910Y005581D02*
X022890Y005581D01*
X022890Y005533D02*
X027910Y005533D01*
X027910Y005484D02*
X022890Y005484D01*
X022869Y005436D02*
X027931Y005436D01*
X027980Y005387D02*
X022820Y005387D01*
X022630Y005387D02*
X021596Y005387D01*
X021640Y005339D02*
X029400Y005339D01*
X029400Y005387D02*
X028170Y005387D01*
X028219Y005436D02*
X029400Y005436D01*
X029400Y005484D02*
X028240Y005484D01*
X028240Y005533D02*
X029400Y005533D01*
X029400Y005581D02*
X029205Y005581D01*
X029294Y005630D02*
X029400Y005630D01*
X029400Y005678D02*
X029348Y005678D01*
X029384Y005727D02*
X029400Y005727D01*
X029100Y005727D02*
X029050Y005727D01*
X029050Y005775D02*
X029100Y005775D01*
X029100Y005824D02*
X029050Y005824D01*
X029050Y005872D02*
X029100Y005872D01*
X029050Y005921D02*
X027364Y005921D01*
X027364Y005969D02*
X028709Y005969D01*
X028719Y006018D02*
X027364Y006018D01*
X027357Y006066D02*
X028736Y006066D01*
X028760Y006115D02*
X027337Y006115D01*
X027317Y006163D02*
X028793Y006163D01*
X028842Y006212D02*
X027283Y006212D01*
X027234Y006260D02*
X028924Y006260D01*
X029050Y006260D02*
X029100Y006260D01*
X029100Y006212D02*
X029050Y006212D01*
X029050Y006163D02*
X029100Y006163D01*
X029100Y006115D02*
X029050Y006115D01*
X029050Y006066D02*
X029100Y006066D01*
X029100Y006018D02*
X029050Y006018D01*
X029050Y005969D02*
X029100Y005969D01*
X028711Y005872D02*
X027352Y005872D01*
X027332Y005824D02*
X028720Y005824D01*
X028739Y005775D02*
X027312Y005775D01*
X027271Y005727D02*
X028766Y005727D01*
X028802Y005678D02*
X028155Y005678D01*
X028204Y005630D02*
X028856Y005630D01*
X028945Y005581D02*
X028240Y005581D01*
X027995Y005678D02*
X027223Y005678D01*
X027164Y006309D02*
X029400Y006309D01*
X029400Y006357D02*
X020426Y006357D01*
X020475Y006309D02*
X026814Y006309D01*
X026744Y006260D02*
X020490Y006260D01*
X020224Y006357D02*
X018290Y006357D01*
X018290Y006493D01*
X018193Y006590D01*
X018057Y006590D01*
X017960Y006493D01*
X018018Y006551D02*
X010782Y006551D01*
X010568Y006551D02*
X010240Y006551D01*
X010240Y006593D02*
X010240Y006457D01*
X010143Y006360D01*
X010007Y006360D01*
X009910Y006457D01*
X009910Y006593D01*
X010007Y006690D01*
X010143Y006690D01*
X010240Y006593D01*
X010234Y006600D02*
X018917Y006600D01*
X018910Y006607D02*
X019007Y006510D01*
X019143Y006510D01*
X019240Y006607D01*
X019240Y006743D01*
X019143Y006840D01*
X019007Y006840D01*
X018910Y006743D01*
X018910Y006607D01*
X018910Y006648D02*
X010185Y006648D01*
X010240Y006503D02*
X010519Y006503D01*
X010510Y006454D02*
X010237Y006454D01*
X010189Y006406D02*
X010510Y006406D01*
X010607Y006260D02*
X004163Y006260D01*
X004177Y006294D02*
X004124Y006164D01*
X004024Y006065D01*
X003895Y006012D01*
X003755Y006012D01*
X003626Y006065D01*
X003526Y006164D01*
X003473Y006294D01*
X003473Y006434D01*
X003526Y006563D01*
X003626Y006663D01*
X003755Y006716D01*
X003895Y006716D01*
X004024Y006663D01*
X004124Y006563D01*
X004177Y006434D01*
X004177Y006294D01*
X004143Y006212D02*
X010628Y006212D01*
X010657Y006240D02*
X010560Y006143D01*
X010560Y006007D01*
X010657Y005910D01*
X010793Y005910D01*
X010890Y006007D01*
X010890Y006143D01*
X010793Y006240D01*
X010657Y006240D01*
X010743Y006260D02*
X017427Y006260D01*
X017410Y006212D02*
X016210Y006212D01*
X016269Y006163D02*
X016830Y006163D01*
X016857Y006190D02*
X016760Y006093D01*
X016760Y005957D01*
X016857Y005860D01*
X016993Y005860D01*
X017090Y005957D01*
X017090Y006093D01*
X016993Y006190D01*
X016857Y006190D01*
X016781Y006115D02*
X016309Y006115D01*
X016330Y006066D02*
X016760Y006066D01*
X016760Y006018D02*
X016345Y006018D01*
X016345Y005969D02*
X016760Y005969D01*
X016796Y005921D02*
X016345Y005921D01*
X016325Y005872D02*
X016845Y005872D01*
X017005Y005872D02*
X017645Y005872D01*
X017610Y005921D02*
X017054Y005921D01*
X017090Y005969D02*
X017610Y005969D01*
X017499Y006018D02*
X017090Y006018D01*
X017090Y006066D02*
X017451Y006066D01*
X017410Y006115D02*
X017069Y006115D01*
X017020Y006163D02*
X017410Y006163D01*
X017475Y006309D02*
X010792Y006309D01*
X010822Y006212D02*
X015940Y006212D01*
X015881Y006163D02*
X010870Y006163D01*
X010890Y006115D02*
X015841Y006115D01*
X015820Y006066D02*
X010890Y006066D01*
X010890Y006018D02*
X015805Y006018D01*
X015805Y005969D02*
X010852Y005969D01*
X010804Y005921D02*
X015805Y005921D01*
X015825Y005872D02*
X009905Y005872D01*
X009893Y005860D02*
X009990Y005957D01*
X009990Y006093D01*
X009893Y006190D01*
X009757Y006190D01*
X009660Y006093D01*
X009660Y005957D01*
X009757Y005860D01*
X009893Y005860D01*
X009954Y005921D02*
X010646Y005921D01*
X010598Y005969D02*
X009990Y005969D01*
X009990Y006018D02*
X010560Y006018D01*
X010560Y006066D02*
X009990Y006066D01*
X009969Y006115D02*
X010560Y006115D01*
X010580Y006163D02*
X009920Y006163D01*
X009730Y006163D02*
X004122Y006163D01*
X004074Y006115D02*
X009681Y006115D01*
X009660Y006066D02*
X004025Y006066D01*
X003909Y006018D02*
X009660Y006018D01*
X009660Y005969D02*
X001750Y005969D01*
X001750Y005921D02*
X009696Y005921D01*
X009745Y005872D02*
X001750Y005872D01*
X001750Y005824D02*
X015845Y005824D01*
X015893Y005775D02*
X001750Y005775D01*
X001750Y005727D02*
X015969Y005727D01*
X016021Y005645D02*
X015922Y005604D01*
X015846Y005528D01*
X015805Y005429D01*
X015805Y005321D01*
X015846Y005222D01*
X015922Y005146D01*
X016021Y005105D01*
X016129Y005105D01*
X016228Y005146D01*
X016304Y005222D01*
X016345Y005321D01*
X016345Y005429D01*
X016304Y005528D01*
X016228Y005604D01*
X016129Y005645D01*
X016021Y005645D01*
X015984Y005630D02*
X001750Y005630D01*
X001750Y005678D02*
X017645Y005678D01*
X017596Y005630D02*
X016166Y005630D01*
X016251Y005581D02*
X017560Y005581D01*
X017560Y005533D02*
X016299Y005533D01*
X016322Y005484D02*
X017560Y005484D01*
X017581Y005436D02*
X016342Y005436D01*
X016345Y005387D02*
X017630Y005387D01*
X017820Y005387D02*
X019360Y005387D01*
X019360Y005436D02*
X017869Y005436D01*
X017890Y005484D02*
X019360Y005484D01*
X019399Y005533D02*
X017890Y005533D01*
X017693Y005824D02*
X016305Y005824D01*
X015899Y005581D02*
X001750Y005581D01*
X001750Y005533D02*
X012149Y005533D01*
X012157Y005540D02*
X012060Y005443D01*
X012060Y005307D01*
X012157Y005210D01*
X012293Y005210D01*
X012390Y005307D01*
X012390Y005443D01*
X012293Y005540D01*
X012157Y005540D01*
X012101Y005484D02*
X001750Y005484D01*
X001750Y005436D02*
X012060Y005436D01*
X012060Y005387D02*
X001750Y005387D01*
X001750Y005339D02*
X012060Y005339D01*
X012077Y005290D02*
X004011Y005290D01*
X004024Y005285D02*
X003895Y005338D01*
X003755Y005338D01*
X003626Y005285D01*
X003526Y005186D01*
X003473Y005056D01*
X003473Y004916D01*
X003526Y004787D01*
X003626Y004687D01*
X003755Y004634D01*
X003895Y004634D01*
X004024Y004687D01*
X004124Y004787D01*
X004177Y004916D01*
X004177Y005056D01*
X004124Y005186D01*
X004024Y005285D01*
X004068Y005242D02*
X012125Y005242D01*
X012093Y005140D02*
X012190Y005043D01*
X012190Y004907D01*
X012093Y004810D01*
X011957Y004810D01*
X011860Y004907D01*
X011860Y005043D01*
X011957Y005140D01*
X012093Y005140D01*
X012137Y005096D02*
X018063Y005096D01*
X018060Y005093D02*
X018060Y004957D01*
X018157Y004860D01*
X018293Y004860D01*
X018360Y004927D01*
X018360Y004807D01*
X018457Y004710D01*
X018593Y004710D01*
X018690Y004807D01*
X018690Y004910D01*
X018793Y004910D01*
X018890Y005007D01*
X018890Y005143D01*
X018793Y005240D01*
X018657Y005240D01*
X018590Y005173D01*
X018590Y005243D01*
X018493Y005340D01*
X018357Y005340D01*
X018260Y005243D01*
X018260Y005190D01*
X018157Y005190D01*
X018060Y005093D01*
X018060Y005048D02*
X012186Y005048D01*
X012190Y004999D02*
X018060Y004999D01*
X018066Y004951D02*
X012190Y004951D01*
X012185Y004902D02*
X018115Y004902D01*
X018335Y004902D02*
X018360Y004902D01*
X018360Y004854D02*
X012137Y004854D01*
X011913Y004854D02*
X004151Y004854D01*
X004171Y004902D02*
X011865Y004902D01*
X011860Y004951D02*
X004177Y004951D01*
X004177Y004999D02*
X011860Y004999D01*
X011864Y005048D02*
X004177Y005048D01*
X004161Y005096D02*
X011913Y005096D01*
X012325Y005242D02*
X015838Y005242D01*
X015818Y005290D02*
X012373Y005290D01*
X012390Y005339D02*
X015805Y005339D01*
X015805Y005387D02*
X012390Y005387D01*
X012390Y005436D02*
X015808Y005436D01*
X015828Y005484D02*
X012349Y005484D01*
X012301Y005533D02*
X015851Y005533D01*
X016345Y005339D02*
X018355Y005339D01*
X018307Y005290D02*
X016332Y005290D01*
X016312Y005242D02*
X018260Y005242D01*
X018260Y005193D02*
X016275Y005193D01*
X016224Y005145D02*
X018111Y005145D01*
X018495Y005339D02*
X019378Y005339D01*
X019427Y005290D02*
X018543Y005290D01*
X018590Y005242D02*
X020260Y005242D01*
X020260Y005193D02*
X018840Y005193D01*
X018889Y005145D02*
X020260Y005145D01*
X020271Y005096D02*
X018890Y005096D01*
X018890Y005048D02*
X020319Y005048D01*
X020531Y005048D02*
X020919Y005048D01*
X020871Y005096D02*
X020579Y005096D01*
X020590Y005145D02*
X020860Y005145D01*
X020860Y005193D02*
X020590Y005193D01*
X020590Y005242D02*
X020860Y005242D01*
X020907Y005290D02*
X020543Y005290D01*
X020495Y005339D02*
X020955Y005339D01*
X021131Y005048D02*
X024356Y005048D01*
X024410Y005070D02*
X024273Y005013D01*
X024167Y004907D01*
X024110Y004770D01*
X024110Y004620D01*
X024167Y004483D01*
X024273Y004377D01*
X024410Y004320D01*
X024293Y004369D02*
X023665Y004369D01*
X023616Y004417D02*
X024233Y004417D01*
X024184Y004466D02*
X019890Y004466D01*
X019890Y004514D02*
X023203Y004514D01*
X023207Y004510D02*
X023343Y004510D01*
X023440Y004607D01*
X023440Y004743D01*
X023343Y004840D01*
X023207Y004840D01*
X023110Y004743D01*
X023110Y004607D01*
X023207Y004510D01*
X023154Y004563D02*
X019871Y004563D01*
X019890Y004543D02*
X019793Y004640D01*
X019657Y004640D01*
X019560Y004543D01*
X019560Y004407D01*
X019657Y004310D01*
X019793Y004310D01*
X019890Y004407D01*
X019890Y004543D01*
X019822Y004611D02*
X021006Y004611D01*
X021007Y004610D02*
X021143Y004610D01*
X021240Y004707D01*
X021240Y004843D01*
X021143Y004940D01*
X021007Y004940D01*
X020910Y004843D01*
X020910Y004707D01*
X021007Y004610D01*
X020957Y004660D02*
X019024Y004660D01*
X019040Y004643D02*
X018943Y004740D01*
X018807Y004740D01*
X018710Y004643D01*
X018710Y004507D01*
X018807Y004410D01*
X018943Y004410D01*
X019040Y004507D01*
X019040Y004643D01*
X019040Y004611D02*
X019628Y004611D01*
X019579Y004563D02*
X019040Y004563D01*
X019040Y004514D02*
X019560Y004514D01*
X019560Y004466D02*
X018999Y004466D01*
X018950Y004417D02*
X019560Y004417D01*
X019598Y004369D02*
X017402Y004369D01*
X017440Y004407D02*
X017343Y004310D01*
X017207Y004310D01*
X017110Y004407D01*
X017110Y004543D01*
X017207Y004640D01*
X017343Y004640D01*
X017440Y004543D01*
X017440Y004407D01*
X017440Y004417D02*
X018800Y004417D01*
X018751Y004466D02*
X017440Y004466D01*
X017440Y004514D02*
X018710Y004514D01*
X018710Y004563D02*
X017421Y004563D01*
X017372Y004611D02*
X018710Y004611D01*
X018726Y004660D02*
X013074Y004660D01*
X013090Y004643D02*
X012993Y004740D01*
X012857Y004740D01*
X012760Y004643D01*
X012760Y004507D01*
X012857Y004410D01*
X012993Y004410D01*
X013090Y004507D01*
X013090Y004643D01*
X013090Y004611D02*
X017178Y004611D01*
X017129Y004563D02*
X013090Y004563D01*
X013090Y004514D02*
X017110Y004514D01*
X017110Y004466D02*
X013049Y004466D01*
X013000Y004417D02*
X017110Y004417D01*
X017148Y004369D02*
X009402Y004369D01*
X009393Y004360D02*
X009490Y004457D01*
X009490Y004593D01*
X009393Y004690D01*
X009257Y004690D01*
X009160Y004593D01*
X009160Y004457D01*
X009257Y004360D01*
X009393Y004360D01*
X009450Y004417D02*
X012850Y004417D01*
X012801Y004466D02*
X009490Y004466D01*
X009490Y004514D02*
X012760Y004514D01*
X012760Y004563D02*
X009490Y004563D01*
X009472Y004611D02*
X012760Y004611D01*
X012776Y004660D02*
X009424Y004660D01*
X009226Y004660D02*
X007024Y004660D01*
X006993Y004690D02*
X007090Y004593D01*
X007090Y004457D01*
X006993Y004360D01*
X006857Y004360D01*
X006760Y004457D01*
X006760Y004593D01*
X006857Y004690D01*
X006993Y004690D01*
X007072Y004611D02*
X009178Y004611D01*
X009160Y004563D02*
X007090Y004563D01*
X007090Y004514D02*
X009160Y004514D01*
X009160Y004466D02*
X007090Y004466D01*
X007050Y004417D02*
X009200Y004417D01*
X009248Y004369D02*
X007002Y004369D01*
X006848Y004369D02*
X001750Y004369D01*
X001750Y004417D02*
X006800Y004417D01*
X006760Y004466D02*
X001750Y004466D01*
X001750Y004514D02*
X006760Y004514D01*
X006760Y004563D02*
X001750Y004563D01*
X001750Y004611D02*
X006778Y004611D01*
X006826Y004660D02*
X003957Y004660D01*
X004045Y004708D02*
X012825Y004708D01*
X013025Y004708D02*
X018775Y004708D01*
X018688Y004805D02*
X020910Y004805D01*
X020910Y004757D02*
X018640Y004757D01*
X018690Y004854D02*
X020920Y004854D01*
X020969Y004902D02*
X018690Y004902D01*
X018834Y004951D02*
X022517Y004951D01*
X022557Y004990D02*
X022460Y004893D01*
X022460Y004757D01*
X022557Y004660D01*
X022693Y004660D01*
X022790Y004757D01*
X022790Y004893D01*
X022693Y004990D01*
X022557Y004990D01*
X022469Y004902D02*
X021181Y004902D01*
X021230Y004854D02*
X022460Y004854D01*
X022460Y004805D02*
X021240Y004805D01*
X021240Y004757D02*
X022460Y004757D01*
X022509Y004708D02*
X021240Y004708D01*
X021193Y004660D02*
X023110Y004660D01*
X023110Y004708D02*
X022741Y004708D01*
X022790Y004757D02*
X023123Y004757D01*
X023172Y004805D02*
X022790Y004805D01*
X022790Y004854D02*
X024145Y004854D01*
X024165Y004902D02*
X022781Y004902D01*
X022733Y004951D02*
X024210Y004951D01*
X024259Y004999D02*
X018882Y004999D01*
X018975Y004708D02*
X020910Y004708D01*
X021144Y004611D02*
X023110Y004611D01*
X023347Y004514D02*
X024154Y004514D01*
X024134Y004563D02*
X023396Y004563D01*
X023440Y004611D02*
X024114Y004611D01*
X024110Y004660D02*
X023440Y004660D01*
X023440Y004708D02*
X024110Y004708D01*
X024110Y004757D02*
X023427Y004757D01*
X023378Y004805D02*
X024125Y004805D01*
X024410Y005070D02*
X024560Y005070D01*
X024697Y005013D01*
X024803Y004907D01*
X024860Y004770D01*
X024860Y004620D01*
X024803Y004483D01*
X024697Y004377D01*
X024560Y004320D01*
X024677Y004369D02*
X025148Y004369D01*
X025157Y004360D02*
X025293Y004360D01*
X025390Y004457D01*
X025390Y004593D01*
X025293Y004690D01*
X025157Y004690D01*
X025060Y004593D01*
X025060Y004457D01*
X025157Y004360D01*
X025100Y004417D02*
X024737Y004417D01*
X024786Y004466D02*
X025060Y004466D01*
X025060Y004514D02*
X024816Y004514D01*
X024836Y004563D02*
X025060Y004563D01*
X025078Y004611D02*
X024856Y004611D01*
X024860Y004660D02*
X025126Y004660D01*
X025324Y004660D02*
X025890Y004660D01*
X025899Y004611D02*
X025372Y004611D01*
X025390Y004563D02*
X025914Y004563D01*
X025935Y004514D02*
X025390Y004514D01*
X025390Y004466D02*
X025967Y004466D01*
X026013Y004417D02*
X025350Y004417D01*
X025302Y004369D02*
X026079Y004369D01*
X026228Y004320D02*
X026240Y004320D01*
X026240Y004670D01*
X026290Y004670D01*
X026290Y004320D01*
X026302Y004320D01*
X026290Y004320D02*
X026240Y004320D01*
X026240Y004369D02*
X026290Y004369D01*
X026290Y004417D02*
X026240Y004417D01*
X026240Y004466D02*
X026290Y004466D01*
X026290Y004514D02*
X026240Y004514D01*
X026240Y004563D02*
X026290Y004563D01*
X026290Y004611D02*
X026240Y004611D01*
X026240Y004660D02*
X026290Y004660D01*
X026290Y004708D02*
X028772Y004708D01*
X028990Y004563D02*
X027921Y004563D01*
X027940Y004514D02*
X029400Y004514D01*
X029400Y004466D02*
X027940Y004466D01*
X027940Y004417D02*
X029400Y004417D01*
X029400Y004369D02*
X027902Y004369D01*
X027853Y004320D02*
X029400Y004320D01*
X029400Y004272D02*
X029199Y004272D01*
X029297Y004223D02*
X029400Y004223D01*
X029400Y004175D02*
X029345Y004175D01*
X029390Y004126D02*
X029400Y004126D01*
X029395Y003738D02*
X029400Y003738D01*
X029400Y003690D02*
X029359Y003690D01*
X029400Y003641D02*
X029311Y003641D01*
X029233Y003593D02*
X029400Y003593D01*
X029400Y003544D02*
X021977Y003544D01*
X022026Y003593D02*
X028917Y003593D01*
X028839Y003641D02*
X022040Y003641D01*
X022040Y003690D02*
X028791Y003690D01*
X028755Y003738D02*
X022040Y003738D01*
X021997Y003787D02*
X028735Y003787D01*
X029160Y004563D02*
X029400Y004563D01*
X029400Y004611D02*
X029277Y004611D01*
X029329Y004660D02*
X029400Y004660D01*
X029400Y004708D02*
X029378Y004708D01*
X029375Y005145D02*
X029400Y005145D01*
X029400Y005193D02*
X029327Y005193D01*
X029271Y005242D02*
X029400Y005242D01*
X029400Y005290D02*
X029154Y005290D01*
X028996Y005290D02*
X021640Y005290D01*
X021640Y005242D02*
X028879Y005242D01*
X028823Y005193D02*
X021626Y005193D01*
X021578Y005145D02*
X028775Y005145D01*
X029050Y005581D02*
X029100Y005581D01*
X029100Y005630D02*
X029050Y005630D01*
X029050Y005678D02*
X029100Y005678D01*
X029390Y006115D02*
X029400Y006115D01*
X029400Y006163D02*
X029357Y006163D01*
X029400Y006212D02*
X029308Y006212D01*
X029226Y006260D02*
X029400Y006260D01*
X029400Y006406D02*
X021089Y006406D01*
X021043Y006360D02*
X021140Y006457D01*
X021140Y006593D01*
X021043Y006690D01*
X020907Y006690D01*
X020810Y006593D01*
X020810Y006457D01*
X020907Y006360D01*
X021043Y006360D01*
X021137Y006454D02*
X029400Y006454D01*
X029400Y006503D02*
X021140Y006503D01*
X021140Y006551D02*
X029400Y006551D01*
X029400Y006600D02*
X029250Y006600D01*
X029318Y006648D02*
X029400Y006648D01*
X029400Y006697D02*
X029366Y006697D01*
X029398Y006745D02*
X029400Y006745D01*
X028900Y006600D02*
X021134Y006600D01*
X021085Y006648D02*
X028832Y006648D01*
X028784Y006697D02*
X020130Y006697D01*
X020140Y006707D02*
X020043Y006610D01*
X019907Y006610D01*
X019810Y006707D01*
X019810Y006843D01*
X019907Y006940D01*
X020043Y006940D01*
X020140Y006843D01*
X020140Y006707D01*
X020140Y006745D02*
X028752Y006745D01*
X028732Y006794D02*
X020140Y006794D01*
X020140Y006842D02*
X028712Y006842D01*
X029290Y007230D02*
X029400Y007230D01*
X029400Y007182D02*
X029338Y007182D01*
X029400Y007570D02*
X029177Y007570D01*
X029288Y007618D02*
X029400Y007618D01*
X029400Y007667D02*
X029336Y007667D01*
X029385Y007715D02*
X029400Y007715D01*
X028814Y007667D02*
X019517Y007667D01*
X019762Y008055D02*
X009240Y008055D01*
X009240Y008103D02*
X019714Y008103D01*
X019710Y008152D02*
X009232Y008152D01*
X009183Y008200D02*
X019710Y008200D01*
X019715Y008249D02*
X008890Y008249D01*
X008890Y008207D02*
X008890Y008343D01*
X008793Y008440D01*
X008657Y008440D01*
X008560Y008343D01*
X008560Y008207D01*
X008657Y008110D01*
X008793Y008110D01*
X008890Y008207D01*
X008883Y008200D02*
X008967Y008200D01*
X008918Y008152D02*
X008835Y008152D01*
X008910Y008103D02*
X001750Y008103D01*
X001750Y008055D02*
X007171Y008055D01*
X007123Y008006D02*
X005827Y008006D01*
X005793Y008040D02*
X005890Y007943D01*
X005890Y007807D01*
X005793Y007710D01*
X005657Y007710D01*
X005560Y007807D01*
X005560Y007943D01*
X005657Y008040D01*
X005793Y008040D01*
X005876Y007958D02*
X007110Y007958D01*
X007110Y007909D02*
X005890Y007909D01*
X005890Y007861D02*
X007110Y007861D01*
X007155Y007812D02*
X005890Y007812D01*
X005847Y007764D02*
X007203Y007764D01*
X007182Y007715D02*
X005798Y007715D01*
X005652Y007715D02*
X001750Y007715D01*
X001750Y007667D02*
X007160Y007667D01*
X007160Y007618D02*
X001750Y007618D01*
X001750Y007570D02*
X007160Y007570D01*
X007196Y007521D02*
X001750Y007521D01*
X001750Y007473D02*
X007244Y007473D01*
X007342Y007376D02*
X001750Y007376D01*
X001750Y007424D02*
X007391Y007424D01*
X007407Y007440D02*
X007310Y007343D01*
X007310Y007207D01*
X007407Y007110D01*
X007543Y007110D01*
X007640Y007207D01*
X007640Y007343D01*
X007543Y007440D01*
X007407Y007440D01*
X007406Y007473D02*
X010860Y007473D01*
X010860Y007521D02*
X007454Y007521D01*
X007490Y007570D02*
X010860Y007570D01*
X010885Y007618D02*
X007490Y007618D01*
X007559Y007424D02*
X010893Y007424D01*
X010941Y007376D02*
X007608Y007376D01*
X007640Y007327D02*
X010894Y007327D01*
X010860Y007279D02*
X007640Y007279D01*
X007640Y007230D02*
X010860Y007230D01*
X010860Y007182D02*
X007615Y007182D01*
X007566Y007133D02*
X010884Y007133D01*
X010932Y007085D02*
X001750Y007085D01*
X001750Y007133D02*
X007384Y007133D01*
X007335Y007182D02*
X001750Y007182D01*
X001750Y007230D02*
X007310Y007230D01*
X007310Y007279D02*
X001750Y007279D01*
X001750Y007327D02*
X007310Y007327D01*
X005790Y006843D02*
X005693Y006940D01*
X005557Y006940D01*
X005460Y006843D01*
X005460Y006707D01*
X005557Y006610D01*
X005693Y006610D01*
X005790Y006707D01*
X005790Y006843D01*
X005790Y006842D02*
X011025Y006842D01*
X010976Y006891D02*
X005743Y006891D01*
X005694Y006939D02*
X010960Y006939D01*
X010960Y006988D02*
X001750Y006988D01*
X001750Y007036D02*
X010960Y007036D01*
X011200Y007133D02*
X018934Y007133D01*
X018885Y007182D02*
X011190Y007182D01*
X011190Y007230D02*
X018860Y007230D01*
X018688Y007279D02*
X011190Y007279D01*
X011156Y007327D02*
X018640Y007327D01*
X018610Y007376D02*
X011109Y007376D01*
X011157Y007424D02*
X018610Y007424D01*
X018610Y007473D02*
X011190Y007473D01*
X011190Y007521D02*
X018638Y007521D01*
X019190Y007279D02*
X023738Y007279D01*
X023912Y007279D02*
X024110Y007279D01*
X024110Y007327D02*
X023960Y007327D01*
X023990Y007376D02*
X024129Y007376D01*
X024149Y007424D02*
X023990Y007424D01*
X023990Y007473D02*
X024172Y007473D01*
X024221Y007521D02*
X023962Y007521D01*
X023914Y007570D02*
X024269Y007570D01*
X024110Y007230D02*
X019190Y007230D01*
X019165Y007182D02*
X024110Y007182D01*
X024130Y007133D02*
X019116Y007133D01*
X019360Y006993D02*
X019360Y006857D01*
X019457Y006760D01*
X019593Y006760D01*
X019690Y006857D01*
X019690Y006993D01*
X019593Y007090D01*
X019457Y007090D01*
X019360Y006993D01*
X019360Y006988D02*
X018696Y006988D01*
X018740Y006943D02*
X018643Y007040D01*
X018507Y007040D01*
X018410Y006943D01*
X018410Y006807D01*
X018507Y006710D01*
X018643Y006710D01*
X018740Y006807D01*
X018740Y006943D01*
X018740Y006939D02*
X019360Y006939D01*
X019360Y006891D02*
X018740Y006891D01*
X018740Y006842D02*
X019375Y006842D01*
X019423Y006794D02*
X019190Y006794D01*
X019238Y006745D02*
X019810Y006745D01*
X019810Y006794D02*
X019627Y006794D01*
X019675Y006842D02*
X019810Y006842D01*
X019857Y006891D02*
X019690Y006891D01*
X019690Y006939D02*
X019906Y006939D01*
X020044Y006939D02*
X024271Y006939D01*
X024222Y006988D02*
X019690Y006988D01*
X019647Y007036D02*
X024174Y007036D01*
X024150Y007085D02*
X019599Y007085D01*
X019451Y007085D02*
X011449Y007085D01*
X011497Y007036D02*
X018503Y007036D01*
X018454Y006988D02*
X015076Y006988D01*
X015043Y007020D02*
X014907Y007020D01*
X014810Y006923D01*
X014810Y006787D01*
X014907Y006690D01*
X015043Y006690D01*
X015140Y006787D01*
X015140Y006923D01*
X015043Y007020D01*
X015124Y006939D02*
X018410Y006939D01*
X018410Y006891D02*
X015140Y006891D01*
X015140Y006842D02*
X018410Y006842D01*
X018423Y006794D02*
X015140Y006794D01*
X015098Y006745D02*
X018472Y006745D01*
X018678Y006745D02*
X018912Y006745D01*
X018910Y006697D02*
X015050Y006697D01*
X014900Y006697D02*
X005780Y006697D01*
X005790Y006745D02*
X014852Y006745D01*
X014810Y006794D02*
X011477Y006794D01*
X011525Y006842D02*
X014810Y006842D01*
X014810Y006891D02*
X011540Y006891D01*
X011540Y006939D02*
X014826Y006939D01*
X014874Y006988D02*
X011540Y006988D01*
X011301Y007085D02*
X011249Y007085D01*
X011273Y006794D02*
X005790Y006794D01*
X005731Y006648D02*
X009965Y006648D01*
X009916Y006600D02*
X004087Y006600D01*
X004129Y006551D02*
X009910Y006551D01*
X009910Y006503D02*
X004149Y006503D01*
X004169Y006454D02*
X009913Y006454D01*
X009961Y006406D02*
X004177Y006406D01*
X004039Y006648D02*
X005519Y006648D01*
X005470Y006697D02*
X003942Y006697D01*
X003708Y006697D02*
X001750Y006697D01*
X001750Y006745D02*
X005460Y006745D01*
X005460Y006794D02*
X001750Y006794D01*
X001750Y006842D02*
X005460Y006842D01*
X005507Y006891D02*
X001750Y006891D01*
X001750Y006939D02*
X005556Y006939D01*
X005603Y007764D02*
X001750Y007764D01*
X001750Y007812D02*
X005560Y007812D01*
X005560Y007861D02*
X001750Y007861D01*
X001750Y007909D02*
X005560Y007909D01*
X005574Y007958D02*
X001750Y007958D01*
X001750Y008006D02*
X005623Y008006D01*
X007379Y008055D02*
X008910Y008055D01*
X008911Y008006D02*
X007427Y008006D01*
X007440Y007958D02*
X008959Y007958D01*
X008615Y008152D02*
X001750Y008152D01*
X001750Y008200D02*
X008567Y008200D01*
X008560Y008249D02*
X001750Y008249D01*
X001750Y008297D02*
X008560Y008297D01*
X008562Y008346D02*
X002329Y008346D01*
X002293Y008310D02*
X002390Y008407D01*
X002390Y008543D01*
X002293Y008640D01*
X002157Y008640D01*
X002060Y008543D01*
X002060Y008407D01*
X002157Y008310D01*
X002293Y008310D01*
X002377Y008394D02*
X008611Y008394D01*
X008839Y008394D02*
X013123Y008394D01*
X013110Y008407D02*
X013207Y008310D01*
X013343Y008310D01*
X013440Y008407D01*
X013440Y008543D01*
X013343Y008640D01*
X013207Y008640D01*
X013110Y008543D01*
X013110Y008407D01*
X013110Y008443D02*
X012176Y008443D01*
X012143Y008410D02*
X012240Y008507D01*
X012240Y008643D01*
X012143Y008740D01*
X012007Y008740D01*
X011910Y008643D01*
X011910Y008507D01*
X012007Y008410D01*
X012143Y008410D01*
X012224Y008491D02*
X013110Y008491D01*
X013110Y008540D02*
X012240Y008540D01*
X012240Y008588D02*
X013155Y008588D01*
X013203Y008637D02*
X012240Y008637D01*
X012198Y008685D02*
X015002Y008685D01*
X015007Y008690D02*
X014910Y008593D01*
X014910Y008457D01*
X015007Y008360D01*
X015143Y008360D01*
X015240Y008457D01*
X015240Y008593D01*
X015143Y008690D01*
X015007Y008690D01*
X014953Y008637D02*
X013347Y008637D01*
X013395Y008588D02*
X014910Y008588D01*
X014910Y008540D02*
X013440Y008540D01*
X013440Y008491D02*
X014910Y008491D01*
X014924Y008443D02*
X013440Y008443D01*
X013427Y008394D02*
X014973Y008394D01*
X015177Y008394D02*
X017223Y008394D01*
X017257Y008360D02*
X017160Y008457D01*
X017160Y008593D01*
X017257Y008690D01*
X017393Y008690D01*
X017490Y008593D01*
X017490Y008457D01*
X017393Y008360D01*
X017257Y008360D01*
X017174Y008443D02*
X015226Y008443D01*
X015240Y008491D02*
X017160Y008491D01*
X017160Y008540D02*
X015240Y008540D01*
X015240Y008588D02*
X017160Y008588D01*
X017203Y008637D02*
X015197Y008637D01*
X015148Y008685D02*
X017252Y008685D01*
X017398Y008685D02*
X018160Y008685D01*
X018160Y008693D02*
X018160Y008557D01*
X018257Y008460D01*
X018393Y008460D01*
X018490Y008557D01*
X018490Y008693D01*
X018393Y008790D01*
X018257Y008790D01*
X018160Y008693D01*
X018160Y008637D02*
X017447Y008637D01*
X017490Y008588D02*
X018160Y008588D01*
X018177Y008540D02*
X017490Y008540D01*
X017490Y008491D02*
X018226Y008491D01*
X018424Y008491D02*
X019460Y008491D01*
X019460Y008457D02*
X019460Y008593D01*
X019557Y008690D01*
X019693Y008690D01*
X019790Y008593D01*
X019790Y008457D01*
X019693Y008360D01*
X019557Y008360D01*
X019460Y008457D01*
X019474Y008443D02*
X017476Y008443D01*
X017427Y008394D02*
X019523Y008394D01*
X019460Y008540D02*
X018473Y008540D01*
X018490Y008588D02*
X019460Y008588D01*
X019503Y008637D02*
X018490Y008637D01*
X018490Y008685D02*
X019552Y008685D01*
X019698Y008685D02*
X024110Y008685D01*
X024110Y008637D02*
X019747Y008637D01*
X019790Y008588D02*
X024129Y008588D01*
X024110Y008607D02*
X024207Y008510D01*
X024343Y008510D01*
X024440Y008607D01*
X024440Y008743D01*
X024343Y008840D01*
X024207Y008840D01*
X024110Y008743D01*
X024110Y008607D01*
X024177Y008540D02*
X019790Y008540D01*
X019790Y008491D02*
X029400Y008491D01*
X029400Y008443D02*
X019776Y008443D01*
X019727Y008394D02*
X029400Y008394D01*
X029400Y008346D02*
X013379Y008346D01*
X013171Y008346D02*
X008888Y008346D01*
X008890Y008297D02*
X019764Y008297D01*
X019986Y008297D02*
X029400Y008297D01*
X029400Y008249D02*
X029254Y008249D01*
X029320Y008200D02*
X029400Y008200D01*
X029400Y008152D02*
X029368Y008152D01*
X029399Y008103D02*
X029400Y008103D01*
X028896Y008249D02*
X020035Y008249D01*
X018450Y008734D02*
X024110Y008734D01*
X024149Y008782D02*
X018401Y008782D01*
X018249Y008782D02*
X001750Y008782D01*
X001750Y008734D02*
X012000Y008734D01*
X011952Y008685D02*
X001750Y008685D01*
X001750Y008637D02*
X002153Y008637D01*
X002105Y008588D02*
X001750Y008588D01*
X001750Y008540D02*
X002060Y008540D01*
X002060Y008491D02*
X001750Y008491D01*
X001750Y008443D02*
X002060Y008443D01*
X002073Y008394D02*
X001750Y008394D01*
X001750Y008346D02*
X002121Y008346D01*
X002390Y008443D02*
X011974Y008443D01*
X011926Y008491D02*
X002390Y008491D01*
X002390Y008540D02*
X011910Y008540D01*
X011910Y008588D02*
X002345Y008588D01*
X002297Y008637D02*
X011910Y008637D01*
X012150Y008734D02*
X018200Y008734D01*
X017593Y009510D02*
X017457Y009510D01*
X017360Y009607D01*
X017360Y009743D01*
X017457Y009840D01*
X017593Y009840D01*
X017690Y009743D01*
X017690Y009607D01*
X017593Y009510D01*
X017641Y009558D02*
X029400Y009558D01*
X029400Y009510D02*
X015940Y009510D01*
X015940Y009543D02*
X015843Y009640D01*
X015707Y009640D01*
X015610Y009543D01*
X015610Y009407D01*
X015707Y009310D01*
X015843Y009310D01*
X015940Y009407D01*
X015940Y009543D01*
X015925Y009558D02*
X017409Y009558D01*
X017360Y009607D02*
X015877Y009607D01*
X015940Y009461D02*
X021078Y009461D01*
X021107Y009490D02*
X021010Y009393D01*
X021010Y009257D01*
X021107Y009160D01*
X021243Y009160D01*
X021340Y009257D01*
X021340Y009393D01*
X021243Y009490D01*
X021107Y009490D01*
X021029Y009413D02*
X015940Y009413D01*
X015897Y009364D02*
X021010Y009364D01*
X021010Y009316D02*
X015849Y009316D01*
X015701Y009316D02*
X014849Y009316D01*
X014843Y009310D02*
X014940Y009407D01*
X014940Y009543D01*
X014843Y009640D01*
X014707Y009640D01*
X014610Y009543D01*
X014610Y009407D01*
X014707Y009310D01*
X014843Y009310D01*
X014897Y009364D02*
X015653Y009364D01*
X015610Y009413D02*
X014940Y009413D01*
X014940Y009461D02*
X015610Y009461D01*
X015610Y009510D02*
X014940Y009510D01*
X014925Y009558D02*
X015625Y009558D01*
X015673Y009607D02*
X014877Y009607D01*
X014673Y009607D02*
X001750Y009607D01*
X001750Y009655D02*
X017360Y009655D01*
X017360Y009704D02*
X001750Y009704D01*
X001750Y009752D02*
X017369Y009752D01*
X017417Y009801D02*
X001750Y009801D01*
X001750Y009849D02*
X018616Y009849D01*
X018657Y009890D02*
X018560Y009793D01*
X018560Y009657D01*
X018657Y009560D01*
X018793Y009560D01*
X018890Y009657D01*
X018890Y009793D01*
X018793Y009890D01*
X018657Y009890D01*
X018567Y009801D02*
X017633Y009801D01*
X017681Y009752D02*
X018560Y009752D01*
X018560Y009704D02*
X017690Y009704D01*
X017690Y009655D02*
X018562Y009655D01*
X018610Y009607D02*
X017690Y009607D01*
X017920Y010092D02*
X017230Y010092D01*
X017310Y010140D02*
X017840Y010140D01*
X017792Y010189D02*
X017358Y010189D01*
X017395Y010237D02*
X017755Y010237D01*
X017735Y010286D02*
X017415Y010286D01*
X017435Y010334D02*
X017715Y010334D01*
X017708Y010383D02*
X017442Y010383D01*
X017442Y010431D02*
X017708Y010431D01*
X017708Y010480D02*
X017442Y010480D01*
X017430Y010528D02*
X017720Y010528D01*
X017740Y010577D02*
X017410Y010577D01*
X017390Y010625D02*
X017760Y010625D01*
X017804Y010674D02*
X017346Y010674D01*
X017298Y010722D02*
X017852Y010722D01*
X018298Y010722D02*
X018852Y010722D01*
X018804Y010674D02*
X018346Y010674D01*
X018390Y010625D02*
X018760Y010625D01*
X018740Y010577D02*
X018410Y010577D01*
X018430Y010528D02*
X018720Y010528D01*
X018708Y010480D02*
X018442Y010480D01*
X018442Y010431D02*
X018708Y010431D01*
X018708Y010383D02*
X018442Y010383D01*
X018435Y010334D02*
X018715Y010334D01*
X018735Y010286D02*
X018415Y010286D01*
X018395Y010237D02*
X018755Y010237D01*
X018792Y010189D02*
X018358Y010189D01*
X018310Y010140D02*
X018840Y010140D01*
X018920Y010092D02*
X018230Y010092D01*
X018834Y009849D02*
X019468Y009849D01*
X019460Y009857D02*
X019557Y009760D01*
X019693Y009760D01*
X019790Y009857D01*
X019790Y009993D01*
X019693Y010090D01*
X019557Y010090D01*
X019460Y009993D01*
X019460Y009857D01*
X019460Y009898D02*
X001750Y009898D01*
X001750Y009946D02*
X019460Y009946D01*
X019461Y009995D02*
X001750Y009995D01*
X001750Y010043D02*
X019510Y010043D01*
X019358Y010189D02*
X019792Y010189D01*
X019755Y010237D02*
X019395Y010237D01*
X019415Y010286D02*
X019735Y010286D01*
X019715Y010334D02*
X019435Y010334D01*
X019442Y010383D02*
X019708Y010383D01*
X019708Y010431D02*
X019442Y010431D01*
X019442Y010480D02*
X019708Y010480D01*
X019720Y010528D02*
X019430Y010528D01*
X019410Y010577D02*
X019740Y010577D01*
X019760Y010625D02*
X019390Y010625D01*
X019346Y010674D02*
X019804Y010674D01*
X019852Y010722D02*
X019298Y010722D01*
X020298Y010722D02*
X020852Y010722D01*
X020804Y010674D02*
X020346Y010674D01*
X020390Y010625D02*
X020760Y010625D01*
X020740Y010577D02*
X020410Y010577D01*
X020430Y010528D02*
X020720Y010528D01*
X020708Y010480D02*
X020442Y010480D01*
X020442Y010431D02*
X020708Y010431D01*
X020708Y010383D02*
X020442Y010383D01*
X020435Y010334D02*
X020715Y010334D01*
X020735Y010286D02*
X020415Y010286D01*
X020395Y010237D02*
X020755Y010237D01*
X020792Y010189D02*
X020358Y010189D01*
X020310Y010140D02*
X020840Y010140D01*
X020920Y010092D02*
X020230Y010092D01*
X019920Y010092D02*
X019230Y010092D01*
X019310Y010140D02*
X019840Y010140D01*
X019740Y010043D02*
X029400Y010043D01*
X029400Y009995D02*
X019789Y009995D01*
X019790Y009946D02*
X029400Y009946D01*
X029400Y009898D02*
X019790Y009898D01*
X019782Y009849D02*
X024516Y009849D01*
X024557Y009890D02*
X024460Y009793D01*
X024460Y009657D01*
X024557Y009560D01*
X024693Y009560D01*
X024790Y009657D01*
X024790Y009793D01*
X024693Y009890D01*
X024557Y009890D01*
X024467Y009801D02*
X019734Y009801D01*
X019516Y009801D02*
X018883Y009801D01*
X018890Y009752D02*
X024460Y009752D01*
X024460Y009704D02*
X018890Y009704D01*
X018888Y009655D02*
X024462Y009655D01*
X024510Y009607D02*
X018840Y009607D01*
X016920Y010092D02*
X016230Y010092D01*
X016310Y010140D02*
X016840Y010140D01*
X016792Y010189D02*
X016358Y010189D01*
X016395Y010237D02*
X016755Y010237D01*
X016735Y010286D02*
X016415Y010286D01*
X016435Y010334D02*
X016715Y010334D01*
X016708Y010383D02*
X016442Y010383D01*
X016442Y010431D02*
X016708Y010431D01*
X016708Y010480D02*
X016442Y010480D01*
X016430Y010528D02*
X016720Y010528D01*
X016740Y010577D02*
X016410Y010577D01*
X016390Y010625D02*
X016760Y010625D01*
X016804Y010674D02*
X016346Y010674D01*
X016298Y010722D02*
X016852Y010722D01*
X015852Y010722D02*
X015298Y010722D01*
X015346Y010674D02*
X015804Y010674D01*
X015760Y010625D02*
X015390Y010625D01*
X015410Y010577D02*
X015740Y010577D01*
X015720Y010528D02*
X015430Y010528D01*
X015442Y010480D02*
X015708Y010480D01*
X015708Y010431D02*
X015442Y010431D01*
X015442Y010383D02*
X015708Y010383D01*
X015715Y010334D02*
X015435Y010334D01*
X015415Y010286D02*
X015735Y010286D01*
X015755Y010237D02*
X015395Y010237D01*
X015358Y010189D02*
X015792Y010189D01*
X015840Y010140D02*
X015310Y010140D01*
X015230Y010092D02*
X015920Y010092D01*
X014920Y010092D02*
X014230Y010092D01*
X014310Y010140D02*
X014840Y010140D01*
X014792Y010189D02*
X014358Y010189D01*
X014395Y010237D02*
X014755Y010237D01*
X014735Y010286D02*
X014415Y010286D01*
X014435Y010334D02*
X014715Y010334D01*
X014708Y010383D02*
X014442Y010383D01*
X014442Y010431D02*
X014708Y010431D01*
X014708Y010480D02*
X014442Y010480D01*
X014430Y010528D02*
X014720Y010528D01*
X014740Y010577D02*
X014410Y010577D01*
X014390Y010625D02*
X014760Y010625D01*
X014804Y010674D02*
X014346Y010674D01*
X014298Y010722D02*
X014852Y010722D01*
X013852Y010722D02*
X013298Y010722D01*
X013346Y010674D02*
X013804Y010674D01*
X013760Y010625D02*
X013390Y010625D01*
X013410Y010577D02*
X013740Y010577D01*
X013720Y010528D02*
X013430Y010528D01*
X013442Y010480D02*
X013708Y010480D01*
X013708Y010431D02*
X013442Y010431D01*
X013442Y010383D02*
X013708Y010383D01*
X013715Y010334D02*
X013435Y010334D01*
X013415Y010286D02*
X013735Y010286D01*
X013755Y010237D02*
X013395Y010237D01*
X013358Y010189D02*
X013792Y010189D01*
X013840Y010140D02*
X013310Y010140D01*
X013230Y010092D02*
X013920Y010092D01*
X012920Y010092D02*
X012230Y010092D01*
X012310Y010140D02*
X012840Y010140D01*
X012792Y010189D02*
X012358Y010189D01*
X012395Y010237D02*
X012755Y010237D01*
X012735Y010286D02*
X012415Y010286D01*
X012435Y010334D02*
X012715Y010334D01*
X012708Y010383D02*
X012442Y010383D01*
X012442Y010431D02*
X012708Y010431D01*
X012708Y010480D02*
X012442Y010480D01*
X012430Y010528D02*
X012720Y010528D01*
X012740Y010577D02*
X012410Y010577D01*
X012390Y010625D02*
X012760Y010625D01*
X012804Y010674D02*
X012346Y010674D01*
X012298Y010722D02*
X012852Y010722D01*
X011852Y010722D02*
X011298Y010722D01*
X011346Y010674D02*
X011804Y010674D01*
X011760Y010625D02*
X011390Y010625D01*
X011410Y010577D02*
X011740Y010577D01*
X011720Y010528D02*
X011430Y010528D01*
X011442Y010480D02*
X011708Y010480D01*
X011708Y010431D02*
X011442Y010431D01*
X011442Y010383D02*
X011708Y010383D01*
X011715Y010334D02*
X011435Y010334D01*
X011415Y010286D02*
X011735Y010286D01*
X011755Y010237D02*
X011395Y010237D01*
X011358Y010189D02*
X011792Y010189D01*
X011840Y010140D02*
X011310Y010140D01*
X011230Y010092D02*
X011920Y010092D01*
X010920Y010092D02*
X010230Y010092D01*
X010310Y010140D02*
X010840Y010140D01*
X010792Y010189D02*
X010358Y010189D01*
X010395Y010237D02*
X010755Y010237D01*
X010735Y010286D02*
X010415Y010286D01*
X010435Y010334D02*
X010715Y010334D01*
X010708Y010383D02*
X010442Y010383D01*
X010442Y010431D02*
X010708Y010431D01*
X010708Y010480D02*
X010442Y010480D01*
X010430Y010528D02*
X010720Y010528D01*
X010740Y010577D02*
X010410Y010577D01*
X010390Y010625D02*
X010760Y010625D01*
X010804Y010674D02*
X010346Y010674D01*
X010298Y010722D02*
X010852Y010722D01*
X009852Y010722D02*
X009298Y010722D01*
X009346Y010674D02*
X009804Y010674D01*
X009760Y010625D02*
X009390Y010625D01*
X009410Y010577D02*
X009740Y010577D01*
X009720Y010528D02*
X009430Y010528D01*
X009442Y010480D02*
X009708Y010480D01*
X009708Y010431D02*
X009442Y010431D01*
X009442Y010383D02*
X009708Y010383D01*
X009715Y010334D02*
X009435Y010334D01*
X009415Y010286D02*
X009735Y010286D01*
X009755Y010237D02*
X009395Y010237D01*
X009358Y010189D02*
X009792Y010189D01*
X009840Y010140D02*
X009310Y010140D01*
X009230Y010092D02*
X009920Y010092D01*
X008920Y010092D02*
X008230Y010092D01*
X008310Y010140D02*
X008840Y010140D01*
X008792Y010189D02*
X008358Y010189D01*
X008395Y010237D02*
X008755Y010237D01*
X008735Y010286D02*
X008415Y010286D01*
X008435Y010334D02*
X008715Y010334D01*
X008708Y010383D02*
X008442Y010383D01*
X008442Y010431D02*
X008708Y010431D01*
X008708Y010480D02*
X008442Y010480D01*
X008430Y010528D02*
X008720Y010528D01*
X008740Y010577D02*
X008410Y010577D01*
X008390Y010625D02*
X008760Y010625D01*
X008804Y010674D02*
X008346Y010674D01*
X008298Y010722D02*
X008852Y010722D01*
X007852Y010722D02*
X007298Y010722D01*
X007346Y010674D02*
X007804Y010674D01*
X007760Y010625D02*
X007390Y010625D01*
X007410Y010577D02*
X007740Y010577D01*
X007720Y010528D02*
X007430Y010528D01*
X007442Y010480D02*
X007708Y010480D01*
X007708Y010431D02*
X007442Y010431D01*
X007442Y010383D02*
X007708Y010383D01*
X007715Y010334D02*
X007435Y010334D01*
X007415Y010286D02*
X007735Y010286D01*
X007755Y010237D02*
X007395Y010237D01*
X007358Y010189D02*
X007792Y010189D01*
X007840Y010140D02*
X007310Y010140D01*
X007230Y010092D02*
X007920Y010092D01*
X006920Y010092D02*
X006230Y010092D01*
X006310Y010140D02*
X006840Y010140D01*
X006792Y010189D02*
X006358Y010189D01*
X006395Y010237D02*
X006755Y010237D01*
X006735Y010286D02*
X006415Y010286D01*
X006435Y010334D02*
X006715Y010334D01*
X006708Y010383D02*
X006442Y010383D01*
X006442Y010431D02*
X006708Y010431D01*
X006708Y010480D02*
X006442Y010480D01*
X006430Y010528D02*
X006720Y010528D01*
X006740Y010577D02*
X006410Y010577D01*
X006390Y010625D02*
X006760Y010625D01*
X006804Y010674D02*
X006346Y010674D01*
X006298Y010722D02*
X006852Y010722D01*
X005852Y010722D02*
X005298Y010722D01*
X005346Y010674D02*
X005804Y010674D01*
X005760Y010625D02*
X005390Y010625D01*
X005410Y010577D02*
X005740Y010577D01*
X005720Y010528D02*
X005430Y010528D01*
X005442Y010480D02*
X005708Y010480D01*
X005708Y010431D02*
X005442Y010431D01*
X005442Y010383D02*
X005708Y010383D01*
X005715Y010334D02*
X005435Y010334D01*
X005415Y010286D02*
X005735Y010286D01*
X005755Y010237D02*
X005395Y010237D01*
X005358Y010189D02*
X005792Y010189D01*
X005840Y010140D02*
X005310Y010140D01*
X005230Y010092D02*
X005920Y010092D01*
X004920Y010092D02*
X004230Y010092D01*
X004310Y010140D02*
X004840Y010140D01*
X004792Y010189D02*
X004358Y010189D01*
X004395Y010237D02*
X004755Y010237D01*
X004735Y010286D02*
X004415Y010286D01*
X004435Y010334D02*
X004715Y010334D01*
X004708Y010383D02*
X004442Y010383D01*
X004442Y010431D02*
X004708Y010431D01*
X004708Y010480D02*
X004442Y010480D01*
X004430Y010528D02*
X004720Y010528D01*
X004740Y010577D02*
X004410Y010577D01*
X004390Y010625D02*
X004760Y010625D01*
X004804Y010674D02*
X004346Y010674D01*
X004298Y010722D02*
X004852Y010722D01*
X003852Y010722D02*
X003298Y010722D01*
X003346Y010674D02*
X003804Y010674D01*
X003760Y010625D02*
X003390Y010625D01*
X003410Y010577D02*
X003740Y010577D01*
X003720Y010528D02*
X003430Y010528D01*
X003442Y010480D02*
X003708Y010480D01*
X003708Y010431D02*
X003442Y010431D01*
X003442Y010383D02*
X003708Y010383D01*
X003715Y010334D02*
X003435Y010334D01*
X003415Y010286D02*
X003735Y010286D01*
X003755Y010237D02*
X003395Y010237D01*
X003358Y010189D02*
X003792Y010189D01*
X003840Y010140D02*
X003310Y010140D01*
X003230Y010092D02*
X003920Y010092D01*
X002920Y010092D02*
X001750Y010092D01*
X001750Y010140D02*
X002840Y010140D01*
X002792Y010189D02*
X001750Y010189D01*
X001750Y010237D02*
X002755Y010237D01*
X002735Y010286D02*
X001750Y010286D01*
X001750Y010334D02*
X002715Y010334D01*
X002708Y010383D02*
X001750Y010383D01*
X001750Y010431D02*
X002708Y010431D01*
X002708Y010480D02*
X001750Y010480D01*
X001750Y010528D02*
X002720Y010528D01*
X002740Y010577D02*
X001750Y010577D01*
X001750Y010625D02*
X002760Y010625D01*
X002804Y010674D02*
X001750Y010674D01*
X001750Y010722D02*
X002852Y010722D01*
X001750Y009558D02*
X014625Y009558D01*
X014610Y009510D02*
X001750Y009510D01*
X001750Y009461D02*
X013628Y009461D01*
X013657Y009490D02*
X013560Y009393D01*
X013560Y009257D01*
X013657Y009160D01*
X013793Y009160D01*
X013890Y009257D01*
X013890Y009393D01*
X013793Y009490D01*
X013657Y009490D01*
X013579Y009413D02*
X001750Y009413D01*
X001750Y009364D02*
X013560Y009364D01*
X013560Y009316D02*
X001750Y009316D01*
X001750Y009267D02*
X012884Y009267D01*
X012907Y009290D02*
X012810Y009193D01*
X012810Y009057D01*
X012907Y008960D01*
X013043Y008960D01*
X013140Y009057D01*
X013140Y009193D01*
X013043Y009290D01*
X012907Y009290D01*
X012835Y009219D02*
X001750Y009219D01*
X001750Y009170D02*
X012810Y009170D01*
X012810Y009122D02*
X001750Y009122D01*
X001750Y009073D02*
X012810Y009073D01*
X012842Y009025D02*
X001750Y009025D01*
X001750Y008976D02*
X012891Y008976D01*
X013059Y008976D02*
X029400Y008976D01*
X029400Y008928D02*
X001750Y008928D01*
X001750Y008879D02*
X029400Y008879D01*
X029400Y008831D02*
X024353Y008831D01*
X024401Y008782D02*
X029400Y008782D01*
X029400Y008734D02*
X024440Y008734D01*
X024440Y008685D02*
X029400Y008685D01*
X029400Y008637D02*
X024440Y008637D01*
X024421Y008588D02*
X029400Y008588D01*
X029400Y008540D02*
X024373Y008540D01*
X024197Y008831D02*
X001750Y008831D01*
X001750Y006648D02*
X003611Y006648D01*
X003563Y006600D02*
X001750Y006600D01*
X001750Y006551D02*
X003521Y006551D01*
X003501Y006503D02*
X001750Y006503D01*
X001750Y006454D02*
X003481Y006454D01*
X003473Y006406D02*
X001750Y006406D01*
X001750Y006357D02*
X003473Y006357D01*
X003473Y006309D02*
X001750Y006309D01*
X001750Y006260D02*
X003487Y006260D01*
X003507Y006212D02*
X001750Y006212D01*
X001750Y006163D02*
X003528Y006163D01*
X003576Y006115D02*
X001750Y006115D01*
X001750Y006066D02*
X003625Y006066D01*
X003741Y006018D02*
X001750Y006018D01*
X001750Y005290D02*
X003639Y005290D01*
X003582Y005242D02*
X001750Y005242D01*
X001750Y005193D02*
X003534Y005193D01*
X003509Y005145D02*
X001750Y005145D01*
X001750Y005096D02*
X003489Y005096D01*
X003473Y005048D02*
X001750Y005048D01*
X001750Y004999D02*
X003473Y004999D01*
X003473Y004951D02*
X001750Y004951D01*
X001750Y004902D02*
X003479Y004902D01*
X003499Y004854D02*
X001750Y004854D01*
X001750Y004805D02*
X003519Y004805D01*
X003556Y004757D02*
X001750Y004757D01*
X001750Y004708D02*
X003605Y004708D01*
X003693Y004660D02*
X001750Y004660D01*
X001750Y004320D02*
X017197Y004320D01*
X017353Y004320D02*
X019647Y004320D01*
X019803Y004320D02*
X020187Y004320D01*
X020160Y004293D02*
X020257Y004390D01*
X020393Y004390D01*
X020490Y004293D01*
X020490Y004157D01*
X020393Y004060D01*
X020257Y004060D01*
X020160Y004157D01*
X020160Y004293D01*
X020160Y004272D02*
X001750Y004272D01*
X001750Y004223D02*
X020160Y004223D01*
X020160Y004175D02*
X019459Y004175D01*
X019443Y004190D02*
X019540Y004093D01*
X019540Y003957D01*
X019443Y003860D01*
X019307Y003860D01*
X019210Y003957D01*
X019210Y004093D01*
X019307Y004190D01*
X019443Y004190D01*
X019507Y004126D02*
X020191Y004126D01*
X020239Y004078D02*
X019540Y004078D01*
X019540Y004029D02*
X024110Y004029D01*
X024110Y003981D02*
X019540Y003981D01*
X019515Y003932D02*
X020099Y003932D01*
X020107Y003940D02*
X020010Y003843D01*
X020010Y003707D01*
X020107Y003610D01*
X020243Y003610D01*
X020340Y003707D01*
X020340Y003843D01*
X020243Y003940D01*
X020107Y003940D01*
X020050Y003884D02*
X019467Y003884D01*
X019283Y003884D02*
X017200Y003884D01*
X017240Y003843D02*
X017143Y003940D01*
X017007Y003940D01*
X016910Y003843D01*
X016910Y003707D01*
X017007Y003610D01*
X017143Y003610D01*
X017240Y003707D01*
X017240Y003843D01*
X017240Y003835D02*
X020010Y003835D01*
X020010Y003787D02*
X019847Y003787D01*
X019843Y003790D02*
X019707Y003790D01*
X019610Y003693D01*
X019610Y003557D01*
X019707Y003460D01*
X019843Y003460D01*
X019940Y003557D01*
X019940Y003693D01*
X019843Y003790D01*
X019895Y003738D02*
X020010Y003738D01*
X020027Y003690D02*
X019940Y003690D01*
X019940Y003641D02*
X020076Y003641D01*
X019940Y003593D02*
X021260Y003593D01*
X021260Y003641D02*
X020274Y003641D01*
X020323Y003690D02*
X021260Y003690D01*
X021305Y003738D02*
X020340Y003738D01*
X020300Y003884D02*
X024183Y003884D01*
X024135Y003932D02*
X020251Y003932D01*
X020411Y004078D02*
X024110Y004078D01*
X024143Y004126D02*
X023609Y004126D01*
X023441Y004126D02*
X020459Y004126D01*
X020490Y004175D02*
X023392Y004175D01*
X023360Y004223D02*
X020490Y004223D01*
X020490Y004272D02*
X023360Y004272D01*
X023360Y004320D02*
X020463Y004320D01*
X020415Y004369D02*
X023385Y004369D01*
X023434Y004417D02*
X019890Y004417D01*
X019852Y004369D02*
X020235Y004369D01*
X019291Y004175D02*
X001750Y004175D01*
X001750Y004126D02*
X019243Y004126D01*
X019210Y004078D02*
X001750Y004078D01*
X001750Y004029D02*
X019210Y004029D01*
X019210Y003981D02*
X001750Y003981D01*
X001750Y003932D02*
X016999Y003932D01*
X016950Y003884D02*
X001750Y003884D01*
X001750Y003835D02*
X011052Y003835D01*
X011057Y003840D02*
X010960Y003743D01*
X010960Y003607D01*
X011057Y003510D01*
X011193Y003510D01*
X011290Y003607D01*
X011290Y003743D01*
X011193Y003840D01*
X011057Y003840D01*
X011003Y003787D02*
X001750Y003787D01*
X001750Y003738D02*
X010960Y003738D01*
X010960Y003690D02*
X001750Y003690D01*
X001750Y003641D02*
X010960Y003641D01*
X010974Y003593D02*
X001750Y003593D01*
X001750Y003544D02*
X007761Y003544D01*
X007807Y003590D02*
X007710Y003493D01*
X007710Y003357D01*
X007807Y003260D01*
X007943Y003260D01*
X008040Y003357D01*
X008040Y003493D01*
X007943Y003590D01*
X007807Y003590D01*
X007712Y003496D02*
X001750Y003496D01*
X001750Y003447D02*
X007710Y003447D01*
X007710Y003399D02*
X001750Y003399D01*
X001750Y003350D02*
X007717Y003350D01*
X007765Y003302D02*
X001750Y003302D01*
X001750Y003253D02*
X013355Y003253D01*
X013358Y003247D02*
X013447Y003158D01*
X013562Y003110D01*
X013688Y003110D01*
X013803Y003158D01*
X013892Y003247D01*
X013940Y003362D01*
X013940Y003488D01*
X013892Y003603D01*
X013803Y003692D01*
X013688Y003740D01*
X013562Y003740D01*
X013447Y003692D01*
X013358Y003603D01*
X013310Y003488D01*
X013310Y003362D01*
X013358Y003247D01*
X013335Y003302D02*
X007985Y003302D01*
X008033Y003350D02*
X013315Y003350D01*
X013310Y003399D02*
X008040Y003399D01*
X008040Y003447D02*
X013310Y003447D01*
X013313Y003496D02*
X008038Y003496D01*
X007989Y003544D02*
X011023Y003544D01*
X011227Y003544D02*
X013333Y003544D01*
X013353Y003593D02*
X011276Y003593D01*
X011290Y003641D02*
X013396Y003641D01*
X013444Y003690D02*
X011290Y003690D01*
X011290Y003738D02*
X013558Y003738D01*
X013692Y003738D02*
X015458Y003738D01*
X015462Y003740D02*
X015347Y003692D01*
X015258Y003603D01*
X015210Y003488D01*
X015210Y003362D01*
X015258Y003247D01*
X015347Y003158D01*
X015462Y003110D01*
X015588Y003110D01*
X015703Y003158D01*
X015792Y003247D01*
X015840Y003362D01*
X015840Y003488D01*
X015792Y003603D01*
X015703Y003692D01*
X015588Y003740D01*
X015462Y003740D01*
X015344Y003690D02*
X013806Y003690D01*
X013854Y003641D02*
X015296Y003641D01*
X015253Y003593D02*
X013897Y003593D01*
X013917Y003544D02*
X015233Y003544D01*
X015213Y003496D02*
X013937Y003496D01*
X013940Y003447D02*
X015210Y003447D01*
X015210Y003399D02*
X013940Y003399D01*
X013935Y003350D02*
X015215Y003350D01*
X015235Y003302D02*
X013915Y003302D01*
X013895Y003253D02*
X015255Y003253D01*
X015300Y003205D02*
X013850Y003205D01*
X013799Y003156D02*
X015351Y003156D01*
X015699Y003156D02*
X017411Y003156D01*
X017410Y003205D02*
X015750Y003205D01*
X015795Y003253D02*
X017410Y003253D01*
X017459Y003108D02*
X001750Y003108D01*
X001750Y003156D02*
X013451Y003156D01*
X013400Y003205D02*
X001750Y003205D01*
X001750Y002671D02*
X010838Y002671D01*
X010810Y002623D02*
X001750Y002623D01*
X001750Y002574D02*
X010810Y002574D01*
X010810Y002526D02*
X001750Y002526D01*
X001750Y002477D02*
X010840Y002477D01*
X010888Y002429D02*
X001750Y002429D01*
X001750Y001895D02*
X016412Y001895D01*
X016410Y001847D02*
X001750Y001847D01*
X001750Y001701D02*
X001831Y001701D01*
X001785Y001653D02*
X001750Y001653D01*
X001750Y001604D02*
X001753Y001604D01*
X004252Y001750D02*
X004898Y001750D01*
X004831Y001701D02*
X004319Y001701D01*
X004367Y001653D02*
X004783Y001653D01*
X004751Y001604D02*
X004399Y001604D01*
X004419Y001556D02*
X004731Y001556D01*
X004711Y001507D02*
X004439Y001507D01*
X004442Y001459D02*
X004708Y001459D01*
X004708Y001410D02*
X004442Y001410D01*
X004442Y001362D02*
X004708Y001362D01*
X004724Y001313D02*
X004426Y001313D01*
X004406Y001265D02*
X004744Y001265D01*
X004764Y001216D02*
X004386Y001216D01*
X004337Y001168D02*
X004813Y001168D01*
X004861Y001119D02*
X004289Y001119D01*
X005289Y001119D02*
X005861Y001119D01*
X005813Y001168D02*
X005337Y001168D01*
X005386Y001216D02*
X005764Y001216D01*
X005744Y001265D02*
X005406Y001265D01*
X005426Y001313D02*
X005724Y001313D01*
X005708Y001362D02*
X005442Y001362D01*
X005442Y001410D02*
X005708Y001410D01*
X005708Y001459D02*
X005442Y001459D01*
X005439Y001507D02*
X005711Y001507D01*
X005731Y001556D02*
X005419Y001556D01*
X005399Y001604D02*
X005751Y001604D01*
X005783Y001653D02*
X005367Y001653D01*
X005319Y001701D02*
X005831Y001701D01*
X005898Y001750D02*
X005252Y001750D01*
X006252Y001750D02*
X006899Y001750D01*
X006831Y001701D02*
X006319Y001701D01*
X006367Y001653D02*
X006785Y001653D01*
X006753Y001604D02*
X006399Y001604D01*
X006419Y001556D02*
X006731Y001556D01*
X006717Y001507D02*
X006439Y001507D01*
X006442Y001459D02*
X006708Y001459D01*
X006713Y001362D02*
X006442Y001362D01*
X006442Y001410D02*
X007050Y001410D01*
X007050Y001459D02*
X007100Y001459D01*
X007100Y001507D02*
X007050Y001507D01*
X007050Y001556D02*
X007100Y001556D01*
X007100Y001604D02*
X007050Y001604D01*
X007050Y001653D02*
X007100Y001653D01*
X007100Y001701D02*
X007050Y001701D01*
X007050Y001750D02*
X007100Y001750D01*
X007251Y001750D02*
X007898Y001750D01*
X007831Y001701D02*
X007319Y001701D01*
X007365Y001653D02*
X007783Y001653D01*
X007751Y001604D02*
X007397Y001604D01*
X007419Y001556D02*
X007731Y001556D01*
X007711Y001507D02*
X007433Y001507D01*
X007442Y001459D02*
X007708Y001459D01*
X007708Y001410D02*
X007100Y001410D01*
X007377Y001216D02*
X007764Y001216D01*
X007744Y001265D02*
X007406Y001265D01*
X007426Y001313D02*
X007724Y001313D01*
X007708Y001362D02*
X007437Y001362D01*
X007337Y001168D02*
X007813Y001168D01*
X007861Y001119D02*
X007279Y001119D01*
X006871Y001119D02*
X006289Y001119D01*
X006337Y001168D02*
X006813Y001168D01*
X006773Y001216D02*
X006386Y001216D01*
X006406Y001265D02*
X006744Y001265D01*
X006724Y001313D02*
X006426Y001313D01*
X008289Y001119D02*
X008861Y001119D01*
X008813Y001168D02*
X008337Y001168D01*
X008386Y001216D02*
X008764Y001216D01*
X008744Y001265D02*
X008406Y001265D01*
X008426Y001313D02*
X008724Y001313D01*
X008708Y001362D02*
X008442Y001362D01*
X008442Y001410D02*
X008708Y001410D01*
X008708Y001459D02*
X008442Y001459D01*
X008439Y001507D02*
X008711Y001507D01*
X008731Y001556D02*
X008419Y001556D01*
X008399Y001604D02*
X008751Y001604D01*
X008783Y001653D02*
X008367Y001653D01*
X008319Y001701D02*
X008831Y001701D01*
X008898Y001750D02*
X008252Y001750D01*
X009252Y001750D02*
X009898Y001750D01*
X009831Y001701D02*
X009319Y001701D01*
X009367Y001653D02*
X009783Y001653D01*
X009751Y001604D02*
X009399Y001604D01*
X009419Y001556D02*
X009731Y001556D01*
X009711Y001507D02*
X009439Y001507D01*
X009442Y001459D02*
X009708Y001459D01*
X009708Y001410D02*
X009442Y001410D01*
X009442Y001362D02*
X009708Y001362D01*
X009724Y001313D02*
X009426Y001313D01*
X009406Y001265D02*
X009744Y001265D01*
X009764Y001216D02*
X009386Y001216D01*
X009337Y001168D02*
X009813Y001168D01*
X009861Y001119D02*
X009289Y001119D01*
X010289Y001119D02*
X010861Y001119D01*
X010813Y001168D02*
X010337Y001168D01*
X010386Y001216D02*
X010764Y001216D01*
X010744Y001265D02*
X010406Y001265D01*
X010426Y001313D02*
X010724Y001313D01*
X010708Y001362D02*
X010442Y001362D01*
X010442Y001410D02*
X010708Y001410D01*
X010708Y001459D02*
X010442Y001459D01*
X010439Y001507D02*
X010711Y001507D01*
X010731Y001556D02*
X010419Y001556D01*
X010399Y001604D02*
X010751Y001604D01*
X010783Y001653D02*
X010367Y001653D01*
X010319Y001701D02*
X010831Y001701D01*
X010898Y001750D02*
X010252Y001750D01*
X011252Y001750D02*
X011898Y001750D01*
X011831Y001701D02*
X011319Y001701D01*
X011367Y001653D02*
X011783Y001653D01*
X011751Y001604D02*
X011399Y001604D01*
X011419Y001556D02*
X011731Y001556D01*
X011711Y001507D02*
X011439Y001507D01*
X011442Y001459D02*
X011708Y001459D01*
X011708Y001410D02*
X011442Y001410D01*
X011442Y001362D02*
X011708Y001362D01*
X011724Y001313D02*
X011426Y001313D01*
X011406Y001265D02*
X011744Y001265D01*
X011764Y001216D02*
X011386Y001216D01*
X011337Y001168D02*
X011813Y001168D01*
X011861Y001119D02*
X011289Y001119D01*
X012289Y001119D02*
X012861Y001119D01*
X012813Y001168D02*
X012337Y001168D01*
X012386Y001216D02*
X012764Y001216D01*
X012744Y001265D02*
X012406Y001265D01*
X012426Y001313D02*
X012724Y001313D01*
X012708Y001362D02*
X012442Y001362D01*
X012442Y001410D02*
X012708Y001410D01*
X012708Y001459D02*
X012442Y001459D01*
X012439Y001507D02*
X012711Y001507D01*
X012731Y001556D02*
X012419Y001556D01*
X012399Y001604D02*
X012751Y001604D01*
X012783Y001653D02*
X012367Y001653D01*
X012319Y001701D02*
X012831Y001701D01*
X012898Y001750D02*
X012252Y001750D01*
X013252Y001750D02*
X013898Y001750D01*
X013831Y001701D02*
X013319Y001701D01*
X013367Y001653D02*
X013783Y001653D01*
X013751Y001604D02*
X013399Y001604D01*
X013419Y001556D02*
X013731Y001556D01*
X013711Y001507D02*
X013439Y001507D01*
X013442Y001459D02*
X013708Y001459D01*
X013708Y001410D02*
X013442Y001410D01*
X013442Y001362D02*
X013708Y001362D01*
X013724Y001313D02*
X013426Y001313D01*
X013406Y001265D02*
X013744Y001265D01*
X013764Y001216D02*
X013386Y001216D01*
X013337Y001168D02*
X013813Y001168D01*
X013861Y001119D02*
X013289Y001119D01*
X014289Y001119D02*
X014861Y001119D01*
X014813Y001168D02*
X014337Y001168D01*
X014386Y001216D02*
X014764Y001216D01*
X014744Y001265D02*
X014406Y001265D01*
X014426Y001313D02*
X014724Y001313D01*
X014708Y001362D02*
X014442Y001362D01*
X014442Y001410D02*
X014708Y001410D01*
X014708Y001459D02*
X014442Y001459D01*
X014439Y001507D02*
X014711Y001507D01*
X014731Y001556D02*
X014419Y001556D01*
X014399Y001604D02*
X014751Y001604D01*
X014783Y001653D02*
X014367Y001653D01*
X014319Y001701D02*
X014831Y001701D01*
X014898Y001750D02*
X014252Y001750D01*
X016684Y001701D02*
X016831Y001701D01*
X016898Y001750D02*
X016733Y001750D01*
X017252Y001750D02*
X017898Y001750D01*
X017831Y001701D02*
X017319Y001701D01*
X017367Y001653D02*
X017783Y001653D01*
X017751Y001604D02*
X017399Y001604D01*
X017419Y001556D02*
X017731Y001556D01*
X017711Y001507D02*
X017439Y001507D01*
X017442Y001459D02*
X017708Y001459D01*
X017708Y001410D02*
X017442Y001410D01*
X017442Y001362D02*
X017708Y001362D01*
X017724Y001313D02*
X017426Y001313D01*
X017406Y001265D02*
X017744Y001265D01*
X017764Y001216D02*
X017386Y001216D01*
X017337Y001168D02*
X017813Y001168D01*
X017861Y001119D02*
X017289Y001119D01*
X018289Y001119D02*
X018861Y001119D01*
X018813Y001168D02*
X018337Y001168D01*
X018386Y001216D02*
X018764Y001216D01*
X018744Y001265D02*
X018406Y001265D01*
X018426Y001313D02*
X018724Y001313D01*
X018708Y001362D02*
X018442Y001362D01*
X018442Y001410D02*
X018708Y001410D01*
X018708Y001459D02*
X018442Y001459D01*
X018439Y001507D02*
X018711Y001507D01*
X018731Y001556D02*
X018419Y001556D01*
X018399Y001604D02*
X018751Y001604D01*
X018783Y001653D02*
X018367Y001653D01*
X018319Y001701D02*
X018831Y001701D01*
X018898Y001750D02*
X018252Y001750D01*
X019252Y001750D02*
X019898Y001750D01*
X019831Y001701D02*
X019319Y001701D01*
X019367Y001653D02*
X019783Y001653D01*
X019751Y001604D02*
X019399Y001604D01*
X019419Y001556D02*
X019731Y001556D01*
X019711Y001507D02*
X019439Y001507D01*
X019442Y001459D02*
X019708Y001459D01*
X019708Y001410D02*
X019442Y001410D01*
X019442Y001362D02*
X019708Y001362D01*
X019724Y001313D02*
X019426Y001313D01*
X019406Y001265D02*
X019744Y001265D01*
X019764Y001216D02*
X019386Y001216D01*
X019337Y001168D02*
X019813Y001168D01*
X019861Y001119D02*
X019289Y001119D01*
X020289Y001119D02*
X020861Y001119D01*
X020813Y001168D02*
X020337Y001168D01*
X020386Y001216D02*
X020764Y001216D01*
X020744Y001265D02*
X020406Y001265D01*
X020426Y001313D02*
X020724Y001313D01*
X020708Y001362D02*
X020442Y001362D01*
X020442Y001410D02*
X020708Y001410D01*
X020708Y001459D02*
X020442Y001459D01*
X020439Y001507D02*
X020711Y001507D01*
X020731Y001556D02*
X020419Y001556D01*
X020399Y001604D02*
X020751Y001604D01*
X020783Y001653D02*
X020367Y001653D01*
X020319Y001701D02*
X020831Y001701D01*
X020898Y001750D02*
X020252Y001750D01*
X021252Y001750D02*
X021899Y001750D01*
X021831Y001701D02*
X021319Y001701D01*
X021367Y001653D02*
X021785Y001653D01*
X021753Y001604D02*
X021399Y001604D01*
X021419Y001556D02*
X021731Y001556D01*
X021717Y001507D02*
X021439Y001507D01*
X021442Y001459D02*
X021708Y001459D01*
X021713Y001362D02*
X021442Y001362D01*
X021442Y001410D02*
X022050Y001410D01*
X022050Y001459D02*
X022100Y001459D01*
X022100Y001507D02*
X022050Y001507D01*
X022050Y001556D02*
X022100Y001556D01*
X022100Y001604D02*
X022050Y001604D01*
X022050Y001653D02*
X022100Y001653D01*
X022100Y001701D02*
X022050Y001701D01*
X022050Y001750D02*
X022100Y001750D01*
X022251Y001750D02*
X022898Y001750D01*
X022831Y001701D02*
X022319Y001701D01*
X022365Y001653D02*
X022783Y001653D01*
X022751Y001604D02*
X022397Y001604D01*
X022419Y001556D02*
X022731Y001556D01*
X022711Y001507D02*
X022433Y001507D01*
X022442Y001459D02*
X022708Y001459D01*
X022708Y001410D02*
X022100Y001410D01*
X022377Y001216D02*
X022764Y001216D01*
X022744Y001265D02*
X022406Y001265D01*
X022426Y001313D02*
X022724Y001313D01*
X022708Y001362D02*
X022437Y001362D01*
X022337Y001168D02*
X022813Y001168D01*
X022861Y001119D02*
X022279Y001119D01*
X021871Y001119D02*
X021289Y001119D01*
X021337Y001168D02*
X021813Y001168D01*
X021773Y001216D02*
X021386Y001216D01*
X021406Y001265D02*
X021744Y001265D01*
X021724Y001313D02*
X021426Y001313D01*
X023252Y001750D02*
X023898Y001750D01*
X023831Y001701D02*
X023319Y001701D01*
X023367Y001653D02*
X023783Y001653D01*
X023751Y001604D02*
X023399Y001604D01*
X023419Y001556D02*
X023731Y001556D01*
X023711Y001507D02*
X023439Y001507D01*
X023442Y001459D02*
X023708Y001459D01*
X023708Y001410D02*
X023442Y001410D01*
X023442Y001362D02*
X023708Y001362D01*
X023724Y001313D02*
X023426Y001313D01*
X023406Y001265D02*
X023744Y001265D01*
X023764Y001216D02*
X023386Y001216D01*
X023337Y001168D02*
X023813Y001168D01*
X023861Y001119D02*
X023289Y001119D01*
X024289Y001119D02*
X024861Y001119D01*
X024813Y001168D02*
X024337Y001168D01*
X024386Y001216D02*
X024764Y001216D01*
X024744Y001265D02*
X024406Y001265D01*
X024426Y001313D02*
X024724Y001313D01*
X024708Y001362D02*
X024442Y001362D01*
X024442Y001410D02*
X024708Y001410D01*
X024708Y001459D02*
X024442Y001459D01*
X024439Y001507D02*
X024711Y001507D01*
X024731Y001556D02*
X024419Y001556D01*
X024399Y001604D02*
X024751Y001604D01*
X024783Y001653D02*
X024367Y001653D01*
X024319Y001701D02*
X024831Y001701D01*
X024898Y001750D02*
X024252Y001750D01*
X025252Y001750D02*
X025898Y001750D01*
X025831Y001701D02*
X025319Y001701D01*
X025367Y001653D02*
X025783Y001653D01*
X025751Y001604D02*
X025399Y001604D01*
X025419Y001556D02*
X025731Y001556D01*
X025711Y001507D02*
X025439Y001507D01*
X025442Y001459D02*
X025708Y001459D01*
X025708Y001410D02*
X025442Y001410D01*
X025442Y001362D02*
X025708Y001362D01*
X025724Y001313D02*
X025426Y001313D01*
X025406Y001265D02*
X025744Y001265D01*
X025764Y001216D02*
X025386Y001216D01*
X025337Y001168D02*
X025813Y001168D01*
X025861Y001119D02*
X025289Y001119D01*
X026289Y001119D02*
X026861Y001119D01*
X026813Y001168D02*
X026337Y001168D01*
X026386Y001216D02*
X026764Y001216D01*
X026744Y001265D02*
X026406Y001265D01*
X026426Y001313D02*
X026724Y001313D01*
X026708Y001362D02*
X026442Y001362D01*
X026442Y001410D02*
X026708Y001410D01*
X026708Y001459D02*
X026442Y001459D01*
X026439Y001507D02*
X026711Y001507D01*
X026731Y001556D02*
X026419Y001556D01*
X026399Y001604D02*
X026751Y001604D01*
X026783Y001653D02*
X026367Y001653D01*
X026319Y001701D02*
X026831Y001701D01*
X026898Y001750D02*
X026252Y001750D01*
X021321Y003496D02*
X019879Y003496D01*
X019927Y003544D02*
X021273Y003544D01*
X019703Y003787D02*
X017240Y003787D01*
X017240Y003738D02*
X019655Y003738D01*
X019610Y003690D02*
X017223Y003690D01*
X017174Y003641D02*
X019610Y003641D01*
X019610Y003593D02*
X015797Y003593D01*
X015817Y003544D02*
X016861Y003544D01*
X016812Y003496D02*
X015837Y003496D01*
X015840Y003447D02*
X016810Y003447D01*
X016810Y003399D02*
X015840Y003399D01*
X015835Y003350D02*
X016817Y003350D01*
X016865Y003302D02*
X015815Y003302D01*
X015754Y003641D02*
X016976Y003641D01*
X016927Y003690D02*
X015706Y003690D01*
X015592Y003738D02*
X016910Y003738D01*
X016910Y003787D02*
X011247Y003787D01*
X011198Y003835D02*
X016910Y003835D01*
X017151Y003932D02*
X019235Y003932D01*
X019623Y003544D02*
X017089Y003544D01*
X017138Y003496D02*
X019671Y003496D01*
X018475Y003075D02*
X018475Y002975D01*
X018410Y004757D02*
X004094Y004757D01*
X004131Y004805D02*
X018362Y004805D01*
X018590Y005193D02*
X018610Y005193D01*
X018289Y005872D02*
X017905Y005872D01*
X017940Y005921D02*
X018337Y005921D01*
X018290Y006406D02*
X020861Y006406D01*
X020813Y006454D02*
X018290Y006454D01*
X018281Y006503D02*
X020810Y006503D01*
X020810Y006551D02*
X019184Y006551D01*
X019233Y006600D02*
X020816Y006600D01*
X020865Y006648D02*
X020081Y006648D01*
X019869Y006648D02*
X019240Y006648D01*
X019240Y006697D02*
X019820Y006697D01*
X020093Y006891D02*
X024385Y006891D01*
X024585Y006891D02*
X026175Y006891D01*
X027198Y007715D02*
X028765Y007715D01*
X028744Y007764D02*
X027247Y007764D01*
X027290Y007812D02*
X028724Y007812D01*
X028708Y007861D02*
X027290Y007861D01*
X027290Y007909D02*
X028708Y007909D01*
X028708Y007958D02*
X027276Y007958D01*
X027227Y008006D02*
X028711Y008006D01*
X029400Y009025D02*
X013108Y009025D01*
X013140Y009073D02*
X029400Y009073D01*
X029400Y009122D02*
X013140Y009122D01*
X013140Y009170D02*
X013647Y009170D01*
X013598Y009219D02*
X013115Y009219D01*
X013066Y009267D02*
X013560Y009267D01*
X013803Y009170D02*
X021097Y009170D01*
X021048Y009219D02*
X013852Y009219D01*
X013890Y009267D02*
X021010Y009267D01*
X021253Y009170D02*
X022797Y009170D01*
X022807Y009160D02*
X022943Y009160D01*
X023040Y009257D01*
X023040Y009393D01*
X022943Y009490D01*
X022807Y009490D01*
X022710Y009393D01*
X022710Y009257D01*
X022807Y009160D01*
X022748Y009219D02*
X021302Y009219D01*
X021340Y009267D02*
X022710Y009267D01*
X022710Y009316D02*
X021340Y009316D01*
X021340Y009364D02*
X022710Y009364D01*
X022729Y009413D02*
X021321Y009413D01*
X021272Y009461D02*
X022778Y009461D01*
X022972Y009461D02*
X029400Y009461D01*
X029400Y009413D02*
X023021Y009413D01*
X023040Y009364D02*
X029400Y009364D01*
X029400Y009316D02*
X023040Y009316D01*
X023040Y009267D02*
X029400Y009267D01*
X029400Y009219D02*
X023002Y009219D01*
X022953Y009170D02*
X029400Y009170D01*
X029400Y009607D02*
X024740Y009607D01*
X024788Y009655D02*
X029400Y009655D01*
X029400Y009704D02*
X024790Y009704D01*
X024790Y009752D02*
X029400Y009752D01*
X029400Y009801D02*
X024783Y009801D01*
X024734Y009849D02*
X029400Y009849D01*
X029400Y010092D02*
X029230Y010092D01*
X029310Y010140D02*
X029400Y010140D01*
X029400Y010189D02*
X029358Y010189D01*
X029391Y010237D02*
X029400Y010237D01*
X029100Y010237D02*
X029050Y010237D01*
X029050Y010189D02*
X029100Y010189D01*
X029100Y010140D02*
X029050Y010140D01*
X029050Y010092D02*
X029100Y010092D01*
X028920Y010092D02*
X028230Y010092D01*
X028310Y010140D02*
X028840Y010140D01*
X028792Y010189D02*
X028358Y010189D01*
X028395Y010237D02*
X028759Y010237D01*
X028735Y010286D02*
X028415Y010286D01*
X028435Y010334D02*
X028718Y010334D01*
X028709Y010383D02*
X028442Y010383D01*
X028442Y010431D02*
X029050Y010431D01*
X029050Y010383D02*
X029100Y010383D01*
X029100Y010334D02*
X029050Y010334D01*
X029050Y010286D02*
X029100Y010286D01*
X028711Y010480D02*
X028442Y010480D01*
X028430Y010528D02*
X028721Y010528D01*
X028740Y010577D02*
X028410Y010577D01*
X028390Y010625D02*
X028767Y010625D01*
X028804Y010674D02*
X028346Y010674D01*
X028298Y010722D02*
X028858Y010722D01*
X027852Y010722D02*
X027298Y010722D01*
X027346Y010674D02*
X027804Y010674D01*
X027760Y010625D02*
X027390Y010625D01*
X027410Y010577D02*
X027740Y010577D01*
X027720Y010528D02*
X027430Y010528D01*
X027442Y010480D02*
X027708Y010480D01*
X027708Y010431D02*
X027442Y010431D01*
X027442Y010383D02*
X027708Y010383D01*
X027715Y010334D02*
X027435Y010334D01*
X027415Y010286D02*
X027735Y010286D01*
X027755Y010237D02*
X027395Y010237D01*
X027358Y010189D02*
X027792Y010189D01*
X027840Y010140D02*
X027310Y010140D01*
X027230Y010092D02*
X027920Y010092D01*
X026920Y010092D02*
X026230Y010092D01*
X026310Y010140D02*
X026840Y010140D01*
X026792Y010189D02*
X026358Y010189D01*
X026395Y010237D02*
X026755Y010237D01*
X026735Y010286D02*
X026415Y010286D01*
X026435Y010334D02*
X026715Y010334D01*
X026708Y010383D02*
X026442Y010383D01*
X026442Y010431D02*
X026708Y010431D01*
X026708Y010480D02*
X026442Y010480D01*
X026430Y010528D02*
X026720Y010528D01*
X026740Y010577D02*
X026410Y010577D01*
X026390Y010625D02*
X026760Y010625D01*
X026804Y010674D02*
X026346Y010674D01*
X026298Y010722D02*
X026852Y010722D01*
X025852Y010722D02*
X025298Y010722D01*
X025346Y010674D02*
X025804Y010674D01*
X025760Y010625D02*
X025390Y010625D01*
X025410Y010577D02*
X025740Y010577D01*
X025720Y010528D02*
X025430Y010528D01*
X025442Y010480D02*
X025708Y010480D01*
X025708Y010431D02*
X025442Y010431D01*
X025442Y010383D02*
X025708Y010383D01*
X025715Y010334D02*
X025435Y010334D01*
X025415Y010286D02*
X025735Y010286D01*
X025755Y010237D02*
X025395Y010237D01*
X025358Y010189D02*
X025792Y010189D01*
X025840Y010140D02*
X025310Y010140D01*
X025230Y010092D02*
X025920Y010092D01*
X024920Y010092D02*
X024230Y010092D01*
X024310Y010140D02*
X024840Y010140D01*
X024792Y010189D02*
X024358Y010189D01*
X024395Y010237D02*
X024755Y010237D01*
X024735Y010286D02*
X024415Y010286D01*
X024435Y010334D02*
X024715Y010334D01*
X024708Y010383D02*
X024442Y010383D01*
X024442Y010431D02*
X024708Y010431D01*
X024708Y010480D02*
X024442Y010480D01*
X024430Y010528D02*
X024720Y010528D01*
X024740Y010577D02*
X024410Y010577D01*
X024390Y010625D02*
X024760Y010625D01*
X024804Y010674D02*
X024346Y010674D01*
X024298Y010722D02*
X024852Y010722D01*
X023852Y010722D02*
X023298Y010722D01*
X023346Y010674D02*
X023804Y010674D01*
X023760Y010625D02*
X023390Y010625D01*
X023410Y010577D02*
X023740Y010577D01*
X023720Y010528D02*
X023430Y010528D01*
X023442Y010480D02*
X023708Y010480D01*
X023708Y010431D02*
X023442Y010431D01*
X023442Y010383D02*
X023708Y010383D01*
X023715Y010334D02*
X023435Y010334D01*
X023415Y010286D02*
X023735Y010286D01*
X023755Y010237D02*
X023395Y010237D01*
X023358Y010189D02*
X023792Y010189D01*
X023840Y010140D02*
X023310Y010140D01*
X023230Y010092D02*
X023920Y010092D01*
X022920Y010092D02*
X022230Y010092D01*
X022310Y010140D02*
X022840Y010140D01*
X022792Y010189D02*
X022358Y010189D01*
X022395Y010237D02*
X022755Y010237D01*
X022735Y010286D02*
X022415Y010286D01*
X022435Y010334D02*
X022715Y010334D01*
X022708Y010383D02*
X022442Y010383D01*
X022442Y010431D02*
X022708Y010431D01*
X022708Y010480D02*
X022442Y010480D01*
X022430Y010528D02*
X022720Y010528D01*
X022740Y010577D02*
X022410Y010577D01*
X022390Y010625D02*
X022760Y010625D01*
X022804Y010674D02*
X022346Y010674D01*
X022298Y010722D02*
X022852Y010722D01*
X021852Y010722D02*
X021298Y010722D01*
X021346Y010674D02*
X021804Y010674D01*
X021760Y010625D02*
X021390Y010625D01*
X021410Y010577D02*
X021740Y010577D01*
X021720Y010528D02*
X021430Y010528D01*
X021442Y010480D02*
X021708Y010480D01*
X021708Y010431D02*
X021442Y010431D01*
X021442Y010383D02*
X021708Y010383D01*
X021715Y010334D02*
X021435Y010334D01*
X021415Y010286D02*
X021735Y010286D01*
X021755Y010237D02*
X021395Y010237D01*
X021358Y010189D02*
X021792Y010189D01*
X021840Y010140D02*
X021310Y010140D01*
X021230Y010092D02*
X021920Y010092D01*
X014701Y009316D02*
X013890Y009316D01*
X013890Y009364D02*
X014653Y009364D01*
X014610Y009413D02*
X013871Y009413D01*
X013822Y009461D02*
X014610Y009461D01*
X018647Y007036D02*
X019403Y007036D01*
X018960Y006794D02*
X018727Y006794D01*
X018966Y006551D02*
X018232Y006551D01*
X015926Y005145D02*
X004141Y005145D01*
X004116Y005193D02*
X015875Y005193D01*
X021866Y005533D02*
X022560Y005533D01*
X022560Y005581D02*
X021914Y005581D01*
X021940Y005630D02*
X022596Y005630D01*
X022645Y005678D02*
X021940Y005678D01*
X024614Y005048D02*
X026136Y005048D01*
X026045Y004999D02*
X024711Y004999D01*
X024760Y004951D02*
X025990Y004951D01*
X025952Y004902D02*
X024805Y004902D01*
X024825Y004854D02*
X025925Y004854D01*
X025905Y004805D02*
X024845Y004805D01*
X024860Y004757D02*
X025895Y004757D01*
X026240Y004757D02*
X026290Y004757D01*
X026290Y004805D02*
X026240Y004805D01*
X026240Y004854D02*
X026290Y004854D01*
X026290Y004902D02*
X026240Y004902D01*
X026240Y004951D02*
X026290Y004951D01*
X026290Y004999D02*
X026240Y004999D01*
X026240Y005048D02*
X026290Y005048D01*
X026240Y004708D02*
X024860Y004708D01*
M02*
