G75*
%MOIN*%
%OFA0B0*%
%FSLAX24Y24*%
%IPPOS*%
%LPD*%
%AMOC8*
5,1,8,0,0,1.08239X$1,22.5*
%
%ADD10C,0.0480*%
%ADD11C,0.0390*%
%ADD12C,0.0585*%
%ADD13R,0.0900X0.0500*%
%ADD14R,0.0850X0.1400*%
%ADD15C,0.0740*%
%ADD16C,0.0180*%
%ADD17C,0.0050*%
%ADD18C,0.0120*%
D10*
X013625Y003425D03*
X015525Y003425D03*
D11*
X016075Y005375D03*
X016075Y005975D03*
D12*
X002075Y001425D03*
X003075Y001425D03*
X004075Y001425D03*
X005075Y001425D03*
X006075Y001425D03*
X007075Y001425D03*
X008075Y001425D03*
X009075Y001425D03*
X010075Y001425D03*
X011075Y001425D03*
X012075Y001425D03*
X013075Y001425D03*
X014075Y001425D03*
X015075Y001425D03*
X016075Y001425D03*
X017075Y001425D03*
X018075Y001425D03*
X019075Y001425D03*
X020075Y001425D03*
X021075Y001425D03*
X022075Y001425D03*
X023075Y001425D03*
X024075Y001425D03*
X025075Y001425D03*
X026075Y001425D03*
X027075Y001425D03*
X028075Y001425D03*
X029075Y001425D03*
X029075Y003925D03*
X029075Y004925D03*
X029075Y005925D03*
X029075Y006925D03*
X029075Y007925D03*
X029075Y010425D03*
X028075Y010425D03*
X027075Y010425D03*
X026075Y010425D03*
X025075Y010425D03*
X024075Y010425D03*
X023075Y010425D03*
X022075Y010425D03*
X021075Y010425D03*
X020075Y010425D03*
X019075Y010425D03*
X018075Y010425D03*
X017075Y010425D03*
X016075Y010425D03*
X015075Y010425D03*
X014075Y010425D03*
X013075Y010425D03*
X012075Y010425D03*
X011075Y010425D03*
X010075Y010425D03*
X009075Y010425D03*
X008075Y010425D03*
X007075Y010425D03*
X006075Y010425D03*
X005075Y010425D03*
X004075Y010425D03*
X003075Y010425D03*
D13*
X007825Y006575D03*
X007825Y005675D03*
X007825Y004775D03*
D14*
X005325Y005675D03*
D15*
X024485Y004695D03*
X026265Y004695D03*
X026989Y005975D03*
X026265Y007255D03*
X024485Y007255D03*
D16*
X023825Y007425D03*
X025475Y008025D03*
X024275Y008675D03*
X022875Y009325D03*
X021175Y009325D03*
X019625Y009925D03*
X018725Y009725D03*
X017525Y009675D03*
X015775Y009475D03*
X014775Y009475D03*
X013725Y009325D03*
X012975Y009125D03*
X012075Y008575D03*
X013275Y008475D03*
X014975Y007775D03*
X015075Y008525D03*
X017325Y008525D03*
X018325Y008625D03*
X019625Y008525D03*
X019875Y008175D03*
X019225Y007775D03*
X019425Y007525D03*
X019025Y007275D03*
X018775Y007425D03*
X018575Y006875D03*
X019075Y006675D03*
X019525Y006925D03*
X019975Y006775D03*
X020975Y006525D03*
X020325Y006225D03*
X020625Y006025D03*
X021775Y005675D03*
X021925Y005975D03*
X022225Y006025D03*
X022725Y005525D03*
X022925Y005175D03*
X022625Y004825D03*
X023275Y004675D03*
X023525Y004275D03*
X024275Y004025D03*
X025225Y004525D03*
X027775Y004475D03*
X028075Y005525D03*
X023875Y006175D03*
X021475Y005275D03*
X021025Y005175D03*
X020425Y005175D03*
X019525Y005425D03*
X018725Y005075D03*
X018425Y005175D03*
X018225Y005025D03*
X018525Y004875D03*
X018875Y004575D03*
X019725Y004475D03*
X020325Y004225D03*
X019375Y004025D03*
X019775Y003625D03*
X020175Y003775D03*
X021425Y003625D03*
X021875Y003675D03*
X023625Y003325D03*
X025475Y002875D03*
X022575Y002125D03*
X021625Y001925D03*
X021175Y002325D03*
X020225Y002925D03*
X019675Y002475D03*
X018475Y002975D03*
X017575Y003225D03*
X016975Y003425D03*
X017075Y003775D03*
X017275Y004475D03*
X017725Y005525D03*
X018425Y005775D03*
X017775Y005975D03*
X017575Y006175D03*
X018125Y006425D03*
X018825Y006125D03*
X016925Y006025D03*
X014975Y006855D03*
X012325Y006305D03*
X011375Y006925D03*
X011125Y006975D03*
X011025Y007225D03*
X011025Y007525D03*
X009075Y008075D03*
X008725Y008275D03*
X008225Y007725D03*
X007325Y007625D03*
X007275Y007925D03*
X005725Y007875D03*
X007475Y007275D03*
X005625Y006775D03*
X003725Y007325D03*
X002225Y008475D03*
X007075Y005675D03*
X008625Y005675D03*
X009825Y006025D03*
X010725Y006075D03*
X010675Y006425D03*
X010075Y006525D03*
X012225Y005375D03*
X012025Y004975D03*
X012925Y004575D03*
X014425Y004225D03*
X011125Y003675D03*
X010075Y004175D03*
X009325Y004525D03*
X006925Y004525D03*
X006275Y004875D03*
X005725Y004375D03*
X003675Y004025D03*
X007875Y003425D03*
X010775Y002925D03*
X010975Y002575D03*
X011375Y002475D03*
X016375Y002075D03*
X016575Y001825D03*
X021075Y004775D03*
X028575Y002825D03*
X027125Y007875D03*
X026725Y009125D03*
X024625Y009725D03*
D17*
X024625Y007875D01*
X024975Y007525D01*
X024975Y003225D01*
X025075Y003125D01*
X025075Y001425D01*
X024075Y001425D02*
X024075Y003325D01*
X024275Y003525D01*
X024275Y004025D01*
X023525Y004275D02*
X023525Y008325D01*
X024075Y008875D01*
X024075Y010425D01*
X023075Y010425D02*
X023075Y009775D01*
X022875Y009575D01*
X022875Y009325D01*
X021175Y009325D02*
X021175Y005975D01*
X021025Y005825D01*
X021025Y005175D01*
X020425Y005175D02*
X020425Y004725D01*
X020325Y004625D01*
X020325Y004225D01*
X020775Y004525D02*
X020925Y004375D01*
X020925Y002275D01*
X021075Y002125D01*
X021075Y001425D01*
X020075Y001425D02*
X020075Y001875D01*
X019975Y001975D01*
X019975Y006775D01*
X019875Y006925D02*
X019875Y008175D01*
X020075Y008525D02*
X020325Y008275D01*
X020325Y006225D01*
X020625Y006025D02*
X020625Y009275D01*
X021075Y009725D01*
X021075Y010425D01*
X020075Y010425D02*
X020075Y008525D01*
X019625Y008525D02*
X019625Y009925D01*
X018725Y009725D02*
X018325Y009325D01*
X018325Y008625D01*
X018075Y008575D02*
X019225Y007425D01*
X019225Y006975D01*
X019525Y006675D01*
X019525Y005425D01*
X018925Y005825D02*
X018925Y004625D01*
X018875Y004575D01*
X019325Y004825D02*
X019375Y004775D01*
X019375Y004025D01*
X019775Y003625D02*
X019775Y003475D01*
X019775Y003125D01*
X019675Y003025D01*
X019675Y002475D01*
X021175Y002325D02*
X021225Y002375D01*
X021225Y003525D01*
X021225Y004625D01*
X021075Y004775D01*
X020775Y004525D02*
X020775Y005775D01*
X020825Y005825D01*
X020875Y005875D01*
X020975Y005975D01*
X020975Y006525D01*
X019875Y006925D02*
X019725Y006775D01*
X019725Y004475D01*
X019325Y004825D02*
X019325Y006675D01*
X019025Y006975D01*
X018925Y006975D01*
X017975Y007925D01*
X017975Y007975D01*
X017975Y009525D01*
X017075Y010425D01*
X016075Y010425D02*
X016075Y008575D01*
X016925Y007725D01*
X016925Y006025D01*
X017575Y006175D02*
X017575Y007675D01*
X017525Y007725D01*
X017325Y007925D01*
X017325Y008525D01*
X018075Y008575D02*
X018075Y010425D01*
X019075Y010425D02*
X019075Y009125D01*
X019425Y008775D01*
X019425Y007525D01*
X018575Y006875D02*
X018625Y005975D01*
X018675Y005925D01*
X018725Y005875D01*
X018725Y005075D01*
X018425Y005175D02*
X018425Y005775D01*
X018825Y005925D02*
X018925Y005825D01*
X018825Y005925D02*
X018825Y006125D01*
X018225Y006325D02*
X018125Y006425D01*
X018225Y006325D02*
X018225Y005025D01*
X017275Y004475D02*
X017275Y004175D01*
X017575Y003875D01*
X017575Y003225D01*
X016975Y003425D02*
X016975Y002875D01*
X016575Y002475D01*
X016575Y001825D01*
X016375Y002075D02*
X016375Y003075D01*
X017075Y003775D01*
X016075Y004225D02*
X015775Y004525D01*
X015775Y009475D01*
X014775Y009475D02*
X014775Y004425D01*
X015075Y004125D01*
X015075Y001425D01*
X014075Y001425D02*
X014075Y006125D01*
X013725Y006475D01*
X013725Y009325D01*
X013075Y009675D02*
X012975Y009575D01*
X012975Y009125D01*
X013075Y009675D02*
X013075Y010425D01*
X012075Y010425D02*
X012075Y008575D01*
X011625Y008125D02*
X011075Y008675D01*
X011075Y010425D01*
X010075Y010425D02*
X010075Y009375D01*
X009825Y009125D01*
X009825Y006025D01*
X010525Y006275D02*
X010525Y003525D01*
X010575Y003475D01*
X010775Y003275D01*
X010775Y002925D01*
X011075Y003075D02*
X011075Y003125D01*
X010725Y003475D01*
X010725Y006075D01*
X010525Y006275D02*
X010675Y006425D01*
X010075Y006525D02*
X010075Y005175D01*
X009925Y005025D01*
X009825Y004925D01*
X009825Y003125D01*
X009925Y003025D01*
X010075Y002875D01*
X010075Y001425D01*
X008075Y001425D02*
X008075Y002475D01*
X007875Y002675D01*
X007875Y003425D01*
X005725Y004375D02*
X005725Y005025D01*
X005325Y005425D01*
X005325Y005675D01*
X011125Y006975D02*
X011125Y003675D01*
X011125Y003375D01*
X011375Y003125D01*
X011375Y002475D01*
X011075Y002675D02*
X010975Y002575D01*
X011075Y002675D02*
X011075Y003075D01*
X013075Y003875D02*
X013425Y004225D01*
X013425Y007225D01*
X013275Y007375D01*
X013275Y008475D01*
X011625Y008125D02*
X011625Y006725D01*
X012275Y006075D01*
X012275Y005425D01*
X012225Y005375D01*
X012025Y004975D02*
X012025Y006075D01*
X011375Y006725D01*
X011375Y006925D01*
X009075Y008075D02*
X009075Y010425D01*
X008075Y010425D02*
X008075Y009425D01*
X008425Y009075D01*
X008725Y008775D01*
X008725Y008275D01*
X014975Y007775D02*
X014975Y006855D01*
X017525Y007975D02*
X017725Y007775D01*
X017775Y007725D01*
X017775Y005975D01*
X019075Y006675D02*
X019075Y001425D01*
X021625Y001925D02*
X021625Y002625D01*
X022175Y003175D01*
X022225Y003225D01*
X022225Y006025D01*
X021775Y005675D02*
X021775Y004775D01*
X021875Y004675D01*
X021875Y003675D01*
X022575Y003425D02*
X022625Y003475D01*
X022625Y004825D01*
X024485Y004695D02*
X024485Y007255D01*
X024275Y007825D02*
X023825Y007425D01*
X024275Y007825D02*
X024275Y008675D01*
X025475Y008025D02*
X025475Y005875D01*
X025525Y005825D01*
X025525Y003475D01*
X026075Y002925D01*
X026075Y001425D01*
X027075Y001425D02*
X027075Y004325D01*
X027525Y004775D01*
X027525Y006525D01*
X027225Y006825D01*
X027125Y006925D01*
X027125Y007875D01*
X028575Y007475D02*
X028575Y002825D01*
X025475Y002875D02*
X025475Y003275D01*
X025225Y003525D01*
X025225Y004525D01*
X022575Y003425D02*
X022575Y002125D01*
X028075Y001425D02*
X028075Y005525D01*
X028575Y007475D02*
X029025Y007925D01*
X029075Y007925D01*
X017525Y007975D02*
X017525Y009675D01*
X015075Y010425D02*
X015075Y008525D01*
X016075Y004225D02*
X016075Y001425D01*
X013075Y001425D02*
X013075Y003875D01*
D18*
X008625Y005675D02*
X007825Y005675D01*
X007075Y005675D01*
X006925Y005075D02*
X006075Y005925D01*
X006075Y010425D01*
X003625Y008475D02*
X002225Y008475D01*
X003625Y008475D02*
X004225Y007875D01*
X005725Y007875D01*
X007475Y007275D02*
X007825Y006925D01*
X007825Y006575D01*
X006925Y005075D02*
X006925Y004525D01*
X007075Y004525D01*
X007325Y004775D01*
X007825Y004775D01*
X022075Y008125D02*
X022725Y007475D01*
X022725Y005525D01*
X022975Y005525D01*
X023275Y005225D01*
X023275Y004675D01*
X027775Y004475D02*
X027775Y007575D01*
X028075Y007875D01*
X028075Y010425D01*
X022075Y010425D02*
X022075Y008125D01*
M02*
